G75*
%MOIN*%
%OFA0B0*%
%FSLAX25Y25*%
%IPPOS*%
%LPD*%
%AMOC8*
5,1,8,0,0,1.08239X$1,22.5*
%
%ADD10C,0.00600*%
D10*
X0005980Y0009881D02*
X0008916Y0009881D01*
X0009650Y0010615D01*
X0009650Y0012083D01*
X0008916Y0012817D01*
X0005980Y0012817D01*
X0005246Y0012083D01*
X0005246Y0010615D01*
X0005980Y0009881D01*
X0005246Y0014485D02*
X0005246Y0016687D01*
X0005980Y0017421D01*
X0006714Y0017421D01*
X0007448Y0016687D01*
X0007448Y0014485D01*
X0009650Y0014485D02*
X0005246Y0014485D01*
X0007448Y0016687D02*
X0008182Y0017421D01*
X0008916Y0017421D01*
X0009650Y0016687D01*
X0009650Y0014485D01*
X0009650Y0019089D02*
X0005246Y0019089D01*
X0005246Y0021291D01*
X0005980Y0022025D01*
X0008916Y0022025D01*
X0009650Y0021291D01*
X0009650Y0019089D01*
X0009650Y0023693D02*
X0006714Y0026629D01*
X0005980Y0026629D01*
X0005246Y0025895D01*
X0005246Y0024427D01*
X0005980Y0023693D01*
X0009650Y0023693D02*
X0009650Y0026629D01*
X0008916Y0032901D02*
X0005980Y0032901D01*
X0005246Y0033635D01*
X0005246Y0035103D01*
X0005980Y0035837D01*
X0008916Y0035837D02*
X0009650Y0035103D01*
X0009650Y0033635D01*
X0008916Y0032901D01*
X0015862Y0033778D02*
X0018798Y0033778D01*
X0017330Y0033778D02*
X0017330Y0038181D01*
X0015862Y0036713D01*
X0009650Y0038239D02*
X0008916Y0037505D01*
X0005980Y0037505D01*
X0005246Y0038239D01*
X0005246Y0039707D01*
X0005980Y0040441D01*
X0008916Y0040441D01*
X0009650Y0039707D01*
X0009650Y0038239D01*
X0009650Y0042109D02*
X0005246Y0042109D01*
X0009650Y0045045D01*
X0005246Y0045045D01*
X0005246Y0046713D02*
X0009650Y0049649D01*
X0005246Y0049649D01*
X0008916Y0051317D02*
X0008916Y0052051D01*
X0009650Y0052051D01*
X0009650Y0051317D01*
X0008916Y0051317D01*
X0009650Y0046713D02*
X0005246Y0046713D01*
X0047316Y0038478D02*
X0047316Y0033478D01*
X0049816Y0030978D01*
X0054816Y0030978D01*
X0057316Y0033478D01*
X0059816Y0030978D01*
X0057316Y0028478D01*
X0057316Y0030978D01*
X0054816Y0030978D01*
X0049816Y0030978D02*
X0047316Y0030978D01*
X0047316Y0020978D01*
X0057316Y0020978D01*
X0057316Y0023478D01*
X0059816Y0020978D01*
X0064816Y0020978D01*
X0067316Y0023478D01*
X0067316Y0028478D01*
X0064816Y0030978D01*
X0059816Y0030978D01*
X0064816Y0030978D02*
X0067316Y0033478D01*
X0067316Y0038478D01*
X0064816Y0040978D01*
X0059816Y0040978D01*
X0057316Y0038478D01*
X0054816Y0040978D01*
X0049816Y0040978D01*
X0047316Y0038478D01*
X0057316Y0038478D02*
X0057316Y0033478D01*
X0067316Y0033478D02*
X0069816Y0030978D01*
X0067316Y0028478D01*
X0069816Y0030978D02*
X0074816Y0030978D01*
X0077316Y0028478D01*
X0079816Y0030978D01*
X0084816Y0030978D01*
X0087316Y0028478D01*
X0089816Y0030978D01*
X0094816Y0030978D01*
X0097316Y0028478D01*
X0097316Y0023478D01*
X0094816Y0020978D01*
X0089816Y0020978D01*
X0087316Y0023478D01*
X0087316Y0028478D01*
X0084816Y0030978D02*
X0087316Y0033478D01*
X0089816Y0030978D01*
X0094816Y0030978D02*
X0097316Y0033478D01*
X0097316Y0038478D01*
X0094816Y0040978D01*
X0089816Y0040978D01*
X0087316Y0038478D01*
X0084816Y0040978D01*
X0079816Y0040978D01*
X0077316Y0038478D01*
X0074816Y0040978D01*
X0069816Y0040978D01*
X0067316Y0038478D01*
X0077316Y0038478D02*
X0077316Y0033478D01*
X0079816Y0030978D01*
X0077316Y0033478D02*
X0074816Y0030978D01*
X0077316Y0028478D02*
X0077316Y0023478D01*
X0079816Y0020978D01*
X0084816Y0020978D01*
X0087316Y0023478D01*
X0077316Y0023478D02*
X0074816Y0020978D01*
X0069816Y0020978D01*
X0067316Y0023478D01*
X0057316Y0023478D02*
X0057316Y0028478D01*
X0044816Y0025978D02*
X0041316Y0027978D01*
X0041316Y0023978D01*
X0044816Y0025978D01*
X0044796Y0025989D02*
X0041316Y0025989D01*
X0041316Y0026587D02*
X0043749Y0026587D01*
X0042701Y0027186D02*
X0041316Y0027186D01*
X0041316Y0027784D02*
X0041654Y0027784D01*
X0041316Y0025390D02*
X0043789Y0025390D01*
X0042741Y0024792D02*
X0041316Y0024792D01*
X0041316Y0024193D02*
X0041694Y0024193D01*
X0087316Y0033478D02*
X0087316Y0038478D01*
X0100112Y0035953D02*
X0104516Y0035953D01*
X0104516Y0034485D02*
X0104516Y0037421D01*
X0101580Y0034485D02*
X0100112Y0035953D01*
X0100846Y0032817D02*
X0102314Y0032817D01*
X0103048Y0032083D01*
X0103048Y0029881D01*
X0104516Y0029881D02*
X0100112Y0029881D01*
X0100112Y0032083D01*
X0100846Y0032817D01*
X0100112Y0028213D02*
X0100112Y0026745D01*
X0100112Y0027479D02*
X0103782Y0027479D01*
X0104516Y0026745D01*
X0104516Y0026012D01*
X0103782Y0025278D01*
X0123758Y0026213D02*
X0125226Y0027681D01*
X0125226Y0023278D01*
X0123758Y0023278D02*
X0126694Y0023278D01*
X0128362Y0024012D02*
X0129096Y0023278D01*
X0130564Y0023278D01*
X0131298Y0024012D01*
X0131298Y0024745D01*
X0130564Y0025479D01*
X0128362Y0025479D01*
X0128362Y0024012D01*
X0128362Y0025479D02*
X0129830Y0026947D01*
X0131298Y0027681D01*
X0135246Y0028197D02*
X0135246Y0026729D01*
X0135980Y0025995D01*
X0138916Y0025995D01*
X0135980Y0028931D01*
X0138916Y0028931D01*
X0139650Y0028197D01*
X0139650Y0026729D01*
X0138916Y0025995D01*
X0138916Y0024427D02*
X0139650Y0024427D01*
X0139650Y0023693D01*
X0138916Y0023693D01*
X0138916Y0024427D01*
X0139650Y0022025D02*
X0139650Y0019089D01*
X0138182Y0017421D02*
X0135246Y0017421D01*
X0136714Y0019089D02*
X0135246Y0020557D01*
X0139650Y0020557D01*
X0138182Y0017421D02*
X0139650Y0015953D01*
X0138182Y0014485D01*
X0135246Y0014485D01*
X0135246Y0028197D02*
X0135980Y0028931D01*
X0135980Y0030599D02*
X0135246Y0031333D01*
X0135246Y0032801D01*
X0135980Y0033535D01*
X0138916Y0030599D01*
X0139650Y0031333D01*
X0139650Y0032801D01*
X0138916Y0033535D01*
X0135980Y0033535D01*
X0135980Y0030599D02*
X0138916Y0030599D01*
X0139650Y0039807D02*
X0135246Y0039807D01*
X0139650Y0039807D02*
X0139650Y0042743D01*
X0139650Y0044411D02*
X0135246Y0044411D01*
X0135246Y0046613D01*
X0135980Y0047347D01*
X0138916Y0047347D01*
X0139650Y0046613D01*
X0139650Y0044411D01*
M02*
