%
M48
M72
T01C0.0394
T02C0.0787
%
T01
X5232Y2598
X6232Y2598
X7232Y2598
X8232Y2598
X9232Y2598
X9232Y3598
X8232Y3598
X7232Y3598
X6232Y3598
X5232Y3598
T02
X1720Y1405
X3295Y1405
X4869Y1405
X6444Y1405
X8019Y1405
X9594Y1405
X11169Y1405
X12743Y1405
X12743Y4791
X11169Y4791
X9594Y4791
X8019Y4791
X6444Y4791
X4869Y4791
X3295Y4791
X1720Y4791
M30
