G75*
%MOIN*%
%OFA0B0*%
%FSLAX25Y25*%
%IPPOS*%
%LPD*%
%AMOC8*
5,1,8,0,0,1.08239X$1,22.5*
%
%ADD10C,0.00600*%
D10*
X0009000Y0006500D02*
X0006500Y0009000D01*
X0006500Y0014000D01*
X0009000Y0016500D01*
X0014000Y0016500D01*
X0016500Y0014000D01*
X0019000Y0016500D01*
X0024000Y0016500D01*
X0026500Y0014000D01*
X0029000Y0016500D01*
X0034000Y0016500D01*
X0036500Y0014000D01*
X0039000Y0016500D01*
X0044000Y0016500D01*
X0046500Y0014000D01*
X0049000Y0016500D01*
X0054000Y0016500D01*
X0056500Y0014000D01*
X0059000Y0016500D01*
X0064000Y0016500D01*
X0066500Y0014000D01*
X0069000Y0016500D01*
X0074000Y0016500D01*
X0076500Y0014000D01*
X0079000Y0016500D01*
X0084000Y0016500D01*
X0086500Y0014000D01*
X0089000Y0016500D01*
X0094000Y0016500D01*
X0096500Y0014000D01*
X0099000Y0016500D01*
X0104000Y0016500D01*
X0106500Y0014000D01*
X0109000Y0016500D01*
X0114000Y0016500D01*
X0116500Y0014000D01*
X0119000Y0016500D01*
X0124000Y0016500D01*
X0126500Y0014000D01*
X0129000Y0016500D01*
X0134000Y0016500D01*
X0136500Y0014000D01*
X0139000Y0016500D01*
X0144000Y0016500D01*
X0146500Y0014000D01*
X0149000Y0016500D01*
X0154000Y0016500D01*
X0156500Y0014000D01*
X0159000Y0016500D01*
X0164000Y0016500D01*
X0166500Y0014000D01*
X0169000Y0016500D01*
X0174000Y0016500D01*
X0176500Y0014000D01*
X0179000Y0016500D01*
X0184000Y0016500D01*
X0186500Y0014000D01*
X0189000Y0016500D01*
X0194000Y0016500D01*
X0196500Y0014000D01*
X0199000Y0016500D01*
X0204000Y0016500D01*
X0206500Y0014000D01*
X0206500Y0009000D01*
X0204000Y0006500D01*
X0199000Y0006500D01*
X0196500Y0009000D01*
X0194000Y0006500D01*
X0189000Y0006500D01*
X0186500Y0009000D01*
X0186500Y0014000D01*
X0176500Y0014000D02*
X0176500Y0009000D01*
X0174000Y0006500D01*
X0169000Y0006500D01*
X0166500Y0009000D01*
X0164000Y0006500D01*
X0159000Y0006500D01*
X0156500Y0009000D01*
X0156500Y0014000D01*
X0146500Y0014000D02*
X0146500Y0009000D01*
X0144000Y0006500D01*
X0139000Y0006500D01*
X0136500Y0009000D01*
X0134000Y0006500D01*
X0129000Y0006500D01*
X0126500Y0009000D01*
X0126500Y0014000D01*
X0116500Y0014000D02*
X0116500Y0009000D01*
X0114000Y0006500D01*
X0109000Y0006500D01*
X0106500Y0009000D01*
X0104000Y0006500D01*
X0099000Y0006500D01*
X0096500Y0009000D01*
X0096500Y0014000D01*
X0086500Y0014000D02*
X0086500Y0009000D01*
X0084000Y0006500D01*
X0079000Y0006500D01*
X0076500Y0009000D01*
X0074000Y0006500D01*
X0069000Y0006500D01*
X0066500Y0009000D01*
X0066500Y0014000D01*
X0056500Y0014000D02*
X0056500Y0009000D01*
X0054000Y0006500D01*
X0049000Y0006500D01*
X0046500Y0009000D01*
X0044000Y0006500D01*
X0039000Y0006500D01*
X0036500Y0009000D01*
X0036500Y0014000D01*
X0026500Y0014000D02*
X0026500Y0009000D01*
X0024000Y0006500D01*
X0019000Y0006500D01*
X0016500Y0009000D01*
X0014000Y0006500D01*
X0009000Y0006500D01*
X0016500Y0009000D02*
X0016500Y0014000D01*
X0026500Y0009000D02*
X0029000Y0006500D01*
X0034000Y0006500D01*
X0036500Y0009000D01*
X0046500Y0009000D02*
X0046500Y0014000D01*
X0056500Y0009000D02*
X0059000Y0006500D01*
X0064000Y0006500D01*
X0066500Y0009000D01*
X0076500Y0009000D02*
X0076500Y0014000D01*
X0086500Y0009000D02*
X0089000Y0006500D01*
X0094000Y0006500D01*
X0096500Y0009000D01*
X0106500Y0009000D02*
X0106500Y0014000D01*
X0116500Y0009000D02*
X0119000Y0006500D01*
X0124000Y0006500D01*
X0126500Y0009000D01*
X0136500Y0009000D02*
X0136500Y0014000D01*
X0146500Y0009000D02*
X0149000Y0006500D01*
X0154000Y0006500D01*
X0156500Y0009000D01*
X0166500Y0009000D02*
X0166500Y0014000D01*
X0176500Y0009000D02*
X0179000Y0006500D01*
X0184000Y0006500D01*
X0186500Y0009000D01*
X0196500Y0009000D02*
X0196500Y0014000D01*
X0200030Y0019969D02*
X0202966Y0019969D01*
X0203700Y0020702D01*
X0203700Y0022170D01*
X0202966Y0022904D01*
X0201498Y0022904D01*
X0201498Y0021436D01*
X0200030Y0019969D02*
X0199296Y0020702D01*
X0199296Y0022170D01*
X0200030Y0022904D01*
X0199296Y0024572D02*
X0203700Y0027508D01*
X0199296Y0027508D01*
X0199296Y0029176D02*
X0199296Y0031378D01*
X0200030Y0032112D01*
X0202966Y0032112D01*
X0203700Y0031378D01*
X0203700Y0029176D01*
X0199296Y0029176D01*
X0193700Y0030644D02*
X0192232Y0032112D01*
X0189296Y0032112D01*
X0192232Y0029176D02*
X0193700Y0030644D01*
X0192232Y0029176D02*
X0189296Y0029176D01*
X0189296Y0027508D02*
X0189296Y0024572D01*
X0191498Y0024572D01*
X0190764Y0026040D01*
X0190764Y0026774D01*
X0191498Y0027508D01*
X0192966Y0027508D01*
X0193700Y0026774D01*
X0193700Y0025306D01*
X0192966Y0024572D01*
X0191498Y0022904D02*
X0191498Y0019969D01*
X0190030Y0021436D02*
X0192966Y0021436D01*
X0199296Y0024572D02*
X0203700Y0024572D01*
X0214296Y0024586D02*
X0214296Y0023118D01*
X0215030Y0022384D01*
X0215764Y0022384D01*
X0216498Y0023118D01*
X0216498Y0024586D01*
X0217232Y0025320D01*
X0217966Y0025320D01*
X0218700Y0024586D01*
X0218700Y0023118D01*
X0217966Y0022384D01*
X0221796Y0022768D02*
X0221796Y0024970D01*
X0222530Y0025704D01*
X0223264Y0025704D01*
X0223998Y0024970D01*
X0223998Y0022768D01*
X0226200Y0022768D02*
X0221796Y0022768D01*
X0221796Y0021167D02*
X0221796Y0019699D01*
X0221796Y0020433D02*
X0226200Y0020433D01*
X0226200Y0019699D02*
X0226200Y0021167D01*
X0226200Y0022768D02*
X0226200Y0024970D01*
X0225466Y0025704D01*
X0224732Y0025704D01*
X0223998Y0024970D01*
X0223998Y0027372D02*
X0223998Y0029574D01*
X0224732Y0030308D01*
X0225466Y0030308D01*
X0226200Y0029574D01*
X0226200Y0027372D01*
X0221796Y0027372D01*
X0221796Y0029574D01*
X0222530Y0030308D01*
X0223264Y0030308D01*
X0223998Y0029574D01*
X0222530Y0031976D02*
X0225466Y0031976D01*
X0226200Y0032710D01*
X0226200Y0034178D01*
X0225466Y0034912D01*
X0222530Y0034912D01*
X0221796Y0034178D01*
X0221796Y0032710D01*
X0222530Y0031976D01*
X0218700Y0031592D02*
X0218700Y0034528D01*
X0217966Y0036196D02*
X0215030Y0039132D01*
X0217966Y0039132D01*
X0218700Y0038398D01*
X0218700Y0036930D01*
X0217966Y0036196D01*
X0215030Y0036196D01*
X0214296Y0036930D01*
X0214296Y0038398D01*
X0215030Y0039132D01*
X0215030Y0040800D02*
X0215764Y0040800D01*
X0216498Y0041534D01*
X0216498Y0043002D01*
X0217232Y0043736D01*
X0217966Y0043736D01*
X0218700Y0043002D01*
X0218700Y0041534D01*
X0217966Y0040800D01*
X0217232Y0040800D01*
X0216498Y0041534D01*
X0215030Y0040800D02*
X0214296Y0041534D01*
X0214296Y0043002D01*
X0215030Y0043736D01*
X0215764Y0043736D01*
X0216498Y0043002D01*
X0221796Y0046521D02*
X0222530Y0045788D01*
X0225466Y0045788D01*
X0226200Y0046521D01*
X0226200Y0047989D01*
X0225466Y0048723D01*
X0225466Y0050391D02*
X0222530Y0050391D01*
X0221796Y0051125D01*
X0221796Y0052593D01*
X0222530Y0053327D01*
X0225466Y0053327D01*
X0226200Y0052593D01*
X0226200Y0051125D01*
X0225466Y0050391D01*
X0222530Y0048723D02*
X0221796Y0047989D01*
X0221796Y0046521D01*
X0229296Y0048857D02*
X0233700Y0048857D01*
X0233700Y0051793D01*
X0233700Y0053461D02*
X0233700Y0055663D01*
X0232966Y0056397D01*
X0230030Y0056397D01*
X0229296Y0055663D01*
X0229296Y0053461D01*
X0233700Y0053461D01*
X0226200Y0054995D02*
X0221796Y0054995D01*
X0226200Y0057931D01*
X0221796Y0057931D01*
X0221796Y0059599D02*
X0226200Y0062535D01*
X0221796Y0062535D01*
X0218700Y0061418D02*
X0217966Y0062151D01*
X0215030Y0062151D01*
X0214296Y0061418D01*
X0214296Y0059216D01*
X0218700Y0059216D01*
X0218700Y0061418D01*
X0221796Y0059599D02*
X0226200Y0059599D01*
X0218700Y0056814D02*
X0217966Y0057548D01*
X0218700Y0056814D02*
X0218700Y0055346D01*
X0217966Y0054612D01*
X0215030Y0054612D01*
X0214296Y0055346D01*
X0214296Y0056814D01*
X0215030Y0057548D01*
X0218700Y0052944D02*
X0218700Y0050008D01*
X0214296Y0050008D01*
X0229296Y0041851D02*
X0230030Y0042585D01*
X0232966Y0039649D01*
X0233700Y0040383D01*
X0233700Y0041851D01*
X0232966Y0042585D01*
X0230030Y0042585D01*
X0229296Y0041851D02*
X0229296Y0040383D01*
X0230030Y0039649D01*
X0232966Y0039649D01*
X0232966Y0037981D02*
X0230030Y0037981D01*
X0232966Y0035045D01*
X0233700Y0035779D01*
X0233700Y0037247D01*
X0232966Y0037981D01*
X0230030Y0037981D02*
X0229296Y0037247D01*
X0229296Y0035779D01*
X0230030Y0035045D01*
X0232966Y0035045D01*
X0232966Y0033477D02*
X0233700Y0033477D01*
X0233700Y0032743D01*
X0232966Y0032743D01*
X0232966Y0033477D01*
X0233700Y0031075D02*
X0233700Y0028139D01*
X0232232Y0026471D02*
X0229296Y0026471D01*
X0230764Y0028139D02*
X0229296Y0029607D01*
X0233700Y0029607D01*
X0232232Y0026471D02*
X0233700Y0025003D01*
X0232232Y0023535D01*
X0229296Y0023535D01*
X0218700Y0020716D02*
X0216498Y0018514D01*
X0217232Y0017780D02*
X0214296Y0020716D01*
X0214296Y0017780D02*
X0218700Y0017780D01*
X0221796Y0017297D02*
X0222530Y0018031D01*
X0223998Y0018031D01*
X0224732Y0017297D01*
X0224732Y0015095D01*
X0226200Y0015095D02*
X0221796Y0015095D01*
X0221796Y0017297D01*
X0224732Y0016563D02*
X0226200Y0018031D01*
X0215030Y0025320D02*
X0214296Y0024586D01*
X0215030Y0026988D02*
X0214296Y0027722D01*
X0214296Y0029190D01*
X0215030Y0029924D01*
X0217966Y0026988D01*
X0218700Y0027722D01*
X0218700Y0029190D01*
X0217966Y0029924D01*
X0215030Y0029924D01*
X0215764Y0031592D02*
X0214296Y0033060D01*
X0218700Y0033060D01*
X0221796Y0036580D02*
X0226200Y0039516D01*
X0221796Y0039516D01*
X0221796Y0036580D02*
X0226200Y0036580D01*
X0217966Y0026988D02*
X0215030Y0026988D01*
X0183700Y0026774D02*
X0183700Y0025306D01*
X0182966Y0024572D01*
X0180030Y0024572D01*
X0179296Y0025306D01*
X0179296Y0026774D01*
X0180030Y0027508D01*
X0182966Y0027508D01*
X0183700Y0026774D01*
X0183700Y0029176D02*
X0179296Y0029176D01*
X0183700Y0032112D01*
X0179296Y0032112D01*
X0179296Y0033780D02*
X0179296Y0036716D01*
X0179296Y0038384D02*
X0179296Y0040586D01*
X0180030Y0041320D01*
X0181498Y0041320D01*
X0182232Y0040586D01*
X0182232Y0038384D01*
X0183700Y0038384D02*
X0179296Y0038384D01*
X0182232Y0039852D02*
X0183700Y0041320D01*
X0183700Y0042988D02*
X0180764Y0042988D01*
X0179296Y0044456D01*
X0180764Y0045924D01*
X0183700Y0045924D01*
X0182966Y0047592D02*
X0183700Y0048326D01*
X0183700Y0049794D01*
X0182966Y0050528D01*
X0182232Y0050528D01*
X0181498Y0049794D01*
X0181498Y0048326D01*
X0180764Y0047592D01*
X0180030Y0047592D01*
X0179296Y0048326D01*
X0179296Y0049794D01*
X0180030Y0050528D01*
X0179296Y0052196D02*
X0179296Y0055132D01*
X0179296Y0053664D02*
X0183700Y0053664D01*
X0181498Y0045924D02*
X0181498Y0042988D01*
X0183700Y0035248D02*
X0179296Y0035248D01*
X0163700Y0027508D02*
X0159296Y0027508D01*
X0162232Y0026040D02*
X0163700Y0027508D01*
X0162232Y0026040D02*
X0163700Y0024572D01*
X0159296Y0024572D01*
X0160030Y0022904D02*
X0161498Y0022904D01*
X0162232Y0022170D01*
X0162232Y0019969D01*
X0163700Y0019969D02*
X0159296Y0019969D01*
X0159296Y0022170D01*
X0160030Y0022904D01*
X0162232Y0021436D02*
X0163700Y0022904D01*
X0169296Y0022170D02*
X0169296Y0019969D01*
X0173700Y0019969D01*
X0173700Y0022170D01*
X0172966Y0022904D01*
X0170030Y0022904D01*
X0169296Y0022170D01*
X0169296Y0024572D02*
X0169296Y0026040D01*
X0169296Y0025306D02*
X0173700Y0025306D01*
X0173700Y0024572D02*
X0173700Y0026040D01*
X0179296Y0022170D02*
X0180030Y0022904D01*
X0179296Y0022170D02*
X0179296Y0020702D01*
X0180030Y0019969D01*
X0182966Y0019969D01*
X0183700Y0020702D01*
X0183700Y0022170D01*
X0182966Y0022904D01*
X0153700Y0022904D02*
X0153700Y0019969D01*
X0149296Y0019969D01*
X0149296Y0022904D01*
X0151498Y0021436D02*
X0151498Y0019969D01*
X0143700Y0019969D02*
X0143700Y0022170D01*
X0142966Y0022904D01*
X0140030Y0022904D01*
X0139296Y0022170D01*
X0139296Y0019969D01*
X0143700Y0019969D01*
X0143700Y0024572D02*
X0139296Y0024572D01*
X0139296Y0026774D01*
X0140030Y0027508D01*
X0140764Y0027508D01*
X0141498Y0026774D01*
X0141498Y0024572D01*
X0143700Y0024572D02*
X0143700Y0026774D01*
X0142966Y0027508D01*
X0142232Y0027508D01*
X0141498Y0026774D01*
X0140030Y0029176D02*
X0139296Y0029910D01*
X0139296Y0031378D01*
X0140030Y0032112D01*
X0142966Y0029176D01*
X0143700Y0029910D01*
X0143700Y0031378D01*
X0142966Y0032112D01*
X0140030Y0032112D01*
X0140030Y0029176D02*
X0142966Y0029176D01*
X0149296Y0027508D02*
X0153700Y0027508D01*
X0149296Y0024572D01*
X0153700Y0024572D01*
X0133700Y0024572D02*
X0133700Y0026774D01*
X0132966Y0027508D01*
X0132232Y0027508D01*
X0131498Y0026774D01*
X0131498Y0024572D01*
X0129296Y0024572D02*
X0129296Y0026774D01*
X0130030Y0027508D01*
X0130764Y0027508D01*
X0131498Y0026774D01*
X0130764Y0029176D02*
X0129296Y0030644D01*
X0133700Y0030644D01*
X0133700Y0029176D02*
X0133700Y0032112D01*
X0123700Y0032112D02*
X0123700Y0029176D01*
X0120764Y0032112D01*
X0120030Y0032112D01*
X0119296Y0031378D01*
X0119296Y0029910D01*
X0120030Y0029176D01*
X0120030Y0027508D02*
X0120764Y0027508D01*
X0121498Y0026774D01*
X0121498Y0024572D01*
X0119296Y0024572D02*
X0119296Y0026774D01*
X0120030Y0027508D01*
X0121498Y0026774D02*
X0122232Y0027508D01*
X0122966Y0027508D01*
X0123700Y0026774D01*
X0123700Y0024572D01*
X0119296Y0024572D01*
X0120030Y0022904D02*
X0119296Y0022170D01*
X0119296Y0019969D01*
X0123700Y0019969D01*
X0123700Y0022170D01*
X0122966Y0022904D01*
X0120030Y0022904D01*
X0113700Y0022170D02*
X0113700Y0019969D01*
X0109296Y0019969D01*
X0109296Y0022170D01*
X0110030Y0022904D01*
X0112966Y0022904D01*
X0113700Y0022170D01*
X0113700Y0024572D02*
X0109296Y0024572D01*
X0109296Y0026774D01*
X0110030Y0027508D01*
X0110764Y0027508D01*
X0111498Y0026774D01*
X0111498Y0024572D01*
X0113700Y0024572D02*
X0113700Y0026774D01*
X0112966Y0027508D01*
X0112232Y0027508D01*
X0111498Y0026774D01*
X0110030Y0029176D02*
X0109296Y0029910D01*
X0109296Y0031378D01*
X0110030Y0032112D01*
X0110764Y0032112D01*
X0111498Y0031378D01*
X0112232Y0032112D01*
X0112966Y0032112D01*
X0113700Y0031378D01*
X0113700Y0029910D01*
X0112966Y0029176D01*
X0111498Y0030644D02*
X0111498Y0031378D01*
X0103700Y0031378D02*
X0099296Y0031378D01*
X0101498Y0029176D01*
X0101498Y0032112D01*
X0093700Y0031378D02*
X0093700Y0029910D01*
X0092966Y0029176D01*
X0091498Y0029176D02*
X0090764Y0030644D01*
X0090764Y0031378D01*
X0091498Y0032112D01*
X0092966Y0032112D01*
X0093700Y0031378D01*
X0091498Y0029176D02*
X0089296Y0029176D01*
X0089296Y0032112D01*
X0083700Y0031378D02*
X0083700Y0029910D01*
X0082966Y0029176D01*
X0081498Y0029176D01*
X0081498Y0031378D01*
X0082232Y0032112D01*
X0082966Y0032112D01*
X0083700Y0031378D01*
X0081498Y0029176D02*
X0080030Y0030644D01*
X0079296Y0032112D01*
X0073700Y0029176D02*
X0072966Y0029176D01*
X0070030Y0032112D01*
X0069296Y0032112D01*
X0069296Y0029176D01*
X0070030Y0027508D02*
X0070764Y0027508D01*
X0071498Y0026774D01*
X0071498Y0024572D01*
X0069296Y0024572D02*
X0069296Y0026774D01*
X0070030Y0027508D01*
X0071498Y0026774D02*
X0072232Y0027508D01*
X0072966Y0027508D01*
X0073700Y0026774D01*
X0073700Y0024572D01*
X0069296Y0024572D01*
X0070030Y0022904D02*
X0069296Y0022170D01*
X0069296Y0019969D01*
X0073700Y0019969D01*
X0073700Y0022170D01*
X0072966Y0022904D01*
X0070030Y0022904D01*
X0063700Y0022170D02*
X0063700Y0020702D01*
X0062966Y0019969D01*
X0060030Y0019969D01*
X0059296Y0020702D01*
X0059296Y0022170D01*
X0060030Y0022904D01*
X0062966Y0022904D02*
X0063700Y0022170D01*
X0062966Y0024572D02*
X0063700Y0025306D01*
X0063700Y0026774D01*
X0062966Y0027508D01*
X0062232Y0027508D01*
X0061498Y0026774D01*
X0061498Y0025306D01*
X0060764Y0024572D01*
X0060030Y0024572D01*
X0059296Y0025306D01*
X0059296Y0026774D01*
X0060030Y0027508D01*
X0060764Y0029176D02*
X0059296Y0030644D01*
X0063700Y0030644D01*
X0063700Y0029176D02*
X0063700Y0032112D01*
X0053700Y0032112D02*
X0053700Y0029176D01*
X0050764Y0032112D01*
X0050030Y0032112D01*
X0049296Y0031378D01*
X0049296Y0029910D01*
X0050030Y0029176D01*
X0050030Y0027508D02*
X0049296Y0026774D01*
X0049296Y0025306D01*
X0050030Y0024572D01*
X0050764Y0024572D01*
X0051498Y0025306D01*
X0051498Y0026774D01*
X0052232Y0027508D01*
X0052966Y0027508D01*
X0053700Y0026774D01*
X0053700Y0025306D01*
X0052966Y0024572D01*
X0052966Y0022904D02*
X0053700Y0022170D01*
X0053700Y0020702D01*
X0052966Y0019969D01*
X0050030Y0019969D01*
X0049296Y0020702D01*
X0049296Y0022170D01*
X0050030Y0022904D01*
X0043700Y0022904D02*
X0042232Y0021436D01*
X0042232Y0022170D02*
X0042232Y0019969D01*
X0043700Y0019969D02*
X0039296Y0019969D01*
X0039296Y0022170D01*
X0040030Y0022904D01*
X0041498Y0022904D01*
X0042232Y0022170D01*
X0041498Y0024572D02*
X0041498Y0026040D01*
X0039296Y0024572D02*
X0043700Y0024572D01*
X0043700Y0027508D01*
X0042966Y0029176D02*
X0043700Y0029910D01*
X0043700Y0031378D01*
X0042966Y0032112D01*
X0042232Y0032112D01*
X0041498Y0031378D01*
X0041498Y0029910D01*
X0040764Y0029176D01*
X0040030Y0029176D01*
X0039296Y0029910D01*
X0039296Y0031378D01*
X0040030Y0032112D01*
X0039296Y0033780D02*
X0043700Y0033780D01*
X0043700Y0036716D01*
X0041498Y0035248D02*
X0041498Y0033780D01*
X0039296Y0033780D02*
X0039296Y0036716D01*
X0039296Y0038384D02*
X0039296Y0041320D01*
X0039296Y0039852D02*
X0043700Y0039852D01*
X0033700Y0035248D02*
X0029296Y0035248D01*
X0029296Y0033780D02*
X0029296Y0036716D01*
X0022966Y0035248D02*
X0020030Y0035248D01*
X0021498Y0033780D02*
X0021498Y0036716D01*
X0011498Y0036716D02*
X0011498Y0033780D01*
X0010030Y0032112D02*
X0009296Y0031378D01*
X0009296Y0029176D01*
X0013700Y0029176D01*
X0013700Y0031378D01*
X0012966Y0032112D01*
X0010030Y0032112D01*
X0009296Y0027508D02*
X0009296Y0024572D01*
X0013700Y0024572D01*
X0013700Y0027508D01*
X0011498Y0026040D02*
X0011498Y0024572D01*
X0013700Y0022904D02*
X0013700Y0019969D01*
X0009296Y0019969D01*
X0019296Y0019969D02*
X0023700Y0019969D01*
X0023700Y0022904D01*
X0023700Y0024572D02*
X0019296Y0024572D01*
X0019296Y0027508D01*
X0019296Y0029176D02*
X0019296Y0031378D01*
X0020030Y0032112D01*
X0022966Y0032112D01*
X0023700Y0031378D01*
X0023700Y0029176D01*
X0019296Y0029176D01*
X0023700Y0027508D02*
X0023700Y0024572D01*
X0021498Y0024572D02*
X0021498Y0026040D01*
X0029296Y0025306D02*
X0030030Y0024572D01*
X0032966Y0024572D01*
X0033700Y0025306D01*
X0033700Y0026774D01*
X0032966Y0027508D01*
X0030030Y0027508D01*
X0029296Y0026774D01*
X0029296Y0025306D01*
X0029296Y0022904D02*
X0032232Y0022904D01*
X0033700Y0021436D01*
X0032232Y0019969D01*
X0029296Y0019969D01*
X0039296Y0024572D02*
X0039296Y0027508D01*
X0033700Y0029910D02*
X0033700Y0031378D01*
X0032966Y0032112D01*
X0029296Y0032112D01*
X0032966Y0029176D02*
X0033700Y0029910D01*
X0032966Y0029176D02*
X0029296Y0029176D01*
X0079296Y0026774D02*
X0079296Y0024572D01*
X0083700Y0024572D01*
X0083700Y0026774D01*
X0082966Y0027508D01*
X0082232Y0027508D01*
X0081498Y0026774D01*
X0081498Y0024572D01*
X0081498Y0026774D02*
X0080764Y0027508D01*
X0080030Y0027508D01*
X0079296Y0026774D01*
X0080030Y0022904D02*
X0079296Y0022170D01*
X0079296Y0019969D01*
X0083700Y0019969D01*
X0083700Y0022170D01*
X0082966Y0022904D01*
X0080030Y0022904D01*
X0089296Y0022170D02*
X0089296Y0019969D01*
X0093700Y0019969D01*
X0093700Y0022170D01*
X0092966Y0022904D01*
X0090030Y0022904D01*
X0089296Y0022170D01*
X0089296Y0024572D02*
X0089296Y0026774D01*
X0090030Y0027508D01*
X0090764Y0027508D01*
X0091498Y0026774D01*
X0091498Y0024572D01*
X0093700Y0024572D02*
X0089296Y0024572D01*
X0091498Y0026774D02*
X0092232Y0027508D01*
X0092966Y0027508D01*
X0093700Y0026774D01*
X0093700Y0024572D01*
X0099296Y0024572D02*
X0099296Y0026774D01*
X0100030Y0027508D01*
X0100764Y0027508D01*
X0101498Y0026774D01*
X0101498Y0024572D01*
X0103700Y0024572D02*
X0099296Y0024572D01*
X0100030Y0022904D02*
X0099296Y0022170D01*
X0099296Y0019969D01*
X0103700Y0019969D01*
X0103700Y0022170D01*
X0102966Y0022904D01*
X0100030Y0022904D01*
X0103700Y0024572D02*
X0103700Y0026774D01*
X0102966Y0027508D01*
X0102232Y0027508D01*
X0101498Y0026774D01*
X0129296Y0024572D02*
X0133700Y0024572D01*
X0132966Y0022904D02*
X0130030Y0022904D01*
X0129296Y0022170D01*
X0129296Y0019969D01*
X0133700Y0019969D01*
X0133700Y0022170D01*
X0132966Y0022904D01*
X0225466Y0064203D02*
X0225466Y0064937D01*
X0226200Y0064937D01*
X0226200Y0064203D01*
X0225466Y0064203D01*
X0179314Y0090034D02*
X0178580Y0089300D01*
X0177112Y0089300D01*
X0176378Y0090034D01*
X0179314Y0092970D01*
X0179314Y0090034D01*
X0176378Y0090034D02*
X0176378Y0092970D01*
X0177112Y0093704D01*
X0178580Y0093704D01*
X0179314Y0092970D01*
X0174710Y0092970D02*
X0174710Y0092236D01*
X0173976Y0091502D01*
X0174710Y0090768D01*
X0174710Y0090034D01*
X0173976Y0089300D01*
X0172508Y0089300D01*
X0171774Y0090034D01*
X0170206Y0090034D02*
X0170206Y0089300D01*
X0169472Y0089300D01*
X0169472Y0090034D01*
X0170206Y0090034D01*
X0167804Y0089300D02*
X0164868Y0089300D01*
X0166336Y0089300D02*
X0166336Y0093704D01*
X0164868Y0092236D01*
X0163200Y0090768D02*
X0163200Y0093704D01*
X0160264Y0093704D02*
X0160264Y0090768D01*
X0161732Y0089300D01*
X0163200Y0090768D01*
X0171774Y0092970D02*
X0172508Y0093704D01*
X0173976Y0093704D01*
X0174710Y0092970D01*
X0173976Y0091502D02*
X0173242Y0091502D01*
X0153992Y0091502D02*
X0153258Y0090768D01*
X0151056Y0090768D01*
X0151056Y0089300D02*
X0151056Y0093704D01*
X0153258Y0093704D01*
X0153992Y0092970D01*
X0153992Y0091502D01*
X0152524Y0090768D02*
X0153992Y0089300D01*
X0149388Y0089300D02*
X0146452Y0089300D01*
X0146452Y0093704D01*
X0149388Y0093704D01*
X0147920Y0091502D02*
X0146452Y0091502D01*
X0144784Y0089300D02*
X0144784Y0093704D01*
X0141848Y0093704D02*
X0144784Y0089300D01*
X0141848Y0089300D02*
X0141848Y0093704D01*
X0140180Y0093704D02*
X0140180Y0089300D01*
X0137245Y0093704D01*
X0137245Y0089300D01*
X0135576Y0089300D02*
X0135576Y0092236D01*
X0134109Y0093704D01*
X0132641Y0092236D01*
X0132641Y0089300D01*
X0130973Y0090034D02*
X0130239Y0089300D01*
X0128771Y0089300D01*
X0128037Y0090034D01*
X0128037Y0092970D01*
X0128771Y0093704D01*
X0130239Y0093704D01*
X0130973Y0092970D01*
X0132641Y0091502D02*
X0135576Y0091502D01*
X0126369Y0090768D02*
X0126369Y0090034D01*
X0125635Y0089300D01*
X0124167Y0089300D01*
X0123433Y0090034D01*
X0125635Y0091502D02*
X0126369Y0090768D01*
X0125635Y0091502D02*
X0124167Y0091502D01*
X0123433Y0092236D01*
X0123433Y0092970D01*
X0124167Y0093704D01*
X0125635Y0093704D01*
X0126369Y0092970D01*
X0117227Y0093704D02*
X0115760Y0093704D01*
X0116494Y0093704D02*
X0116494Y0089300D01*
X0117227Y0089300D02*
X0115760Y0089300D01*
X0114091Y0090034D02*
X0113357Y0089300D01*
X0111890Y0089300D01*
X0111156Y0090034D01*
X0111156Y0092970D01*
X0111890Y0093704D01*
X0113357Y0093704D01*
X0114091Y0092970D01*
X0109488Y0092970D02*
X0108754Y0093704D01*
X0107286Y0093704D01*
X0106552Y0092970D01*
X0106552Y0092236D01*
X0107286Y0091502D01*
X0108754Y0091502D01*
X0109488Y0090768D01*
X0109488Y0090034D01*
X0108754Y0089300D01*
X0107286Y0089300D01*
X0106552Y0090034D01*
X0104884Y0093704D02*
X0101948Y0089300D01*
X0100280Y0090034D02*
X0100280Y0092970D01*
X0099546Y0093704D01*
X0097344Y0093704D01*
X0097344Y0089300D01*
X0099546Y0089300D01*
X0100280Y0090034D01*
X0095676Y0090034D02*
X0094942Y0089300D01*
X0093474Y0089300D01*
X0092740Y0090034D01*
X0092740Y0092970D01*
X0093474Y0093704D01*
X0094942Y0093704D01*
X0095676Y0092970D01*
X0091072Y0092970D02*
X0090338Y0093704D01*
X0088870Y0093704D01*
X0088136Y0092970D01*
X0088136Y0090034D01*
X0088870Y0089300D01*
X0090338Y0089300D01*
X0091072Y0090034D01*
X0081864Y0089300D02*
X0080396Y0090768D01*
X0081130Y0090768D02*
X0078928Y0090768D01*
X0078928Y0089300D02*
X0078928Y0093704D01*
X0081130Y0093704D01*
X0081864Y0092970D01*
X0081864Y0091502D01*
X0081130Y0090768D01*
X0077260Y0089300D02*
X0074324Y0089300D01*
X0074324Y0093704D01*
X0077260Y0093704D01*
X0075792Y0091502D02*
X0074324Y0091502D01*
X0072656Y0089300D02*
X0069720Y0089300D01*
X0069720Y0093704D01*
X0068052Y0092970D02*
X0067318Y0093704D01*
X0065850Y0093704D01*
X0065116Y0092970D01*
X0065116Y0092236D01*
X0065850Y0091502D01*
X0067318Y0091502D01*
X0068052Y0090768D01*
X0068052Y0090034D01*
X0067318Y0089300D01*
X0065850Y0089300D01*
X0065116Y0090034D01*
X0061980Y0089300D02*
X0061980Y0091502D01*
X0063448Y0092970D01*
X0063448Y0093704D01*
X0061980Y0091502D02*
X0060512Y0092970D01*
X0060512Y0093704D01*
X0058844Y0092970D02*
X0058844Y0091502D01*
X0058110Y0090768D01*
X0055909Y0090768D01*
X0057376Y0090768D02*
X0058844Y0089300D01*
X0055909Y0089300D02*
X0055909Y0093704D01*
X0058110Y0093704D01*
X0058844Y0092970D01*
X0054240Y0093704D02*
X0054240Y0089300D01*
X0051305Y0089300D02*
X0051305Y0093704D01*
X0049637Y0092970D02*
X0048903Y0093704D01*
X0047435Y0093704D01*
X0046701Y0092970D01*
X0046701Y0090034D01*
X0047435Y0089300D01*
X0048903Y0089300D01*
X0049637Y0090034D01*
X0051305Y0091502D02*
X0054240Y0091502D01*
X0040429Y0091502D02*
X0037493Y0091502D01*
X0037493Y0089300D02*
X0037493Y0093704D01*
X0035825Y0093704D02*
X0032889Y0093704D01*
X0034357Y0093704D02*
X0034357Y0089300D01*
X0031288Y0089300D02*
X0029820Y0089300D01*
X0030554Y0089300D02*
X0030554Y0093704D01*
X0029820Y0093704D02*
X0031288Y0093704D01*
X0028152Y0093704D02*
X0028152Y0089300D01*
X0026684Y0090768D01*
X0025216Y0089300D01*
X0025216Y0093704D01*
X0018944Y0093704D02*
X0016008Y0093704D01*
X0016008Y0089300D01*
X0018944Y0089300D01*
X0017476Y0091502D02*
X0016008Y0091502D01*
X0014340Y0090768D02*
X0014340Y0090034D01*
X0013606Y0089300D01*
X0012138Y0089300D01*
X0011404Y0090034D01*
X0009736Y0090034D02*
X0009736Y0093704D01*
X0011404Y0092970D02*
X0011404Y0092236D01*
X0012138Y0091502D01*
X0013606Y0091502D01*
X0014340Y0090768D01*
X0009736Y0090034D02*
X0009002Y0089300D01*
X0007534Y0089300D01*
X0006800Y0090034D01*
X0006800Y0093704D01*
X0011404Y0092970D02*
X0012138Y0093704D01*
X0013606Y0093704D01*
X0014340Y0092970D01*
X0040429Y0093704D02*
X0040429Y0089300D01*
M02*
