G75*
%MOIN*%
%OFA0B0*%
%FSLAX25Y25*%
%IPPOS*%
%LPD*%
%AMOC8*
5,1,8,0,0,1.08239X$1,22.5*
%
%ADD10C,0.00600*%
%ADD11R,0.02000X0.03500*%
D10*
X0009300Y0019969D02*
X0009300Y0022904D01*
X0009300Y0024572D02*
X0009300Y0027508D01*
X0009300Y0029176D02*
X0009300Y0031378D01*
X0010034Y0032112D01*
X0012970Y0032112D01*
X0013704Y0031378D01*
X0013704Y0029176D01*
X0009300Y0029176D01*
X0013704Y0027508D02*
X0013704Y0024572D01*
X0009300Y0024572D01*
X0011502Y0024572D02*
X0011502Y0026040D01*
X0019300Y0024572D02*
X0019300Y0027508D01*
X0019300Y0029176D02*
X0019300Y0031378D01*
X0020034Y0032112D01*
X0022970Y0032112D01*
X0023704Y0031378D01*
X0023704Y0029176D01*
X0019300Y0029176D01*
X0023704Y0027508D02*
X0023704Y0024572D01*
X0019300Y0024572D01*
X0021502Y0024572D02*
X0021502Y0026040D01*
X0019300Y0022904D02*
X0019300Y0019969D01*
X0023704Y0019969D01*
X0029300Y0021436D02*
X0030768Y0022904D01*
X0033704Y0022904D01*
X0032970Y0024572D02*
X0030034Y0024572D01*
X0029300Y0025306D01*
X0029300Y0026774D01*
X0030034Y0027508D01*
X0032970Y0027508D01*
X0033704Y0026774D01*
X0033704Y0025306D01*
X0032970Y0024572D01*
X0029300Y0021436D02*
X0030768Y0019969D01*
X0033704Y0019969D01*
X0039300Y0019969D02*
X0043704Y0019969D01*
X0043704Y0022170D01*
X0042970Y0022904D01*
X0041502Y0022904D01*
X0040768Y0022170D01*
X0040768Y0019969D01*
X0040768Y0021436D02*
X0039300Y0022904D01*
X0039300Y0024572D02*
X0039300Y0027508D01*
X0040034Y0029176D02*
X0039300Y0029910D01*
X0039300Y0031378D01*
X0040034Y0032112D01*
X0040768Y0032112D01*
X0041502Y0031378D01*
X0041502Y0029910D01*
X0042236Y0029176D01*
X0042970Y0029176D01*
X0043704Y0029910D01*
X0043704Y0031378D01*
X0042970Y0032112D01*
X0043704Y0033780D02*
X0039300Y0033780D01*
X0039300Y0036716D01*
X0041502Y0035248D02*
X0041502Y0033780D01*
X0043704Y0033780D02*
X0043704Y0036716D01*
X0043704Y0038384D02*
X0043704Y0041320D01*
X0043704Y0039852D02*
X0039300Y0039852D01*
X0033704Y0036716D02*
X0033704Y0033780D01*
X0033704Y0035248D02*
X0029300Y0035248D01*
X0030034Y0032112D02*
X0033704Y0032112D01*
X0030034Y0032112D02*
X0029300Y0031378D01*
X0029300Y0029910D01*
X0030034Y0029176D01*
X0033704Y0029176D01*
X0041502Y0026040D02*
X0041502Y0024572D01*
X0043704Y0024572D02*
X0039300Y0024572D01*
X0043704Y0024572D02*
X0043704Y0027508D01*
X0049300Y0026774D02*
X0049300Y0025306D01*
X0050034Y0024572D01*
X0051502Y0025306D02*
X0051502Y0026774D01*
X0050768Y0027508D01*
X0050034Y0027508D01*
X0049300Y0026774D01*
X0049300Y0029176D02*
X0052236Y0032112D01*
X0052970Y0032112D01*
X0053704Y0031378D01*
X0053704Y0029910D01*
X0052970Y0029176D01*
X0052970Y0027508D02*
X0053704Y0026774D01*
X0053704Y0025306D01*
X0052970Y0024572D01*
X0052236Y0024572D01*
X0051502Y0025306D01*
X0052970Y0022904D02*
X0053704Y0022170D01*
X0053704Y0020702D01*
X0052970Y0019969D01*
X0050034Y0019969D01*
X0049300Y0020702D01*
X0049300Y0022170D01*
X0050034Y0022904D01*
X0059300Y0022170D02*
X0059300Y0020702D01*
X0060034Y0019969D01*
X0062970Y0019969D01*
X0063704Y0020702D01*
X0063704Y0022170D01*
X0062970Y0022904D01*
X0060034Y0022904D02*
X0059300Y0022170D01*
X0060034Y0024572D02*
X0059300Y0025306D01*
X0059300Y0026774D01*
X0060034Y0027508D01*
X0060768Y0027508D01*
X0061502Y0026774D01*
X0061502Y0025306D01*
X0062236Y0024572D01*
X0062970Y0024572D01*
X0063704Y0025306D01*
X0063704Y0026774D01*
X0062970Y0027508D01*
X0062236Y0029176D02*
X0063704Y0030644D01*
X0059300Y0030644D01*
X0059300Y0029176D02*
X0059300Y0032112D01*
X0049300Y0032112D02*
X0049300Y0029176D01*
X0069300Y0029176D02*
X0070034Y0029176D01*
X0072970Y0032112D01*
X0073704Y0032112D01*
X0073704Y0029176D01*
X0072970Y0027508D02*
X0072236Y0027508D01*
X0071502Y0026774D01*
X0071502Y0024572D01*
X0069300Y0024572D02*
X0073704Y0024572D01*
X0073704Y0026774D01*
X0072970Y0027508D01*
X0071502Y0026774D02*
X0070768Y0027508D01*
X0070034Y0027508D01*
X0069300Y0026774D01*
X0069300Y0024572D01*
X0070034Y0022904D02*
X0072970Y0022904D01*
X0073704Y0022170D01*
X0073704Y0019969D01*
X0069300Y0019969D01*
X0069300Y0022170D01*
X0070034Y0022904D01*
X0079300Y0022170D02*
X0079300Y0019969D01*
X0083704Y0019969D01*
X0083704Y0022170D01*
X0082970Y0022904D01*
X0080034Y0022904D01*
X0079300Y0022170D01*
X0079300Y0024572D02*
X0079300Y0026774D01*
X0080034Y0027508D01*
X0080768Y0027508D01*
X0081502Y0026774D01*
X0081502Y0024572D01*
X0083704Y0024572D02*
X0083704Y0026774D01*
X0082970Y0027508D01*
X0082236Y0027508D01*
X0081502Y0026774D01*
X0081502Y0029176D02*
X0080034Y0029176D01*
X0079300Y0029910D01*
X0079300Y0031378D01*
X0080034Y0032112D01*
X0080768Y0032112D01*
X0081502Y0031378D01*
X0081502Y0029176D01*
X0082970Y0030644D01*
X0083704Y0032112D01*
X0089300Y0031378D02*
X0089300Y0029910D01*
X0090034Y0029176D01*
X0091502Y0029176D02*
X0092236Y0030644D01*
X0092236Y0031378D01*
X0091502Y0032112D01*
X0090034Y0032112D01*
X0089300Y0031378D01*
X0091502Y0029176D02*
X0093704Y0029176D01*
X0093704Y0032112D01*
X0099300Y0031378D02*
X0103704Y0031378D01*
X0101502Y0029176D01*
X0101502Y0032112D01*
X0109300Y0031378D02*
X0109300Y0029910D01*
X0110034Y0029176D01*
X0110034Y0027508D02*
X0109300Y0026774D01*
X0109300Y0024572D01*
X0113704Y0024572D01*
X0113704Y0026774D01*
X0112970Y0027508D01*
X0112236Y0027508D01*
X0111502Y0026774D01*
X0111502Y0024572D01*
X0111502Y0026774D02*
X0110768Y0027508D01*
X0110034Y0027508D01*
X0112970Y0029176D02*
X0113704Y0029910D01*
X0113704Y0031378D01*
X0112970Y0032112D01*
X0112236Y0032112D01*
X0111502Y0031378D01*
X0110768Y0032112D01*
X0110034Y0032112D01*
X0109300Y0031378D01*
X0111502Y0031378D02*
X0111502Y0030644D01*
X0119300Y0029176D02*
X0122236Y0032112D01*
X0122970Y0032112D01*
X0123704Y0031378D01*
X0123704Y0029910D01*
X0122970Y0029176D01*
X0122970Y0027508D02*
X0122236Y0027508D01*
X0121502Y0026774D01*
X0121502Y0024572D01*
X0119300Y0024572D02*
X0123704Y0024572D01*
X0123704Y0026774D01*
X0122970Y0027508D01*
X0121502Y0026774D02*
X0120768Y0027508D01*
X0120034Y0027508D01*
X0119300Y0026774D01*
X0119300Y0024572D01*
X0120034Y0022904D02*
X0122970Y0022904D01*
X0123704Y0022170D01*
X0123704Y0019969D01*
X0119300Y0019969D01*
X0119300Y0022170D01*
X0120034Y0022904D01*
X0113704Y0022170D02*
X0113704Y0019969D01*
X0109300Y0019969D01*
X0109300Y0022170D01*
X0110034Y0022904D01*
X0112970Y0022904D01*
X0113704Y0022170D01*
X0103704Y0022170D02*
X0103704Y0019969D01*
X0099300Y0019969D01*
X0099300Y0022170D01*
X0100034Y0022904D01*
X0102970Y0022904D01*
X0103704Y0022170D01*
X0103704Y0024572D02*
X0099300Y0024572D01*
X0099300Y0026774D01*
X0100034Y0027508D01*
X0100768Y0027508D01*
X0101502Y0026774D01*
X0101502Y0024572D01*
X0103704Y0024572D02*
X0103704Y0026774D01*
X0102970Y0027508D01*
X0102236Y0027508D01*
X0101502Y0026774D01*
X0093704Y0026774D02*
X0093704Y0024572D01*
X0089300Y0024572D01*
X0089300Y0026774D01*
X0090034Y0027508D01*
X0090768Y0027508D01*
X0091502Y0026774D01*
X0091502Y0024572D01*
X0091502Y0026774D02*
X0092236Y0027508D01*
X0092970Y0027508D01*
X0093704Y0026774D01*
X0092970Y0022904D02*
X0090034Y0022904D01*
X0089300Y0022170D01*
X0089300Y0019969D01*
X0093704Y0019969D01*
X0093704Y0022170D01*
X0092970Y0022904D01*
X0083704Y0024572D02*
X0079300Y0024572D01*
X0119300Y0029176D02*
X0119300Y0032112D01*
X0129300Y0032112D02*
X0129300Y0029176D01*
X0130034Y0027508D02*
X0129300Y0026774D01*
X0129300Y0024572D01*
X0133704Y0024572D01*
X0133704Y0026774D01*
X0132970Y0027508D01*
X0132236Y0027508D01*
X0131502Y0026774D01*
X0131502Y0024572D01*
X0131502Y0026774D02*
X0130768Y0027508D01*
X0130034Y0027508D01*
X0132236Y0029176D02*
X0133704Y0030644D01*
X0129300Y0030644D01*
X0139300Y0029910D02*
X0140034Y0029176D01*
X0142970Y0032112D01*
X0140034Y0032112D01*
X0139300Y0031378D01*
X0139300Y0029910D01*
X0140034Y0029176D02*
X0142970Y0029176D01*
X0143704Y0029910D01*
X0143704Y0031378D01*
X0142970Y0032112D01*
X0142970Y0027508D02*
X0142236Y0027508D01*
X0141502Y0026774D01*
X0141502Y0024572D01*
X0139300Y0024572D02*
X0143704Y0024572D01*
X0143704Y0026774D01*
X0142970Y0027508D01*
X0141502Y0026774D02*
X0140768Y0027508D01*
X0140034Y0027508D01*
X0139300Y0026774D01*
X0139300Y0024572D01*
X0140034Y0022904D02*
X0142970Y0022904D01*
X0143704Y0022170D01*
X0143704Y0019969D01*
X0139300Y0019969D01*
X0139300Y0022170D01*
X0140034Y0022904D01*
X0133704Y0022170D02*
X0133704Y0019969D01*
X0129300Y0019969D01*
X0129300Y0022170D01*
X0130034Y0022904D01*
X0132970Y0022904D01*
X0133704Y0022170D01*
X0149300Y0022904D02*
X0149300Y0019969D01*
X0153704Y0019969D01*
X0153704Y0022904D01*
X0151502Y0021436D02*
X0151502Y0019969D01*
X0159300Y0019969D02*
X0163704Y0019969D01*
X0163704Y0022170D01*
X0162970Y0022904D01*
X0161502Y0022904D01*
X0160768Y0022170D01*
X0160768Y0019969D01*
X0160768Y0021436D02*
X0159300Y0022904D01*
X0159300Y0024572D02*
X0160768Y0026040D01*
X0159300Y0027508D01*
X0163704Y0027508D01*
X0169300Y0026040D02*
X0169300Y0024572D01*
X0169300Y0025306D02*
X0173704Y0025306D01*
X0173704Y0024572D02*
X0173704Y0026040D01*
X0179300Y0025306D02*
X0179300Y0026774D01*
X0180034Y0027508D01*
X0182970Y0027508D01*
X0183704Y0026774D01*
X0183704Y0025306D01*
X0182970Y0024572D01*
X0180034Y0024572D01*
X0179300Y0025306D01*
X0180034Y0022904D02*
X0179300Y0022170D01*
X0179300Y0020702D01*
X0180034Y0019969D01*
X0182970Y0019969D01*
X0183704Y0020702D01*
X0183704Y0022170D01*
X0182970Y0022904D01*
X0189300Y0025306D02*
X0190034Y0024572D01*
X0189300Y0025306D02*
X0189300Y0026774D01*
X0190034Y0027508D01*
X0191502Y0027508D01*
X0192236Y0026774D01*
X0192236Y0026040D01*
X0191502Y0024572D01*
X0193704Y0024572D01*
X0193704Y0027508D01*
X0193704Y0029176D02*
X0190768Y0029176D01*
X0189300Y0030644D01*
X0190768Y0032112D01*
X0193704Y0032112D01*
X0199300Y0031378D02*
X0199300Y0029176D01*
X0203704Y0029176D01*
X0203704Y0031378D01*
X0202970Y0032112D01*
X0200034Y0032112D01*
X0199300Y0031378D01*
X0199300Y0027508D02*
X0203704Y0027508D01*
X0203704Y0024572D02*
X0199300Y0027508D01*
X0199300Y0024572D02*
X0203704Y0024572D01*
X0202970Y0022904D02*
X0203704Y0022170D01*
X0203704Y0020702D01*
X0202970Y0019969D01*
X0200034Y0019969D01*
X0199300Y0020702D01*
X0199300Y0022170D01*
X0200034Y0022904D01*
X0201502Y0022904D01*
X0201502Y0021436D01*
X0209300Y0018944D02*
X0209300Y0016008D01*
X0211502Y0014340D02*
X0210768Y0013606D01*
X0210768Y0011404D01*
X0209300Y0011404D02*
X0213704Y0011404D01*
X0213704Y0013606D01*
X0212970Y0014340D01*
X0211502Y0014340D01*
X0212236Y0016008D02*
X0213704Y0017476D01*
X0209300Y0017476D01*
X0221800Y0018031D02*
X0223268Y0016563D01*
X0223268Y0017297D02*
X0223268Y0015095D01*
X0221800Y0015095D02*
X0226204Y0015095D01*
X0226204Y0017297D01*
X0225470Y0018031D01*
X0224002Y0018031D01*
X0223268Y0017297D01*
X0221800Y0019699D02*
X0221800Y0021167D01*
X0221800Y0020433D02*
X0226204Y0020433D01*
X0226204Y0019699D02*
X0226204Y0021167D01*
X0229300Y0020716D02*
X0231502Y0018514D01*
X0230768Y0017780D02*
X0233704Y0020716D01*
X0232970Y0022384D02*
X0232236Y0022384D01*
X0231502Y0023118D01*
X0231502Y0024586D01*
X0230768Y0025320D01*
X0230034Y0025320D01*
X0229300Y0024586D01*
X0229300Y0023118D01*
X0230034Y0022384D01*
X0232970Y0022384D02*
X0233704Y0023118D01*
X0233704Y0024586D01*
X0232970Y0025320D01*
X0232970Y0026988D02*
X0230034Y0026988D01*
X0232970Y0029924D01*
X0230034Y0029924D01*
X0229300Y0029190D01*
X0229300Y0027722D01*
X0230034Y0026988D01*
X0232970Y0026988D02*
X0233704Y0027722D01*
X0233704Y0029190D01*
X0232970Y0029924D01*
X0232236Y0031592D02*
X0233704Y0033060D01*
X0229300Y0033060D01*
X0229300Y0031592D02*
X0229300Y0034528D01*
X0230034Y0036196D02*
X0232970Y0039132D01*
X0230034Y0039132D01*
X0229300Y0038398D01*
X0229300Y0036930D01*
X0230034Y0036196D01*
X0232970Y0036196D01*
X0233704Y0036930D01*
X0233704Y0038398D01*
X0232970Y0039132D01*
X0232970Y0040800D02*
X0232236Y0040800D01*
X0231502Y0041534D01*
X0231502Y0043002D01*
X0230768Y0043736D01*
X0230034Y0043736D01*
X0229300Y0043002D01*
X0229300Y0041534D01*
X0230034Y0040800D01*
X0230768Y0040800D01*
X0231502Y0041534D01*
X0232970Y0040800D02*
X0233704Y0041534D01*
X0233704Y0043002D01*
X0232970Y0043736D01*
X0232236Y0043736D01*
X0231502Y0043002D01*
X0226204Y0046521D02*
X0225470Y0045788D01*
X0222534Y0045788D01*
X0221800Y0046521D01*
X0221800Y0047989D01*
X0222534Y0048723D01*
X0222534Y0050391D02*
X0221800Y0051125D01*
X0221800Y0052593D01*
X0222534Y0053327D01*
X0225470Y0053327D01*
X0226204Y0052593D01*
X0226204Y0051125D01*
X0225470Y0050391D01*
X0222534Y0050391D01*
X0225470Y0048723D02*
X0226204Y0047989D01*
X0226204Y0046521D01*
X0218704Y0048857D02*
X0214300Y0048857D01*
X0214300Y0051793D01*
X0214300Y0053461D02*
X0214300Y0055663D01*
X0215034Y0056397D01*
X0217970Y0056397D01*
X0218704Y0055663D01*
X0218704Y0053461D01*
X0214300Y0053461D01*
X0221800Y0054995D02*
X0226204Y0054995D01*
X0221800Y0057931D01*
X0226204Y0057931D01*
X0226204Y0059599D02*
X0221800Y0062535D01*
X0226204Y0062535D01*
X0229300Y0061418D02*
X0230034Y0062151D01*
X0232970Y0062151D01*
X0233704Y0061418D01*
X0233704Y0059216D01*
X0229300Y0059216D01*
X0229300Y0061418D01*
X0226204Y0059599D02*
X0221800Y0059599D01*
X0229300Y0056814D02*
X0230034Y0057548D01*
X0229300Y0056814D02*
X0229300Y0055346D01*
X0230034Y0054612D01*
X0232970Y0054612D01*
X0233704Y0055346D01*
X0233704Y0056814D01*
X0232970Y0057548D01*
X0229300Y0052944D02*
X0229300Y0050008D01*
X0233704Y0050008D01*
X0218704Y0041851D02*
X0217970Y0042585D01*
X0215034Y0039649D01*
X0214300Y0040383D01*
X0214300Y0041851D01*
X0215034Y0042585D01*
X0217970Y0042585D01*
X0218704Y0041851D02*
X0218704Y0040383D01*
X0217970Y0039649D01*
X0215034Y0039649D01*
X0215034Y0037981D02*
X0214300Y0037247D01*
X0214300Y0035779D01*
X0215034Y0035045D01*
X0217970Y0037981D01*
X0215034Y0037981D01*
X0217970Y0037981D02*
X0218704Y0037247D01*
X0218704Y0035779D01*
X0217970Y0035045D01*
X0215034Y0035045D01*
X0215034Y0033477D02*
X0214300Y0033477D01*
X0214300Y0032743D01*
X0215034Y0032743D01*
X0215034Y0033477D01*
X0214300Y0031075D02*
X0214300Y0028139D01*
X0215768Y0026471D02*
X0218704Y0026471D01*
X0217236Y0028139D02*
X0218704Y0029607D01*
X0214300Y0029607D01*
X0215768Y0026471D02*
X0214300Y0025003D01*
X0215768Y0023535D01*
X0218704Y0023535D01*
X0221800Y0022768D02*
X0221800Y0024970D01*
X0222534Y0025704D01*
X0223268Y0025704D01*
X0224002Y0024970D01*
X0224002Y0022768D01*
X0221800Y0022768D02*
X0226204Y0022768D01*
X0226204Y0024970D01*
X0225470Y0025704D01*
X0224736Y0025704D01*
X0224002Y0024970D01*
X0224002Y0027372D02*
X0224002Y0029574D01*
X0223268Y0030308D01*
X0222534Y0030308D01*
X0221800Y0029574D01*
X0221800Y0027372D01*
X0226204Y0027372D01*
X0226204Y0029574D01*
X0225470Y0030308D01*
X0224736Y0030308D01*
X0224002Y0029574D01*
X0225470Y0031976D02*
X0222534Y0031976D01*
X0221800Y0032710D01*
X0221800Y0034178D01*
X0222534Y0034912D01*
X0225470Y0034912D01*
X0226204Y0034178D01*
X0226204Y0032710D01*
X0225470Y0031976D01*
X0226204Y0036580D02*
X0221800Y0036580D01*
X0221800Y0039516D02*
X0226204Y0039516D01*
X0226204Y0036580D02*
X0221800Y0039516D01*
X0191502Y0022904D02*
X0191502Y0019969D01*
X0192970Y0021436D02*
X0190034Y0021436D01*
X0183704Y0029176D02*
X0179300Y0029176D01*
X0179300Y0032112D02*
X0183704Y0029176D01*
X0183704Y0032112D02*
X0179300Y0032112D01*
X0183704Y0033780D02*
X0183704Y0036716D01*
X0183704Y0038384D02*
X0183704Y0040586D01*
X0182970Y0041320D01*
X0181502Y0041320D01*
X0180768Y0040586D01*
X0180768Y0038384D01*
X0179300Y0038384D02*
X0183704Y0038384D01*
X0180768Y0039852D02*
X0179300Y0041320D01*
X0179300Y0042988D02*
X0182236Y0042988D01*
X0183704Y0044456D01*
X0182236Y0045924D01*
X0179300Y0045924D01*
X0180034Y0047592D02*
X0179300Y0048326D01*
X0179300Y0049794D01*
X0180034Y0050528D01*
X0180768Y0050528D01*
X0181502Y0049794D01*
X0181502Y0048326D01*
X0182236Y0047592D01*
X0182970Y0047592D01*
X0183704Y0048326D01*
X0183704Y0049794D01*
X0182970Y0050528D01*
X0183704Y0052196D02*
X0183704Y0055132D01*
X0183704Y0053664D02*
X0179300Y0053664D01*
X0172100Y0053900D02*
X0169200Y0053900D01*
X0172100Y0053900D02*
X0172100Y0057400D01*
X0167600Y0059100D02*
X0165400Y0059100D01*
X0160900Y0057400D02*
X0160900Y0053900D01*
X0163800Y0053900D01*
X0162660Y0046204D02*
X0162660Y0041800D01*
X0165596Y0046204D01*
X0165596Y0041800D01*
X0167264Y0041800D02*
X0170200Y0041800D01*
X0167264Y0044736D01*
X0167264Y0045470D01*
X0167998Y0046204D01*
X0169466Y0046204D01*
X0170200Y0045470D01*
X0160992Y0046204D02*
X0158056Y0046204D01*
X0158056Y0045470D01*
X0160992Y0042534D01*
X0160992Y0041800D01*
X0156388Y0042534D02*
X0153452Y0045470D01*
X0153452Y0042534D01*
X0154186Y0041800D01*
X0155654Y0041800D01*
X0156388Y0042534D01*
X0156388Y0045470D01*
X0155654Y0046204D01*
X0154186Y0046204D01*
X0153452Y0045470D01*
X0151784Y0045470D02*
X0151050Y0046204D01*
X0149582Y0046204D01*
X0148848Y0045470D01*
X0151784Y0042534D01*
X0151050Y0041800D01*
X0149582Y0041800D01*
X0148848Y0042534D01*
X0148848Y0045470D01*
X0147180Y0045470D02*
X0146446Y0046204D01*
X0144979Y0046204D01*
X0144245Y0045470D01*
X0144245Y0044736D01*
X0147180Y0041800D01*
X0144245Y0041800D01*
X0151784Y0042534D02*
X0151784Y0045470D01*
X0164128Y0038704D02*
X0164128Y0034300D01*
X0165596Y0034300D02*
X0162660Y0034300D01*
X0167264Y0034300D02*
X0168732Y0035768D01*
X0167264Y0035034D02*
X0167998Y0034300D01*
X0169466Y0034300D01*
X0170200Y0035034D01*
X0170200Y0037970D01*
X0169466Y0038704D01*
X0167998Y0038704D01*
X0167264Y0037970D01*
X0167264Y0035034D01*
X0165596Y0037236D02*
X0164128Y0038704D01*
X0179300Y0035248D02*
X0183704Y0035248D01*
X0181502Y0042988D02*
X0181502Y0045924D01*
X0182660Y0060800D02*
X0185596Y0060800D01*
X0184128Y0060800D02*
X0184128Y0065204D01*
X0185596Y0063736D01*
X0187264Y0064470D02*
X0187264Y0063002D01*
X0187998Y0062268D01*
X0190200Y0062268D01*
X0188732Y0062268D02*
X0187264Y0060800D01*
X0190200Y0060800D02*
X0190200Y0065204D01*
X0187998Y0065204D01*
X0187264Y0064470D01*
X0195500Y0067500D02*
X0177500Y0067500D01*
X0177000Y0067000D01*
X0175500Y0067000D01*
X0175440Y0067002D01*
X0175379Y0067007D01*
X0175320Y0067016D01*
X0175261Y0067029D01*
X0175202Y0067045D01*
X0175145Y0067065D01*
X0175090Y0067088D01*
X0175035Y0067115D01*
X0174983Y0067144D01*
X0174932Y0067177D01*
X0174883Y0067213D01*
X0174837Y0067251D01*
X0174793Y0067293D01*
X0174751Y0067337D01*
X0174713Y0067383D01*
X0174677Y0067432D01*
X0174644Y0067483D01*
X0174615Y0067535D01*
X0174588Y0067590D01*
X0174565Y0067645D01*
X0174545Y0067702D01*
X0174529Y0067761D01*
X0174516Y0067820D01*
X0174507Y0067879D01*
X0174502Y0067940D01*
X0174500Y0068000D01*
X0174500Y0071500D01*
X0170500Y0071500D01*
X0174500Y0071500D02*
X0174500Y0075000D01*
X0174502Y0075060D01*
X0174507Y0075121D01*
X0174516Y0075180D01*
X0174529Y0075239D01*
X0174545Y0075298D01*
X0174565Y0075355D01*
X0174588Y0075410D01*
X0174615Y0075465D01*
X0174644Y0075517D01*
X0174677Y0075568D01*
X0174713Y0075617D01*
X0174751Y0075663D01*
X0174793Y0075707D01*
X0174837Y0075749D01*
X0174883Y0075787D01*
X0174932Y0075823D01*
X0174983Y0075856D01*
X0175035Y0075885D01*
X0175090Y0075912D01*
X0175145Y0075935D01*
X0175202Y0075955D01*
X0175261Y0075971D01*
X0175320Y0075984D01*
X0175379Y0075993D01*
X0175440Y0075998D01*
X0175500Y0076000D01*
X0177000Y0076000D01*
X0177500Y0075500D01*
X0195500Y0075500D01*
X0196000Y0076000D01*
X0197500Y0076000D01*
X0197560Y0075998D01*
X0197621Y0075993D01*
X0197680Y0075984D01*
X0197739Y0075971D01*
X0197798Y0075955D01*
X0197855Y0075935D01*
X0197910Y0075912D01*
X0197965Y0075885D01*
X0198017Y0075856D01*
X0198068Y0075823D01*
X0198117Y0075787D01*
X0198163Y0075749D01*
X0198207Y0075707D01*
X0198249Y0075663D01*
X0198287Y0075617D01*
X0198323Y0075568D01*
X0198356Y0075517D01*
X0198385Y0075465D01*
X0198412Y0075410D01*
X0198435Y0075355D01*
X0198455Y0075298D01*
X0198471Y0075239D01*
X0198484Y0075180D01*
X0198493Y0075121D01*
X0198498Y0075060D01*
X0198500Y0075000D01*
X0198500Y0071500D01*
X0202500Y0071500D01*
X0198500Y0071500D02*
X0198500Y0068000D01*
X0198498Y0067940D01*
X0198493Y0067879D01*
X0198484Y0067820D01*
X0198471Y0067761D01*
X0198455Y0067702D01*
X0198435Y0067645D01*
X0198412Y0067590D01*
X0198385Y0067535D01*
X0198356Y0067483D01*
X0198323Y0067432D01*
X0198287Y0067383D01*
X0198249Y0067337D01*
X0198207Y0067293D01*
X0198163Y0067251D01*
X0198117Y0067213D01*
X0198068Y0067177D01*
X0198017Y0067144D01*
X0197965Y0067115D01*
X0197910Y0067088D01*
X0197855Y0067065D01*
X0197798Y0067045D01*
X0197739Y0067029D01*
X0197680Y0067016D01*
X0197621Y0067007D01*
X0197560Y0067002D01*
X0197500Y0067000D01*
X0196000Y0067000D01*
X0195500Y0067500D01*
X0185408Y0069300D02*
X0182472Y0069300D01*
X0183940Y0069300D02*
X0183940Y0073704D01*
X0185408Y0072236D01*
X0180804Y0072970D02*
X0180804Y0070034D01*
X0177868Y0072970D01*
X0177868Y0070034D01*
X0178602Y0069300D01*
X0180070Y0069300D01*
X0180804Y0070034D01*
X0180804Y0072970D02*
X0180070Y0073704D01*
X0178602Y0073704D01*
X0177868Y0072970D01*
X0158574Y0072954D02*
X0157840Y0072220D01*
X0158574Y0072954D02*
X0158574Y0074422D01*
X0157840Y0075156D01*
X0157106Y0075156D01*
X0154170Y0072220D01*
X0154170Y0075156D01*
X0152780Y0077339D02*
X0225890Y0077339D01*
X0225890Y0095661D01*
X0152780Y0095661D01*
X0152780Y0077339D01*
X0143704Y0077404D02*
X0143704Y0078872D01*
X0143704Y0078138D02*
X0139300Y0078138D01*
X0139300Y0077404D02*
X0139300Y0078872D01*
X0139300Y0080473D02*
X0139300Y0082675D01*
X0140034Y0083409D01*
X0140768Y0083409D01*
X0141502Y0082675D01*
X0141502Y0080473D01*
X0139300Y0080473D02*
X0143704Y0080473D01*
X0143704Y0082675D01*
X0142970Y0083409D01*
X0142236Y0083409D01*
X0141502Y0082675D01*
X0142236Y0085077D02*
X0143704Y0086545D01*
X0139300Y0086545D01*
X0139300Y0085077D02*
X0139300Y0088013D01*
X0136657Y0096500D02*
X0136657Y0072500D01*
X0006343Y0072500D01*
X0006343Y0096500D01*
X0006500Y0096500D02*
X0010442Y0096500D01*
X0014379Y0096500D02*
X0018320Y0096500D01*
X0022257Y0096500D02*
X0026199Y0096500D01*
X0030136Y0096500D02*
X0034078Y0096500D01*
X0038015Y0096500D02*
X0041956Y0096500D01*
X0045893Y0096500D02*
X0049835Y0096500D01*
X0053772Y0096500D02*
X0057714Y0096500D01*
X0061651Y0096500D02*
X0065592Y0096500D01*
X0062445Y0096500D02*
X0062445Y0076500D01*
X0080555Y0076500D01*
X0080555Y0096500D01*
X0081349Y0096500D02*
X0077408Y0096500D01*
X0073471Y0096500D02*
X0069529Y0096500D01*
X0085286Y0096500D02*
X0089228Y0096500D01*
X0093165Y0096500D02*
X0097107Y0096500D01*
X0101044Y0096500D02*
X0104985Y0096500D01*
X0108922Y0096500D02*
X0112864Y0096500D01*
X0116801Y0096500D02*
X0120743Y0096500D01*
X0124680Y0096500D02*
X0128621Y0096500D01*
X0132558Y0096500D02*
X0136500Y0096500D01*
X0176093Y0087236D02*
X0178295Y0085768D01*
X0176093Y0084300D01*
X0178295Y0084300D02*
X0178295Y0088704D01*
X0179963Y0087970D02*
X0182899Y0085034D01*
X0182165Y0084300D01*
X0180697Y0084300D01*
X0179963Y0085034D01*
X0179963Y0087970D01*
X0180697Y0088704D01*
X0182165Y0088704D01*
X0182899Y0087970D01*
X0182899Y0085034D01*
X0184567Y0084300D02*
X0187503Y0084300D01*
X0186035Y0084300D02*
X0186035Y0088704D01*
X0187503Y0087236D01*
X0226283Y0091815D02*
X0231992Y0091815D01*
X0231992Y0087878D01*
X0230024Y0087878D01*
X0230024Y0085122D01*
X0231992Y0085122D01*
X0231992Y0081185D01*
X0226283Y0081185D01*
X0222534Y0064937D02*
X0221800Y0064937D01*
X0221800Y0064203D01*
X0222534Y0064203D01*
X0222534Y0064937D01*
X0158574Y0067616D02*
X0158574Y0069818D01*
X0157840Y0070552D01*
X0156372Y0070552D01*
X0155638Y0069818D01*
X0155638Y0067616D01*
X0154170Y0067616D02*
X0158574Y0067616D01*
X0155638Y0069084D02*
X0154170Y0070552D01*
X0143704Y0072800D02*
X0143704Y0075002D01*
X0142970Y0075736D01*
X0141502Y0075736D01*
X0140768Y0075002D01*
X0140768Y0072800D01*
X0139300Y0072800D02*
X0143704Y0072800D01*
X0140768Y0074268D02*
X0139300Y0075736D01*
X0121500Y0066500D02*
X0119000Y0069000D01*
X0114000Y0069000D01*
X0111500Y0066500D01*
X0109000Y0069000D01*
X0104000Y0069000D01*
X0101500Y0066500D01*
X0101500Y0061500D01*
X0104000Y0059000D01*
X0109000Y0059000D01*
X0111500Y0056500D01*
X0111500Y0059000D01*
X0114000Y0059000D01*
X0119000Y0059000D01*
X0121500Y0059000D01*
X0121500Y0049000D01*
X0111500Y0049000D01*
X0111500Y0051500D01*
X0109000Y0049000D01*
X0104000Y0049000D01*
X0101500Y0051500D01*
X0101500Y0056500D01*
X0104000Y0059000D01*
X0101500Y0061500D02*
X0099000Y0059000D01*
X0101500Y0056500D01*
X0099000Y0059000D02*
X0094000Y0059000D01*
X0091500Y0056500D01*
X0089000Y0059000D01*
X0084000Y0059000D01*
X0081500Y0056500D01*
X0079000Y0059000D01*
X0074000Y0059000D01*
X0071500Y0056500D01*
X0069000Y0059000D01*
X0064000Y0059000D01*
X0061500Y0056500D01*
X0059000Y0059000D01*
X0054000Y0059000D01*
X0051500Y0056500D01*
X0049000Y0059000D01*
X0044000Y0059000D01*
X0041500Y0056500D01*
X0039000Y0059000D01*
X0034000Y0059000D01*
X0031500Y0056500D01*
X0029000Y0059000D01*
X0024000Y0059000D01*
X0021500Y0056500D01*
X0021500Y0051500D01*
X0024000Y0049000D01*
X0029000Y0049000D01*
X0031500Y0051500D01*
X0031500Y0056500D01*
X0029000Y0059000D02*
X0031500Y0061500D01*
X0031500Y0066500D01*
X0029000Y0069000D01*
X0024000Y0069000D01*
X0021500Y0066500D01*
X0021500Y0061500D01*
X0024000Y0059000D01*
X0031500Y0061500D02*
X0034000Y0059000D01*
X0039000Y0059000D02*
X0041500Y0061500D01*
X0041500Y0066500D01*
X0039000Y0069000D01*
X0034000Y0069000D01*
X0031500Y0066500D01*
X0041500Y0066500D02*
X0044000Y0069000D01*
X0049000Y0069000D01*
X0051500Y0066500D01*
X0054000Y0069000D01*
X0059000Y0069000D01*
X0061500Y0066500D01*
X0064000Y0069000D01*
X0069000Y0069000D01*
X0071500Y0066500D01*
X0074000Y0069000D01*
X0079000Y0069000D01*
X0081500Y0066500D01*
X0084000Y0069000D01*
X0089000Y0069000D01*
X0091500Y0066500D01*
X0094000Y0069000D01*
X0099000Y0069000D01*
X0101500Y0066500D01*
X0091500Y0066500D02*
X0091500Y0061500D01*
X0089000Y0059000D01*
X0091500Y0061500D02*
X0094000Y0059000D01*
X0091500Y0056500D02*
X0091500Y0051500D01*
X0089000Y0049000D01*
X0084000Y0049000D01*
X0081500Y0051500D01*
X0079000Y0049000D01*
X0074000Y0049000D01*
X0071500Y0051500D01*
X0069000Y0049000D01*
X0064000Y0049000D01*
X0061500Y0051500D01*
X0059000Y0049000D01*
X0054000Y0049000D01*
X0051500Y0051500D01*
X0049000Y0049000D01*
X0044000Y0049000D01*
X0041500Y0051500D01*
X0039000Y0049000D01*
X0034000Y0049000D01*
X0031500Y0051500D01*
X0041500Y0051500D02*
X0041500Y0056500D01*
X0044000Y0059000D02*
X0041500Y0061500D01*
X0049000Y0059000D02*
X0051500Y0061500D01*
X0051500Y0066500D01*
X0061500Y0066500D02*
X0061500Y0061500D01*
X0059000Y0059000D01*
X0061500Y0061500D02*
X0064000Y0059000D01*
X0069000Y0059000D02*
X0071500Y0061500D01*
X0071500Y0066500D01*
X0071500Y0061500D02*
X0074000Y0059000D01*
X0071500Y0056500D02*
X0071500Y0051500D01*
X0061500Y0051500D02*
X0061500Y0056500D01*
X0054000Y0059000D02*
X0051500Y0061500D01*
X0051500Y0056500D02*
X0051500Y0051500D01*
X0079000Y0059000D02*
X0081500Y0061500D01*
X0081500Y0066500D01*
X0081500Y0061500D02*
X0084000Y0059000D01*
X0081500Y0056500D02*
X0081500Y0051500D01*
X0091500Y0051500D02*
X0094000Y0049000D01*
X0099000Y0049000D01*
X0101500Y0051500D01*
X0111500Y0051500D02*
X0111500Y0056500D01*
X0109000Y0059000D02*
X0111500Y0061500D01*
X0111500Y0066500D01*
X0121500Y0066500D02*
X0121500Y0061500D01*
X0119000Y0059000D01*
X0114000Y0059000D02*
X0111500Y0061500D01*
X0126391Y0055366D02*
X0127500Y0055366D01*
X0127500Y0054768D02*
X0125343Y0054768D01*
X0124296Y0054169D02*
X0127500Y0054169D01*
X0127500Y0053570D02*
X0124752Y0053570D01*
X0124000Y0054000D02*
X0127500Y0056000D01*
X0127500Y0052000D01*
X0124000Y0054000D01*
X0125799Y0052972D02*
X0127500Y0052972D01*
X0127500Y0052373D02*
X0126846Y0052373D01*
X0127438Y0055965D02*
X0127500Y0055965D01*
X0149300Y0027508D02*
X0153704Y0027508D01*
X0153704Y0024572D02*
X0149300Y0027508D01*
X0149300Y0024572D02*
X0153704Y0024572D01*
X0159300Y0024572D02*
X0163704Y0024572D01*
X0169300Y0022170D02*
X0170034Y0022904D01*
X0172970Y0022904D01*
X0173704Y0022170D01*
X0173704Y0019969D01*
X0169300Y0019969D01*
X0169300Y0022170D01*
X0209300Y0008268D02*
X0209300Y0007534D01*
X0210034Y0006800D01*
X0209300Y0008268D02*
X0210034Y0009002D01*
X0213704Y0009002D01*
X0213704Y0008268D02*
X0213704Y0009736D01*
X0229300Y0017780D02*
X0233704Y0017780D01*
X0022970Y0035248D02*
X0020034Y0035248D01*
X0021502Y0033780D02*
X0021502Y0036716D01*
X0011502Y0036716D02*
X0011502Y0033780D01*
X0013704Y0019969D02*
X0009300Y0019969D01*
D11*
X0026500Y0070750D03*
X0036500Y0070750D03*
X0046500Y0070750D03*
X0056500Y0070750D03*
X0066500Y0070750D03*
X0076500Y0070750D03*
X0086500Y0070750D03*
X0096500Y0070750D03*
X0106500Y0070750D03*
X0116500Y0070750D03*
M02*
