%
M48
M72
T01C0.0157
T02C0.0315
T03C0.0394
%
T01
X4150Y4650
X6650Y8150
X14150Y6650
X14650Y6650
X19650Y2650
T02
X20650Y7150
X21650Y8150
X19650Y9150
X16650Y8150
X16650Y7150
T03
X1150Y1150
X2150Y1150
X3150Y1150
X4150Y1150
X5150Y1150
X6150Y1150
X7150Y1150
X8150Y1150
X9150Y1150
X10150Y1150
X11150Y1150
X12150Y1150
X13150Y1150
X14150Y1150
X15150Y1150
X16150Y1150
X17150Y1150
X18150Y1150
X19150Y1150
X20150Y1150
X11650Y5400
X10650Y5400
X9650Y5400
X8650Y5400
X7650Y5400
X6650Y5400
X5650Y5400
X4650Y5400
X3650Y5400
X2650Y5400
X2650Y6400
X3650Y6400
X4650Y6400
X5650Y6400
X6650Y6400
X7650Y6400
X8650Y6400
X9650Y6400
X10650Y6400
X11650Y6400
M30
