G75*
%MOIN*%
%OFA0B0*%
%FSLAX25Y25*%
%IPPOS*%
%LPD*%
%AMOC8*
5,1,8,0,0,1.08239X$1,22.5*
%
%ADD10C,0.07480*%
%ADD11R,0.07480X0.07480*%
%ADD12C,0.05984*%
%ADD13C,0.01000*%
%ADD14C,0.02992*%
D10*
X0011500Y0011500D03*
X0021500Y0011500D03*
X0031500Y0011500D03*
X0041500Y0011500D03*
X0051500Y0011500D03*
X0061500Y0011500D03*
X0071500Y0011500D03*
X0081500Y0011500D03*
X0091500Y0011500D03*
X0101500Y0011500D03*
X0111500Y0011500D03*
X0121500Y0011500D03*
X0131500Y0011500D03*
X0141500Y0011500D03*
X0151500Y0011500D03*
X0161500Y0011500D03*
X0171500Y0011500D03*
X0181500Y0011500D03*
X0191500Y0011500D03*
X0201500Y0011500D03*
X0106500Y0054000D03*
X0096500Y0054000D03*
X0086500Y0054000D03*
X0076500Y0054000D03*
X0066500Y0054000D03*
X0056500Y0054000D03*
X0046500Y0054000D03*
X0036500Y0054000D03*
X0026500Y0054000D03*
X0026500Y0064000D03*
X0036500Y0064000D03*
X0046500Y0064000D03*
X0056500Y0064000D03*
X0066500Y0064000D03*
X0076500Y0064000D03*
X0086500Y0064000D03*
X0096500Y0064000D03*
X0106500Y0064000D03*
X0116500Y0064000D03*
D11*
X0116500Y0054000D03*
D12*
X0166500Y0071500D03*
X0166500Y0081500D03*
X0196500Y0091500D03*
X0216500Y0081500D03*
X0206500Y0071500D03*
D13*
X0004000Y0097425D02*
X0004000Y0004000D01*
X0235220Y0004000D01*
X0235220Y0097425D01*
X0004000Y0097425D01*
X0004000Y0097357D02*
X0235220Y0097357D01*
X0235220Y0096359D02*
X0004000Y0096359D01*
X0004000Y0095360D02*
X0194864Y0095360D01*
X0194125Y0095054D02*
X0195666Y0095692D01*
X0197334Y0095692D01*
X0198875Y0095054D01*
X0200054Y0093875D01*
X0200692Y0092334D01*
X0200692Y0090666D01*
X0200054Y0089125D01*
X0198875Y0087946D01*
X0198200Y0087667D01*
X0198200Y0028613D01*
X0198786Y0028027D01*
X0199196Y0027036D01*
X0199196Y0025964D01*
X0198786Y0024973D01*
X0198027Y0024214D01*
X0197036Y0023804D01*
X0195964Y0023804D01*
X0194973Y0024214D01*
X0194214Y0024973D01*
X0193804Y0025964D01*
X0193804Y0027036D01*
X0194214Y0028027D01*
X0194800Y0028613D01*
X0194800Y0087667D01*
X0194125Y0087946D01*
X0192946Y0089125D01*
X0192308Y0090666D01*
X0192308Y0092334D01*
X0192946Y0093875D01*
X0194125Y0095054D01*
X0193433Y0094362D02*
X0004000Y0094362D01*
X0004000Y0093363D02*
X0192734Y0093363D01*
X0192321Y0092365D02*
X0004000Y0092365D01*
X0004000Y0091366D02*
X0192308Y0091366D01*
X0192432Y0090368D02*
X0004000Y0090368D01*
X0004000Y0089369D02*
X0192845Y0089369D01*
X0193701Y0088370D02*
X0004000Y0088370D01*
X0004000Y0087372D02*
X0194800Y0087372D01*
X0194800Y0086373D02*
X0004000Y0086373D01*
X0004000Y0085375D02*
X0164210Y0085375D01*
X0164146Y0085342D02*
X0163574Y0084926D01*
X0163074Y0084426D01*
X0162658Y0083854D01*
X0162337Y0083224D01*
X0162118Y0082552D01*
X0162008Y0081854D01*
X0162008Y0081787D01*
X0166213Y0081787D01*
X0166213Y0081213D01*
X0166787Y0081213D01*
X0166787Y0077008D01*
X0166854Y0077008D01*
X0167552Y0077118D01*
X0168224Y0077337D01*
X0168854Y0077658D01*
X0169426Y0078074D01*
X0169926Y0078574D01*
X0170342Y0079146D01*
X0170663Y0079776D01*
X0170882Y0080448D01*
X0170992Y0081146D01*
X0170992Y0081213D01*
X0166787Y0081213D01*
X0166787Y0081787D01*
X0170992Y0081787D01*
X0170992Y0081854D01*
X0170882Y0082552D01*
X0170663Y0083224D01*
X0170342Y0083854D01*
X0169926Y0084426D01*
X0169426Y0084926D01*
X0168854Y0085342D01*
X0168224Y0085663D01*
X0167552Y0085882D01*
X0166854Y0085992D01*
X0166787Y0085992D01*
X0166787Y0081787D01*
X0166213Y0081787D01*
X0166213Y0085992D01*
X0166146Y0085992D01*
X0165448Y0085882D01*
X0164776Y0085663D01*
X0164146Y0085342D01*
X0163037Y0084376D02*
X0004000Y0084376D01*
X0004000Y0083378D02*
X0064565Y0083378D01*
X0064214Y0083027D02*
X0063804Y0082036D01*
X0063804Y0080964D01*
X0064214Y0079973D01*
X0064973Y0079214D01*
X0065964Y0078804D01*
X0067036Y0078804D01*
X0068027Y0079214D01*
X0068613Y0079800D01*
X0130796Y0079800D01*
X0141400Y0069196D01*
X0141208Y0069196D01*
X0132204Y0078200D01*
X0025796Y0078200D01*
X0024800Y0077204D01*
X0009800Y0062204D01*
X0009800Y0016143D01*
X0008702Y0015688D01*
X0007312Y0014298D01*
X0006560Y0012483D01*
X0006560Y0010517D01*
X0007312Y0008702D01*
X0008702Y0007312D01*
X0010517Y0006560D01*
X0012483Y0006560D01*
X0014298Y0007312D01*
X0015688Y0008702D01*
X0016440Y0010517D01*
X0016440Y0012483D01*
X0015688Y0014298D01*
X0014298Y0015688D01*
X0013200Y0016143D01*
X0013200Y0060796D01*
X0027204Y0074800D01*
X0034896Y0074800D01*
X0034800Y0074704D01*
X0029800Y0069704D01*
X0029800Y0068080D01*
X0029246Y0068482D01*
X0028512Y0068856D01*
X0027727Y0069111D01*
X0026984Y0069229D01*
X0026984Y0064484D01*
X0026016Y0064484D01*
X0026016Y0063516D01*
X0021271Y0063516D01*
X0021389Y0062773D01*
X0021644Y0061988D01*
X0022018Y0061254D01*
X0022503Y0060586D01*
X0023086Y0060003D01*
X0023754Y0059518D01*
X0024488Y0059144D01*
X0025273Y0058889D01*
X0025360Y0058875D01*
X0023702Y0058188D01*
X0022312Y0056798D01*
X0021560Y0054983D01*
X0021560Y0053017D01*
X0022312Y0051202D01*
X0023702Y0049812D01*
X0025517Y0049060D01*
X0027483Y0049060D01*
X0029298Y0049812D01*
X0030688Y0051202D01*
X0031440Y0053017D01*
X0031440Y0054983D01*
X0030985Y0056081D01*
X0032204Y0057300D01*
X0032204Y0057300D01*
X0033200Y0058296D01*
X0033200Y0060314D01*
X0033702Y0059812D01*
X0035517Y0059060D01*
X0037483Y0059060D01*
X0039298Y0059812D01*
X0040688Y0061202D01*
X0041440Y0063017D01*
X0041440Y0064983D01*
X0040688Y0066798D01*
X0039298Y0068188D01*
X0037483Y0068940D01*
X0035517Y0068940D01*
X0033702Y0068188D01*
X0033200Y0067686D01*
X0033200Y0068296D01*
X0037204Y0072300D01*
X0128296Y0072300D01*
X0187015Y0013581D01*
X0186560Y0012483D01*
X0186560Y0010517D01*
X0187312Y0008702D01*
X0188702Y0007312D01*
X0190517Y0006560D01*
X0192483Y0006560D01*
X0194298Y0007312D01*
X0195688Y0008702D01*
X0196375Y0010360D01*
X0196389Y0010273D01*
X0196644Y0009488D01*
X0196014Y0009488D01*
X0196644Y0009488D02*
X0197018Y0008754D01*
X0197503Y0008086D01*
X0198086Y0007503D01*
X0198754Y0007018D01*
X0199488Y0006644D01*
X0200273Y0006389D01*
X0201016Y0006271D01*
X0201016Y0011016D01*
X0201984Y0011016D01*
X0201984Y0006271D01*
X0202727Y0006389D01*
X0203512Y0006644D01*
X0204246Y0007018D01*
X0204914Y0007503D01*
X0205497Y0008086D01*
X0205982Y0008754D01*
X0206356Y0009488D01*
X0235220Y0009488D01*
X0235220Y0008490D02*
X0205790Y0008490D01*
X0206356Y0009488D02*
X0206611Y0010273D01*
X0206729Y0011016D01*
X0201984Y0011016D01*
X0201984Y0011984D01*
X0201016Y0011984D01*
X0201016Y0016729D01*
X0200273Y0016611D01*
X0199488Y0016356D01*
X0198754Y0015982D01*
X0198086Y0015497D01*
X0197503Y0014914D01*
X0197018Y0014246D01*
X0196644Y0013512D01*
X0196389Y0012727D01*
X0196375Y0012640D01*
X0195688Y0014298D01*
X0194298Y0015688D01*
X0192483Y0016440D01*
X0190517Y0016440D01*
X0189419Y0015985D01*
X0141600Y0063804D01*
X0142036Y0063804D01*
X0143027Y0064214D01*
X0143786Y0064973D01*
X0144000Y0065490D01*
X0144214Y0064973D01*
X0144973Y0064214D01*
X0145964Y0063804D01*
X0147036Y0063804D01*
X0148027Y0064214D01*
X0148786Y0064973D01*
X0149196Y0065964D01*
X0149196Y0067036D01*
X0148786Y0068027D01*
X0148027Y0068786D01*
X0147036Y0069196D01*
X0146208Y0069196D01*
X0133200Y0082204D01*
X0132204Y0083200D01*
X0068613Y0083200D01*
X0068027Y0083786D01*
X0067036Y0084196D01*
X0065964Y0084196D01*
X0064973Y0083786D01*
X0064214Y0083027D01*
X0063946Y0082379D02*
X0004000Y0082379D01*
X0004000Y0081381D02*
X0063804Y0081381D01*
X0064045Y0080382D02*
X0004000Y0080382D01*
X0004000Y0079384D02*
X0064803Y0079384D01*
X0068197Y0079384D02*
X0131212Y0079384D01*
X0132210Y0078385D02*
X0004000Y0078385D01*
X0004000Y0077387D02*
X0024983Y0077387D01*
X0023984Y0076388D02*
X0004000Y0076388D01*
X0004000Y0075390D02*
X0022986Y0075390D01*
X0021987Y0074391D02*
X0004000Y0074391D01*
X0004000Y0073393D02*
X0020989Y0073393D01*
X0019990Y0072394D02*
X0004000Y0072394D01*
X0004000Y0071396D02*
X0018992Y0071396D01*
X0017993Y0070397D02*
X0004000Y0070397D01*
X0004000Y0069399D02*
X0016995Y0069399D01*
X0015996Y0068400D02*
X0004000Y0068400D01*
X0004000Y0067402D02*
X0014998Y0067402D01*
X0013999Y0066403D02*
X0004000Y0066403D01*
X0004000Y0065405D02*
X0013001Y0065405D01*
X0012002Y0064406D02*
X0004000Y0064406D01*
X0004000Y0063408D02*
X0011004Y0063408D01*
X0010005Y0062409D02*
X0004000Y0062409D01*
X0004000Y0061411D02*
X0009800Y0061411D01*
X0009800Y0060412D02*
X0004000Y0060412D01*
X0004000Y0059414D02*
X0009800Y0059414D01*
X0009800Y0058415D02*
X0004000Y0058415D01*
X0004000Y0057417D02*
X0009800Y0057417D01*
X0009800Y0056418D02*
X0004000Y0056418D01*
X0004000Y0055420D02*
X0009800Y0055420D01*
X0009800Y0054421D02*
X0004000Y0054421D01*
X0004000Y0053423D02*
X0009800Y0053423D01*
X0009800Y0052424D02*
X0004000Y0052424D01*
X0004000Y0051426D02*
X0009800Y0051426D01*
X0009800Y0050427D02*
X0004000Y0050427D01*
X0004000Y0049429D02*
X0009800Y0049429D01*
X0009800Y0048430D02*
X0004000Y0048430D01*
X0004000Y0047432D02*
X0009800Y0047432D01*
X0009800Y0046433D02*
X0004000Y0046433D01*
X0004000Y0045434D02*
X0009800Y0045434D01*
X0009800Y0044436D02*
X0004000Y0044436D01*
X0004000Y0043437D02*
X0009800Y0043437D01*
X0009800Y0042439D02*
X0004000Y0042439D01*
X0004000Y0041440D02*
X0009800Y0041440D01*
X0009800Y0040442D02*
X0004000Y0040442D01*
X0004000Y0039443D02*
X0009800Y0039443D01*
X0009800Y0038445D02*
X0004000Y0038445D01*
X0004000Y0037446D02*
X0009800Y0037446D01*
X0009800Y0036448D02*
X0004000Y0036448D01*
X0004000Y0035449D02*
X0009800Y0035449D01*
X0009800Y0034451D02*
X0004000Y0034451D01*
X0004000Y0033452D02*
X0009800Y0033452D01*
X0009800Y0032454D02*
X0004000Y0032454D01*
X0004000Y0031455D02*
X0009800Y0031455D01*
X0009800Y0030457D02*
X0004000Y0030457D01*
X0004000Y0029458D02*
X0009800Y0029458D01*
X0009800Y0028460D02*
X0004000Y0028460D01*
X0004000Y0027461D02*
X0009800Y0027461D01*
X0009800Y0026463D02*
X0004000Y0026463D01*
X0004000Y0025464D02*
X0009800Y0025464D01*
X0009800Y0024466D02*
X0004000Y0024466D01*
X0004000Y0023467D02*
X0009800Y0023467D01*
X0009800Y0022469D02*
X0004000Y0022469D01*
X0004000Y0021470D02*
X0009800Y0021470D01*
X0009800Y0020472D02*
X0004000Y0020472D01*
X0004000Y0019473D02*
X0009800Y0019473D01*
X0009800Y0018475D02*
X0004000Y0018475D01*
X0004000Y0017476D02*
X0009800Y0017476D01*
X0009800Y0016478D02*
X0004000Y0016478D01*
X0004000Y0015479D02*
X0008493Y0015479D01*
X0007494Y0014481D02*
X0004000Y0014481D01*
X0004000Y0013482D02*
X0006974Y0013482D01*
X0006560Y0012484D02*
X0004000Y0012484D01*
X0004000Y0011485D02*
X0006560Y0011485D01*
X0006573Y0010487D02*
X0004000Y0010487D01*
X0004000Y0009488D02*
X0006986Y0009488D01*
X0007524Y0008490D02*
X0004000Y0008490D01*
X0004000Y0007491D02*
X0008522Y0007491D01*
X0004000Y0006493D02*
X0199954Y0006493D01*
X0201016Y0006493D02*
X0201984Y0006493D01*
X0201984Y0007491D02*
X0201016Y0007491D01*
X0201016Y0008490D02*
X0201984Y0008490D01*
X0201984Y0009488D02*
X0201016Y0009488D01*
X0201016Y0010487D02*
X0201984Y0010487D01*
X0201984Y0011485D02*
X0235220Y0011485D01*
X0235220Y0010487D02*
X0206645Y0010487D01*
X0206729Y0011984D02*
X0206611Y0012727D01*
X0206356Y0013512D01*
X0205982Y0014246D01*
X0205497Y0014914D01*
X0204914Y0015497D01*
X0204246Y0015982D01*
X0203512Y0016356D01*
X0202727Y0016611D01*
X0201984Y0016729D01*
X0201984Y0011984D01*
X0206729Y0011984D01*
X0206650Y0012484D02*
X0235220Y0012484D01*
X0235220Y0013482D02*
X0206366Y0013482D01*
X0205812Y0014481D02*
X0235220Y0014481D01*
X0235220Y0015479D02*
X0204932Y0015479D01*
X0203138Y0016478D02*
X0235220Y0016478D01*
X0235220Y0017476D02*
X0187928Y0017476D01*
X0188926Y0016478D02*
X0199862Y0016478D01*
X0201016Y0016478D02*
X0201984Y0016478D01*
X0201984Y0015479D02*
X0201016Y0015479D01*
X0201016Y0014481D02*
X0201984Y0014481D01*
X0201984Y0013482D02*
X0201016Y0013482D01*
X0201016Y0012484D02*
X0201984Y0012484D01*
X0197188Y0014481D02*
X0195506Y0014481D01*
X0196026Y0013482D02*
X0196634Y0013482D01*
X0198068Y0015479D02*
X0194507Y0015479D01*
X0186974Y0013482D02*
X0186026Y0013482D01*
X0185688Y0014298D02*
X0186440Y0012483D01*
X0186440Y0010517D01*
X0185688Y0008702D01*
X0184298Y0007312D01*
X0182483Y0006560D01*
X0180517Y0006560D01*
X0178702Y0007312D01*
X0177312Y0008702D01*
X0176560Y0010517D01*
X0176560Y0012483D01*
X0177312Y0014298D01*
X0178702Y0015688D01*
X0180517Y0016440D01*
X0182483Y0016440D01*
X0184298Y0015688D01*
X0185688Y0014298D01*
X0185506Y0014481D02*
X0186115Y0014481D01*
X0185117Y0015479D02*
X0184507Y0015479D01*
X0184118Y0016478D02*
X0138926Y0016478D01*
X0139419Y0015985D02*
X0140517Y0016440D01*
X0142483Y0016440D01*
X0144298Y0015688D01*
X0145688Y0014298D01*
X0146440Y0012483D01*
X0146440Y0010517D01*
X0145688Y0008702D01*
X0144298Y0007312D01*
X0142483Y0006560D01*
X0140517Y0006560D01*
X0138702Y0007312D01*
X0137312Y0008702D01*
X0136560Y0010517D01*
X0136560Y0012483D01*
X0137015Y0013581D01*
X0119800Y0030796D01*
X0119800Y0049060D01*
X0113200Y0049060D01*
X0113200Y0032204D01*
X0129419Y0015985D01*
X0130517Y0016440D01*
X0132483Y0016440D01*
X0134298Y0015688D01*
X0135688Y0014298D01*
X0136440Y0012483D01*
X0136440Y0010517D01*
X0135688Y0008702D01*
X0134298Y0007312D01*
X0132483Y0006560D01*
X0130517Y0006560D01*
X0128702Y0007312D01*
X0127312Y0008702D01*
X0126560Y0010517D01*
X0126560Y0012483D01*
X0127015Y0013581D01*
X0109800Y0030796D01*
X0109800Y0050314D01*
X0109298Y0049812D01*
X0107483Y0049060D01*
X0105517Y0049060D01*
X0103702Y0049812D01*
X0103200Y0050314D01*
X0103200Y0032204D01*
X0119419Y0015985D01*
X0120517Y0016440D01*
X0122483Y0016440D01*
X0124298Y0015688D01*
X0125688Y0014298D01*
X0126440Y0012483D01*
X0126440Y0010517D01*
X0125688Y0008702D01*
X0124298Y0007312D01*
X0122483Y0006560D01*
X0120517Y0006560D01*
X0118702Y0007312D01*
X0117312Y0008702D01*
X0116560Y0010517D01*
X0116560Y0012483D01*
X0117015Y0013581D01*
X0099800Y0030796D01*
X0099800Y0050314D01*
X0099298Y0049812D01*
X0097483Y0049060D01*
X0095517Y0049060D01*
X0093702Y0049812D01*
X0093200Y0050314D01*
X0093200Y0032204D01*
X0109419Y0015985D01*
X0110517Y0016440D01*
X0112483Y0016440D01*
X0114298Y0015688D01*
X0115688Y0014298D01*
X0116440Y0012483D01*
X0116440Y0010517D01*
X0115688Y0008702D01*
X0114298Y0007312D01*
X0112483Y0006560D01*
X0110517Y0006560D01*
X0108702Y0007312D01*
X0107312Y0008702D01*
X0106560Y0010517D01*
X0106560Y0012483D01*
X0107015Y0013581D01*
X0089800Y0030796D01*
X0089800Y0050314D01*
X0089298Y0049812D01*
X0087483Y0049060D01*
X0085517Y0049060D01*
X0083702Y0049812D01*
X0083200Y0050314D01*
X0083200Y0032204D01*
X0099419Y0015985D01*
X0100517Y0016440D01*
X0102483Y0016440D01*
X0104298Y0015688D01*
X0105688Y0014298D01*
X0106440Y0012483D01*
X0106440Y0010517D01*
X0105688Y0008702D01*
X0104298Y0007312D01*
X0102483Y0006560D01*
X0100517Y0006560D01*
X0098702Y0007312D01*
X0097312Y0008702D01*
X0096560Y0010517D01*
X0096560Y0012483D01*
X0097015Y0013581D01*
X0079800Y0030796D01*
X0079800Y0050314D01*
X0079298Y0049812D01*
X0077483Y0049060D01*
X0075517Y0049060D01*
X0073702Y0049812D01*
X0073200Y0050314D01*
X0073200Y0032204D01*
X0089419Y0015985D01*
X0090517Y0016440D01*
X0092483Y0016440D01*
X0094298Y0015688D01*
X0095688Y0014298D01*
X0096440Y0012483D01*
X0096440Y0010517D01*
X0095688Y0008702D01*
X0094298Y0007312D01*
X0092483Y0006560D01*
X0090517Y0006560D01*
X0088702Y0007312D01*
X0087312Y0008702D01*
X0086560Y0010517D01*
X0086560Y0012483D01*
X0087015Y0013581D01*
X0069800Y0030796D01*
X0069800Y0050314D01*
X0069298Y0049812D01*
X0067483Y0049060D01*
X0065517Y0049060D01*
X0063702Y0049812D01*
X0063200Y0050314D01*
X0063200Y0032204D01*
X0079419Y0015985D01*
X0080517Y0016440D01*
X0082483Y0016440D01*
X0084298Y0015688D01*
X0085688Y0014298D01*
X0086440Y0012483D01*
X0086440Y0010517D01*
X0085688Y0008702D01*
X0084298Y0007312D01*
X0082483Y0006560D01*
X0080517Y0006560D01*
X0078702Y0007312D01*
X0077312Y0008702D01*
X0076560Y0010517D01*
X0076560Y0012483D01*
X0077015Y0013581D01*
X0059800Y0030796D01*
X0059800Y0050314D01*
X0059298Y0049812D01*
X0057483Y0049060D01*
X0055517Y0049060D01*
X0053702Y0049812D01*
X0053200Y0050314D01*
X0053200Y0032204D01*
X0069419Y0015985D01*
X0070517Y0016440D01*
X0072483Y0016440D01*
X0074298Y0015688D01*
X0075688Y0014298D01*
X0076440Y0012483D01*
X0076440Y0010517D01*
X0075688Y0008702D01*
X0074298Y0007312D01*
X0072483Y0006560D01*
X0070517Y0006560D01*
X0068702Y0007312D01*
X0067312Y0008702D01*
X0066560Y0010517D01*
X0066560Y0012483D01*
X0067015Y0013581D01*
X0049800Y0030796D01*
X0049800Y0050314D01*
X0049298Y0049812D01*
X0047483Y0049060D01*
X0045517Y0049060D01*
X0043702Y0049812D01*
X0042312Y0051202D01*
X0041560Y0053017D01*
X0041560Y0054983D01*
X0042312Y0056798D01*
X0043702Y0058188D01*
X0045517Y0058940D01*
X0047483Y0058940D01*
X0049298Y0058188D01*
X0049800Y0057686D01*
X0049800Y0058296D01*
X0048581Y0059515D01*
X0047483Y0059060D01*
X0045517Y0059060D01*
X0043702Y0059812D01*
X0042312Y0061202D01*
X0041560Y0063017D01*
X0041560Y0064983D01*
X0042312Y0066798D01*
X0043702Y0068188D01*
X0045517Y0068940D01*
X0047483Y0068940D01*
X0049298Y0068188D01*
X0050688Y0066798D01*
X0051440Y0064983D01*
X0051440Y0063017D01*
X0050985Y0061919D01*
X0052204Y0060700D01*
X0053200Y0059704D01*
X0053200Y0057686D01*
X0053702Y0058188D01*
X0055517Y0058940D01*
X0057483Y0058940D01*
X0059298Y0058188D01*
X0059800Y0057686D01*
X0059800Y0058296D01*
X0058581Y0059515D01*
X0057483Y0059060D01*
X0055517Y0059060D01*
X0053702Y0059812D01*
X0052312Y0061202D01*
X0051560Y0063017D01*
X0051560Y0064983D01*
X0052312Y0066798D01*
X0053702Y0068188D01*
X0055517Y0068940D01*
X0057483Y0068940D01*
X0059298Y0068188D01*
X0060688Y0066798D01*
X0061440Y0064983D01*
X0061440Y0063017D01*
X0060985Y0061919D01*
X0062204Y0060700D01*
X0063200Y0059704D01*
X0063200Y0057686D01*
X0063702Y0058188D01*
X0065517Y0058940D01*
X0067483Y0058940D01*
X0069298Y0058188D01*
X0069800Y0057686D01*
X0069800Y0058296D01*
X0068581Y0059515D01*
X0067483Y0059060D01*
X0065517Y0059060D01*
X0063702Y0059812D01*
X0062312Y0061202D01*
X0061560Y0063017D01*
X0061560Y0064983D01*
X0062312Y0066798D01*
X0063702Y0068188D01*
X0065517Y0068940D01*
X0067483Y0068940D01*
X0069298Y0068188D01*
X0070688Y0066798D01*
X0071440Y0064983D01*
X0071440Y0063017D01*
X0070985Y0061919D01*
X0072204Y0060700D01*
X0073200Y0059704D01*
X0073200Y0057686D01*
X0073702Y0058188D01*
X0075517Y0058940D01*
X0077483Y0058940D01*
X0079298Y0058188D01*
X0079800Y0057686D01*
X0079800Y0058296D01*
X0078581Y0059515D01*
X0077483Y0059060D01*
X0075517Y0059060D01*
X0073702Y0059812D01*
X0072312Y0061202D01*
X0071560Y0063017D01*
X0071560Y0064983D01*
X0072312Y0066798D01*
X0073702Y0068188D01*
X0075517Y0068940D01*
X0077483Y0068940D01*
X0079298Y0068188D01*
X0080688Y0066798D01*
X0081440Y0064983D01*
X0081440Y0063017D01*
X0080985Y0061919D01*
X0082204Y0060700D01*
X0083200Y0059704D01*
X0083200Y0057686D01*
X0083702Y0058188D01*
X0085517Y0058940D01*
X0087483Y0058940D01*
X0089298Y0058188D01*
X0089800Y0057686D01*
X0089800Y0058296D01*
X0088581Y0059515D01*
X0087483Y0059060D01*
X0085517Y0059060D01*
X0083702Y0059812D01*
X0082312Y0061202D01*
X0081560Y0063017D01*
X0081560Y0064983D01*
X0082312Y0066798D01*
X0083702Y0068188D01*
X0085517Y0068940D01*
X0087483Y0068940D01*
X0089298Y0068188D01*
X0090688Y0066798D01*
X0091440Y0064983D01*
X0091440Y0063017D01*
X0090985Y0061919D01*
X0092204Y0060700D01*
X0093200Y0059704D01*
X0093200Y0057686D01*
X0093702Y0058188D01*
X0095517Y0058940D01*
X0097483Y0058940D01*
X0099298Y0058188D01*
X0099800Y0057686D01*
X0099800Y0058296D01*
X0098581Y0059515D01*
X0097483Y0059060D01*
X0095517Y0059060D01*
X0093702Y0059812D01*
X0092312Y0061202D01*
X0091560Y0063017D01*
X0091560Y0064983D01*
X0092312Y0066798D01*
X0093702Y0068188D01*
X0095517Y0068940D01*
X0097483Y0068940D01*
X0099298Y0068188D01*
X0100688Y0066798D01*
X0101440Y0064983D01*
X0101440Y0063017D01*
X0100985Y0061919D01*
X0102204Y0060700D01*
X0103200Y0059704D01*
X0103200Y0057686D01*
X0103702Y0058188D01*
X0105517Y0058940D01*
X0107483Y0058940D01*
X0109298Y0058188D01*
X0109800Y0057686D01*
X0109800Y0058296D01*
X0108581Y0059515D01*
X0107483Y0059060D01*
X0105517Y0059060D01*
X0103702Y0059812D01*
X0102312Y0061202D01*
X0101560Y0063017D01*
X0101560Y0064983D01*
X0102312Y0066798D01*
X0103702Y0068188D01*
X0105517Y0068940D01*
X0107483Y0068940D01*
X0109298Y0068188D01*
X0110688Y0066798D01*
X0111440Y0064983D01*
X0111440Y0063017D01*
X0110985Y0061919D01*
X0112204Y0060700D01*
X0113200Y0059704D01*
X0113200Y0058940D01*
X0119156Y0058940D01*
X0118581Y0059515D01*
X0117483Y0059060D01*
X0115517Y0059060D01*
X0113702Y0059812D01*
X0112312Y0061202D01*
X0111560Y0063017D01*
X0111560Y0064983D01*
X0112312Y0066798D01*
X0113702Y0068188D01*
X0115517Y0068940D01*
X0117483Y0068940D01*
X0119298Y0068188D01*
X0120688Y0066798D01*
X0121440Y0064983D01*
X0121440Y0063017D01*
X0120985Y0061919D01*
X0122204Y0060700D01*
X0122204Y0060700D01*
X0123200Y0059704D01*
X0123200Y0032204D01*
X0139419Y0015985D01*
X0137928Y0017476D02*
X0183120Y0017476D01*
X0182121Y0018475D02*
X0136929Y0018475D01*
X0135931Y0019473D02*
X0181123Y0019473D01*
X0180124Y0020472D02*
X0134932Y0020472D01*
X0133934Y0021470D02*
X0179126Y0021470D01*
X0178127Y0022469D02*
X0132935Y0022469D01*
X0131937Y0023467D02*
X0177129Y0023467D01*
X0176130Y0024466D02*
X0130938Y0024466D01*
X0129940Y0025464D02*
X0175132Y0025464D01*
X0174133Y0026463D02*
X0128941Y0026463D01*
X0127943Y0027461D02*
X0173135Y0027461D01*
X0172136Y0028460D02*
X0126944Y0028460D01*
X0125946Y0029458D02*
X0171138Y0029458D01*
X0170139Y0030457D02*
X0124947Y0030457D01*
X0123949Y0031455D02*
X0169140Y0031455D01*
X0168142Y0032454D02*
X0123200Y0032454D01*
X0123200Y0033452D02*
X0167143Y0033452D01*
X0166145Y0034451D02*
X0123200Y0034451D01*
X0123200Y0035449D02*
X0165146Y0035449D01*
X0164148Y0036448D02*
X0123200Y0036448D01*
X0123200Y0037446D02*
X0163149Y0037446D01*
X0162151Y0038445D02*
X0123200Y0038445D01*
X0123200Y0039443D02*
X0161152Y0039443D01*
X0160154Y0040442D02*
X0123200Y0040442D01*
X0123200Y0041440D02*
X0159155Y0041440D01*
X0158157Y0042439D02*
X0123200Y0042439D01*
X0123200Y0043437D02*
X0157158Y0043437D01*
X0156160Y0044436D02*
X0123200Y0044436D01*
X0123200Y0045434D02*
X0155161Y0045434D01*
X0154163Y0046433D02*
X0123200Y0046433D01*
X0123200Y0047432D02*
X0153164Y0047432D01*
X0152166Y0048430D02*
X0123200Y0048430D01*
X0123200Y0049429D02*
X0151167Y0049429D01*
X0150169Y0050427D02*
X0123200Y0050427D01*
X0123200Y0051426D02*
X0149170Y0051426D01*
X0148172Y0052424D02*
X0123200Y0052424D01*
X0123200Y0053423D02*
X0147173Y0053423D01*
X0146175Y0054421D02*
X0123200Y0054421D01*
X0123200Y0055420D02*
X0145176Y0055420D01*
X0144178Y0056418D02*
X0123200Y0056418D01*
X0123200Y0057417D02*
X0143179Y0057417D01*
X0142181Y0058415D02*
X0123200Y0058415D01*
X0123200Y0059414D02*
X0141182Y0059414D01*
X0140184Y0060412D02*
X0122492Y0060412D01*
X0121493Y0061411D02*
X0139185Y0061411D01*
X0138187Y0062409D02*
X0121188Y0062409D01*
X0121440Y0063408D02*
X0137188Y0063408D01*
X0136190Y0064406D02*
X0121440Y0064406D01*
X0121265Y0065405D02*
X0135191Y0065405D01*
X0134193Y0066403D02*
X0120852Y0066403D01*
X0120085Y0067402D02*
X0133194Y0067402D01*
X0132196Y0068400D02*
X0118786Y0068400D01*
X0114214Y0068400D02*
X0108786Y0068400D01*
X0110085Y0067402D02*
X0112915Y0067402D01*
X0112148Y0066403D02*
X0110852Y0066403D01*
X0111265Y0065405D02*
X0111735Y0065405D01*
X0111560Y0064406D02*
X0111440Y0064406D01*
X0111440Y0063408D02*
X0111560Y0063408D01*
X0111812Y0062409D02*
X0111188Y0062409D01*
X0111493Y0061411D02*
X0112225Y0061411D01*
X0112492Y0060412D02*
X0113101Y0060412D01*
X0113200Y0059414D02*
X0114663Y0059414D01*
X0111500Y0059000D02*
X0111500Y0031500D01*
X0131500Y0011500D01*
X0126560Y0011485D02*
X0126440Y0011485D01*
X0126427Y0010487D02*
X0126573Y0010487D01*
X0126986Y0009488D02*
X0126014Y0009488D01*
X0125476Y0008490D02*
X0127524Y0008490D01*
X0128522Y0007491D02*
X0124477Y0007491D01*
X0118522Y0007491D02*
X0114477Y0007491D01*
X0115476Y0008490D02*
X0117524Y0008490D01*
X0116986Y0009488D02*
X0116014Y0009488D01*
X0116427Y0010487D02*
X0116573Y0010487D01*
X0116560Y0011485D02*
X0116440Y0011485D01*
X0116440Y0012484D02*
X0116560Y0012484D01*
X0116974Y0013482D02*
X0116026Y0013482D01*
X0116115Y0014481D02*
X0115506Y0014481D01*
X0115117Y0015479D02*
X0114507Y0015479D01*
X0114118Y0016478D02*
X0108926Y0016478D01*
X0107928Y0017476D02*
X0113120Y0017476D01*
X0112121Y0018475D02*
X0106929Y0018475D01*
X0105931Y0019473D02*
X0111123Y0019473D01*
X0110124Y0020472D02*
X0104932Y0020472D01*
X0103934Y0021470D02*
X0109126Y0021470D01*
X0108127Y0022469D02*
X0102935Y0022469D01*
X0101937Y0023467D02*
X0107129Y0023467D01*
X0106130Y0024466D02*
X0100938Y0024466D01*
X0099940Y0025464D02*
X0105132Y0025464D01*
X0104133Y0026463D02*
X0098941Y0026463D01*
X0097943Y0027461D02*
X0103135Y0027461D01*
X0102136Y0028460D02*
X0096944Y0028460D01*
X0095946Y0029458D02*
X0101138Y0029458D01*
X0100139Y0030457D02*
X0094947Y0030457D01*
X0093949Y0031455D02*
X0099800Y0031455D01*
X0099800Y0032454D02*
X0093200Y0032454D01*
X0093200Y0033452D02*
X0099800Y0033452D01*
X0099800Y0034451D02*
X0093200Y0034451D01*
X0093200Y0035449D02*
X0099800Y0035449D01*
X0099800Y0036448D02*
X0093200Y0036448D01*
X0093200Y0037446D02*
X0099800Y0037446D01*
X0099800Y0038445D02*
X0093200Y0038445D01*
X0093200Y0039443D02*
X0099800Y0039443D01*
X0099800Y0040442D02*
X0093200Y0040442D01*
X0093200Y0041440D02*
X0099800Y0041440D01*
X0099800Y0042439D02*
X0093200Y0042439D01*
X0093200Y0043437D02*
X0099800Y0043437D01*
X0099800Y0044436D02*
X0093200Y0044436D01*
X0093200Y0045434D02*
X0099800Y0045434D01*
X0099800Y0046433D02*
X0093200Y0046433D01*
X0093200Y0047432D02*
X0099800Y0047432D01*
X0099800Y0048430D02*
X0093200Y0048430D01*
X0093200Y0049429D02*
X0094627Y0049429D01*
X0098373Y0049429D02*
X0099800Y0049429D01*
X0103200Y0049429D02*
X0104627Y0049429D01*
X0103200Y0048430D02*
X0109800Y0048430D01*
X0109800Y0047432D02*
X0103200Y0047432D01*
X0103200Y0046433D02*
X0109800Y0046433D01*
X0109800Y0045434D02*
X0103200Y0045434D01*
X0103200Y0044436D02*
X0109800Y0044436D01*
X0109800Y0043437D02*
X0103200Y0043437D01*
X0103200Y0042439D02*
X0109800Y0042439D01*
X0109800Y0041440D02*
X0103200Y0041440D01*
X0103200Y0040442D02*
X0109800Y0040442D01*
X0109800Y0039443D02*
X0103200Y0039443D01*
X0103200Y0038445D02*
X0109800Y0038445D01*
X0109800Y0037446D02*
X0103200Y0037446D01*
X0103200Y0036448D02*
X0109800Y0036448D01*
X0109800Y0035449D02*
X0103200Y0035449D01*
X0103200Y0034451D02*
X0109800Y0034451D01*
X0109800Y0033452D02*
X0103200Y0033452D01*
X0103200Y0032454D02*
X0109800Y0032454D01*
X0109800Y0031455D02*
X0103949Y0031455D01*
X0104947Y0030457D02*
X0110139Y0030457D01*
X0111138Y0029458D02*
X0105946Y0029458D01*
X0106944Y0028460D02*
X0112136Y0028460D01*
X0113135Y0027461D02*
X0107943Y0027461D01*
X0108941Y0026463D02*
X0114133Y0026463D01*
X0115132Y0025464D02*
X0109940Y0025464D01*
X0110938Y0024466D02*
X0116130Y0024466D01*
X0117129Y0023467D02*
X0111937Y0023467D01*
X0112935Y0022469D02*
X0118127Y0022469D01*
X0119126Y0021470D02*
X0113934Y0021470D01*
X0114932Y0020472D02*
X0120124Y0020472D01*
X0121123Y0019473D02*
X0115931Y0019473D01*
X0116929Y0018475D02*
X0122121Y0018475D01*
X0123120Y0017476D02*
X0117928Y0017476D01*
X0118926Y0016478D02*
X0124118Y0016478D01*
X0124507Y0015479D02*
X0125117Y0015479D01*
X0125506Y0014481D02*
X0126115Y0014481D01*
X0126026Y0013482D02*
X0126974Y0013482D01*
X0126560Y0012484D02*
X0126440Y0012484D01*
X0121500Y0011500D02*
X0101500Y0031500D01*
X0101500Y0059000D01*
X0096500Y0064000D01*
X0101188Y0062409D02*
X0101812Y0062409D01*
X0101560Y0063408D02*
X0101440Y0063408D01*
X0101440Y0064406D02*
X0101560Y0064406D01*
X0101735Y0065405D02*
X0101265Y0065405D01*
X0100852Y0066403D02*
X0102148Y0066403D01*
X0102915Y0067402D02*
X0100085Y0067402D01*
X0098786Y0068400D02*
X0104214Y0068400D01*
X0106500Y0064000D02*
X0111500Y0059000D01*
X0109681Y0058415D02*
X0108750Y0058415D01*
X0108682Y0059414D02*
X0108337Y0059414D01*
X0104663Y0059414D02*
X0103200Y0059414D01*
X0103200Y0058415D02*
X0104250Y0058415D01*
X0103101Y0060412D02*
X0102492Y0060412D01*
X0102225Y0061411D02*
X0101493Y0061411D01*
X0098682Y0059414D02*
X0098337Y0059414D01*
X0098750Y0058415D02*
X0099681Y0058415D01*
X0094663Y0059414D02*
X0093200Y0059414D01*
X0093200Y0058415D02*
X0094250Y0058415D01*
X0091500Y0059000D02*
X0091500Y0031500D01*
X0111500Y0011500D01*
X0106560Y0011485D02*
X0106440Y0011485D01*
X0106427Y0010487D02*
X0106573Y0010487D01*
X0106986Y0009488D02*
X0106014Y0009488D01*
X0105476Y0008490D02*
X0107524Y0008490D01*
X0108522Y0007491D02*
X0104477Y0007491D01*
X0098522Y0007491D02*
X0094477Y0007491D01*
X0095476Y0008490D02*
X0097524Y0008490D01*
X0096986Y0009488D02*
X0096014Y0009488D01*
X0096427Y0010487D02*
X0096573Y0010487D01*
X0096560Y0011485D02*
X0096440Y0011485D01*
X0096440Y0012484D02*
X0096560Y0012484D01*
X0096974Y0013482D02*
X0096026Y0013482D01*
X0096115Y0014481D02*
X0095506Y0014481D01*
X0095117Y0015479D02*
X0094507Y0015479D01*
X0094118Y0016478D02*
X0088926Y0016478D01*
X0087928Y0017476D02*
X0093120Y0017476D01*
X0092121Y0018475D02*
X0086929Y0018475D01*
X0085931Y0019473D02*
X0091123Y0019473D01*
X0090124Y0020472D02*
X0084932Y0020472D01*
X0083934Y0021470D02*
X0089126Y0021470D01*
X0088127Y0022469D02*
X0082935Y0022469D01*
X0081937Y0023467D02*
X0087129Y0023467D01*
X0086130Y0024466D02*
X0080938Y0024466D01*
X0079940Y0025464D02*
X0085132Y0025464D01*
X0084133Y0026463D02*
X0078941Y0026463D01*
X0077943Y0027461D02*
X0083135Y0027461D01*
X0082136Y0028460D02*
X0076944Y0028460D01*
X0075946Y0029458D02*
X0081138Y0029458D01*
X0080139Y0030457D02*
X0074947Y0030457D01*
X0073949Y0031455D02*
X0079800Y0031455D01*
X0079800Y0032454D02*
X0073200Y0032454D01*
X0073200Y0033452D02*
X0079800Y0033452D01*
X0079800Y0034451D02*
X0073200Y0034451D01*
X0073200Y0035449D02*
X0079800Y0035449D01*
X0079800Y0036448D02*
X0073200Y0036448D01*
X0073200Y0037446D02*
X0079800Y0037446D01*
X0079800Y0038445D02*
X0073200Y0038445D01*
X0073200Y0039443D02*
X0079800Y0039443D01*
X0079800Y0040442D02*
X0073200Y0040442D01*
X0073200Y0041440D02*
X0079800Y0041440D01*
X0079800Y0042439D02*
X0073200Y0042439D01*
X0073200Y0043437D02*
X0079800Y0043437D01*
X0079800Y0044436D02*
X0073200Y0044436D01*
X0073200Y0045434D02*
X0079800Y0045434D01*
X0079800Y0046433D02*
X0073200Y0046433D01*
X0073200Y0047432D02*
X0079800Y0047432D01*
X0079800Y0048430D02*
X0073200Y0048430D01*
X0073200Y0049429D02*
X0074627Y0049429D01*
X0078373Y0049429D02*
X0079800Y0049429D01*
X0083200Y0049429D02*
X0084627Y0049429D01*
X0083200Y0048430D02*
X0089800Y0048430D01*
X0089800Y0047432D02*
X0083200Y0047432D01*
X0083200Y0046433D02*
X0089800Y0046433D01*
X0089800Y0045434D02*
X0083200Y0045434D01*
X0083200Y0044436D02*
X0089800Y0044436D01*
X0089800Y0043437D02*
X0083200Y0043437D01*
X0083200Y0042439D02*
X0089800Y0042439D01*
X0089800Y0041440D02*
X0083200Y0041440D01*
X0083200Y0040442D02*
X0089800Y0040442D01*
X0089800Y0039443D02*
X0083200Y0039443D01*
X0083200Y0038445D02*
X0089800Y0038445D01*
X0089800Y0037446D02*
X0083200Y0037446D01*
X0083200Y0036448D02*
X0089800Y0036448D01*
X0089800Y0035449D02*
X0083200Y0035449D01*
X0083200Y0034451D02*
X0089800Y0034451D01*
X0089800Y0033452D02*
X0083200Y0033452D01*
X0083200Y0032454D02*
X0089800Y0032454D01*
X0089800Y0031455D02*
X0083949Y0031455D01*
X0084947Y0030457D02*
X0090139Y0030457D01*
X0091138Y0029458D02*
X0085946Y0029458D01*
X0086944Y0028460D02*
X0092136Y0028460D01*
X0093135Y0027461D02*
X0087943Y0027461D01*
X0088941Y0026463D02*
X0094133Y0026463D01*
X0095132Y0025464D02*
X0089940Y0025464D01*
X0090938Y0024466D02*
X0096130Y0024466D01*
X0097129Y0023467D02*
X0091937Y0023467D01*
X0092935Y0022469D02*
X0098127Y0022469D01*
X0099126Y0021470D02*
X0093934Y0021470D01*
X0094932Y0020472D02*
X0100124Y0020472D01*
X0101123Y0019473D02*
X0095931Y0019473D01*
X0096929Y0018475D02*
X0102121Y0018475D01*
X0103120Y0017476D02*
X0097928Y0017476D01*
X0098926Y0016478D02*
X0104118Y0016478D01*
X0104507Y0015479D02*
X0105117Y0015479D01*
X0105506Y0014481D02*
X0106115Y0014481D01*
X0106026Y0013482D02*
X0106974Y0013482D01*
X0106560Y0012484D02*
X0106440Y0012484D01*
X0101500Y0011500D02*
X0081500Y0031500D01*
X0081500Y0059000D01*
X0076500Y0064000D01*
X0081188Y0062409D02*
X0081812Y0062409D01*
X0081560Y0063408D02*
X0081440Y0063408D01*
X0081440Y0064406D02*
X0081560Y0064406D01*
X0081735Y0065405D02*
X0081265Y0065405D01*
X0080852Y0066403D02*
X0082148Y0066403D01*
X0082915Y0067402D02*
X0080085Y0067402D01*
X0078786Y0068400D02*
X0084214Y0068400D01*
X0088786Y0068400D02*
X0094214Y0068400D01*
X0092915Y0067402D02*
X0090085Y0067402D01*
X0090852Y0066403D02*
X0092148Y0066403D01*
X0091735Y0065405D02*
X0091265Y0065405D01*
X0091440Y0064406D02*
X0091560Y0064406D01*
X0091560Y0063408D02*
X0091440Y0063408D01*
X0091188Y0062409D02*
X0091812Y0062409D01*
X0091493Y0061411D02*
X0092225Y0061411D01*
X0092492Y0060412D02*
X0093101Y0060412D01*
X0091500Y0059000D02*
X0086500Y0064000D01*
X0082225Y0061411D02*
X0081493Y0061411D01*
X0082492Y0060412D02*
X0083101Y0060412D01*
X0083200Y0059414D02*
X0084663Y0059414D01*
X0084250Y0058415D02*
X0083200Y0058415D01*
X0079681Y0058415D02*
X0078750Y0058415D01*
X0078682Y0059414D02*
X0078337Y0059414D01*
X0074663Y0059414D02*
X0073200Y0059414D01*
X0073200Y0058415D02*
X0074250Y0058415D01*
X0073101Y0060412D02*
X0072492Y0060412D01*
X0072225Y0061411D02*
X0071493Y0061411D01*
X0071188Y0062409D02*
X0071812Y0062409D01*
X0071560Y0063408D02*
X0071440Y0063408D01*
X0071440Y0064406D02*
X0071560Y0064406D01*
X0071735Y0065405D02*
X0071265Y0065405D01*
X0070852Y0066403D02*
X0072148Y0066403D01*
X0072915Y0067402D02*
X0070085Y0067402D01*
X0068786Y0068400D02*
X0074214Y0068400D01*
X0066500Y0064000D02*
X0071500Y0059000D01*
X0071500Y0031500D01*
X0091500Y0011500D01*
X0086560Y0011485D02*
X0086440Y0011485D01*
X0086427Y0010487D02*
X0086573Y0010487D01*
X0086986Y0009488D02*
X0086014Y0009488D01*
X0085476Y0008490D02*
X0087524Y0008490D01*
X0088522Y0007491D02*
X0084477Y0007491D01*
X0078522Y0007491D02*
X0074477Y0007491D01*
X0075476Y0008490D02*
X0077524Y0008490D01*
X0076986Y0009488D02*
X0076014Y0009488D01*
X0076427Y0010487D02*
X0076573Y0010487D01*
X0076560Y0011485D02*
X0076440Y0011485D01*
X0076440Y0012484D02*
X0076560Y0012484D01*
X0076974Y0013482D02*
X0076026Y0013482D01*
X0076115Y0014481D02*
X0075506Y0014481D01*
X0075117Y0015479D02*
X0074507Y0015479D01*
X0074118Y0016478D02*
X0068926Y0016478D01*
X0067928Y0017476D02*
X0073120Y0017476D01*
X0072121Y0018475D02*
X0066929Y0018475D01*
X0065931Y0019473D02*
X0071123Y0019473D01*
X0070124Y0020472D02*
X0064932Y0020472D01*
X0063934Y0021470D02*
X0069126Y0021470D01*
X0068127Y0022469D02*
X0062935Y0022469D01*
X0061937Y0023467D02*
X0067129Y0023467D01*
X0066130Y0024466D02*
X0060938Y0024466D01*
X0059940Y0025464D02*
X0065132Y0025464D01*
X0064133Y0026463D02*
X0058941Y0026463D01*
X0057943Y0027461D02*
X0063135Y0027461D01*
X0062136Y0028460D02*
X0056944Y0028460D01*
X0055946Y0029458D02*
X0061138Y0029458D01*
X0060139Y0030457D02*
X0054947Y0030457D01*
X0053949Y0031455D02*
X0059800Y0031455D01*
X0059800Y0032454D02*
X0053200Y0032454D01*
X0053200Y0033452D02*
X0059800Y0033452D01*
X0059800Y0034451D02*
X0053200Y0034451D01*
X0053200Y0035449D02*
X0059800Y0035449D01*
X0059800Y0036448D02*
X0053200Y0036448D01*
X0053200Y0037446D02*
X0059800Y0037446D01*
X0059800Y0038445D02*
X0053200Y0038445D01*
X0053200Y0039443D02*
X0059800Y0039443D01*
X0059800Y0040442D02*
X0053200Y0040442D01*
X0053200Y0041440D02*
X0059800Y0041440D01*
X0059800Y0042439D02*
X0053200Y0042439D01*
X0053200Y0043437D02*
X0059800Y0043437D01*
X0059800Y0044436D02*
X0053200Y0044436D01*
X0053200Y0045434D02*
X0059800Y0045434D01*
X0059800Y0046433D02*
X0053200Y0046433D01*
X0053200Y0047432D02*
X0059800Y0047432D01*
X0059800Y0048430D02*
X0053200Y0048430D01*
X0053200Y0049429D02*
X0054627Y0049429D01*
X0058373Y0049429D02*
X0059800Y0049429D01*
X0063200Y0049429D02*
X0064627Y0049429D01*
X0063200Y0048430D02*
X0069800Y0048430D01*
X0069800Y0047432D02*
X0063200Y0047432D01*
X0063200Y0046433D02*
X0069800Y0046433D01*
X0069800Y0045434D02*
X0063200Y0045434D01*
X0063200Y0044436D02*
X0069800Y0044436D01*
X0069800Y0043437D02*
X0063200Y0043437D01*
X0063200Y0042439D02*
X0069800Y0042439D01*
X0069800Y0041440D02*
X0063200Y0041440D01*
X0063200Y0040442D02*
X0069800Y0040442D01*
X0069800Y0039443D02*
X0063200Y0039443D01*
X0063200Y0038445D02*
X0069800Y0038445D01*
X0069800Y0037446D02*
X0063200Y0037446D01*
X0063200Y0036448D02*
X0069800Y0036448D01*
X0069800Y0035449D02*
X0063200Y0035449D01*
X0063200Y0034451D02*
X0069800Y0034451D01*
X0069800Y0033452D02*
X0063200Y0033452D01*
X0063200Y0032454D02*
X0069800Y0032454D01*
X0069800Y0031455D02*
X0063949Y0031455D01*
X0064947Y0030457D02*
X0070139Y0030457D01*
X0071138Y0029458D02*
X0065946Y0029458D01*
X0066944Y0028460D02*
X0072136Y0028460D01*
X0073135Y0027461D02*
X0067943Y0027461D01*
X0068941Y0026463D02*
X0074133Y0026463D01*
X0075132Y0025464D02*
X0069940Y0025464D01*
X0070938Y0024466D02*
X0076130Y0024466D01*
X0077129Y0023467D02*
X0071937Y0023467D01*
X0072935Y0022469D02*
X0078127Y0022469D01*
X0079126Y0021470D02*
X0073934Y0021470D01*
X0074932Y0020472D02*
X0080124Y0020472D01*
X0081123Y0019473D02*
X0075931Y0019473D01*
X0076929Y0018475D02*
X0082121Y0018475D01*
X0083120Y0017476D02*
X0077928Y0017476D01*
X0078926Y0016478D02*
X0084118Y0016478D01*
X0084507Y0015479D02*
X0085117Y0015479D01*
X0085506Y0014481D02*
X0086115Y0014481D01*
X0086026Y0013482D02*
X0086974Y0013482D01*
X0086560Y0012484D02*
X0086440Y0012484D01*
X0081500Y0011500D02*
X0061500Y0031500D01*
X0061500Y0059000D01*
X0056500Y0064000D01*
X0061188Y0062409D02*
X0061812Y0062409D01*
X0061560Y0063408D02*
X0061440Y0063408D01*
X0061440Y0064406D02*
X0061560Y0064406D01*
X0061735Y0065405D02*
X0061265Y0065405D01*
X0060852Y0066403D02*
X0062148Y0066403D01*
X0062915Y0067402D02*
X0060085Y0067402D01*
X0058786Y0068400D02*
X0064214Y0068400D01*
X0054214Y0068400D02*
X0048786Y0068400D01*
X0050085Y0067402D02*
X0052915Y0067402D01*
X0052148Y0066403D02*
X0050852Y0066403D01*
X0051265Y0065405D02*
X0051735Y0065405D01*
X0051560Y0064406D02*
X0051440Y0064406D01*
X0051440Y0063408D02*
X0051560Y0063408D01*
X0051812Y0062409D02*
X0051188Y0062409D01*
X0051493Y0061411D02*
X0052225Y0061411D01*
X0052492Y0060412D02*
X0053101Y0060412D01*
X0053200Y0059414D02*
X0054663Y0059414D01*
X0054250Y0058415D02*
X0053200Y0058415D01*
X0051500Y0059000D02*
X0051500Y0031500D01*
X0071500Y0011500D01*
X0066560Y0011485D02*
X0066440Y0011485D01*
X0066440Y0010517D02*
X0065688Y0008702D01*
X0064298Y0007312D01*
X0062483Y0006560D01*
X0060517Y0006560D01*
X0058702Y0007312D01*
X0057312Y0008702D01*
X0056560Y0010517D01*
X0056560Y0012483D01*
X0057312Y0014298D01*
X0058702Y0015688D01*
X0060517Y0016440D01*
X0062483Y0016440D01*
X0064298Y0015688D01*
X0065688Y0014298D01*
X0066440Y0012483D01*
X0066440Y0010517D01*
X0066427Y0010487D02*
X0066573Y0010487D01*
X0066986Y0009488D02*
X0066014Y0009488D01*
X0065476Y0008490D02*
X0067524Y0008490D01*
X0068522Y0007491D02*
X0064477Y0007491D01*
X0058522Y0007491D02*
X0054477Y0007491D01*
X0054298Y0007312D02*
X0055688Y0008702D01*
X0056440Y0010517D01*
X0056440Y0012483D01*
X0055688Y0014298D01*
X0054298Y0015688D01*
X0052483Y0016440D01*
X0050517Y0016440D01*
X0048702Y0015688D01*
X0047312Y0014298D01*
X0046560Y0012483D01*
X0046560Y0010517D01*
X0047312Y0008702D01*
X0048702Y0007312D01*
X0050517Y0006560D01*
X0052483Y0006560D01*
X0054298Y0007312D01*
X0055476Y0008490D02*
X0057524Y0008490D01*
X0056986Y0009488D02*
X0056014Y0009488D01*
X0056427Y0010487D02*
X0056573Y0010487D01*
X0056560Y0011485D02*
X0056440Y0011485D01*
X0056440Y0012484D02*
X0056560Y0012484D01*
X0056974Y0013482D02*
X0056026Y0013482D01*
X0055506Y0014481D02*
X0057494Y0014481D01*
X0058493Y0015479D02*
X0054507Y0015479D01*
X0048493Y0015479D02*
X0044507Y0015479D01*
X0044298Y0015688D02*
X0042483Y0016440D01*
X0040517Y0016440D01*
X0038702Y0015688D01*
X0037312Y0014298D01*
X0036560Y0012483D01*
X0036560Y0010517D01*
X0037312Y0008702D01*
X0038702Y0007312D01*
X0040517Y0006560D01*
X0042483Y0006560D01*
X0044298Y0007312D01*
X0045688Y0008702D01*
X0046440Y0010517D01*
X0046440Y0012483D01*
X0045688Y0014298D01*
X0044298Y0015688D01*
X0045506Y0014481D02*
X0047494Y0014481D01*
X0046974Y0013482D02*
X0046026Y0013482D01*
X0046440Y0012484D02*
X0046560Y0012484D01*
X0046560Y0011485D02*
X0046440Y0011485D01*
X0046427Y0010487D02*
X0046573Y0010487D01*
X0046986Y0009488D02*
X0046014Y0009488D01*
X0045476Y0008490D02*
X0047524Y0008490D01*
X0048522Y0007491D02*
X0044477Y0007491D01*
X0038522Y0007491D02*
X0034477Y0007491D01*
X0034298Y0007312D02*
X0035688Y0008702D01*
X0036440Y0010517D01*
X0036440Y0012483D01*
X0035688Y0014298D01*
X0034298Y0015688D01*
X0033200Y0016143D01*
X0033200Y0035796D01*
X0041208Y0043804D01*
X0042036Y0043804D01*
X0043027Y0044214D01*
X0043786Y0044973D01*
X0044196Y0045964D01*
X0044196Y0047036D01*
X0043786Y0048027D01*
X0043027Y0048786D01*
X0042036Y0049196D01*
X0040964Y0049196D01*
X0039973Y0048786D01*
X0039214Y0048027D01*
X0038804Y0047036D01*
X0038804Y0046208D01*
X0029800Y0037204D01*
X0029800Y0016143D01*
X0028702Y0015688D01*
X0027312Y0014298D01*
X0026560Y0012483D01*
X0026560Y0010517D01*
X0027312Y0008702D01*
X0028702Y0007312D01*
X0030517Y0006560D01*
X0032483Y0006560D01*
X0034298Y0007312D01*
X0035476Y0008490D02*
X0037524Y0008490D01*
X0036986Y0009488D02*
X0036014Y0009488D01*
X0036427Y0010487D02*
X0036573Y0010487D01*
X0036560Y0011485D02*
X0036440Y0011485D01*
X0036440Y0012484D02*
X0036560Y0012484D01*
X0036974Y0013482D02*
X0036026Y0013482D01*
X0035506Y0014481D02*
X0037494Y0014481D01*
X0038493Y0015479D02*
X0034507Y0015479D01*
X0033200Y0016478D02*
X0064118Y0016478D01*
X0064507Y0015479D02*
X0065117Y0015479D01*
X0065506Y0014481D02*
X0066115Y0014481D01*
X0066026Y0013482D02*
X0066974Y0013482D01*
X0066560Y0012484D02*
X0066440Y0012484D01*
X0063120Y0017476D02*
X0033200Y0017476D01*
X0033200Y0018475D02*
X0062121Y0018475D01*
X0061123Y0019473D02*
X0033200Y0019473D01*
X0033200Y0020472D02*
X0060124Y0020472D01*
X0059126Y0021470D02*
X0033200Y0021470D01*
X0033200Y0022469D02*
X0058127Y0022469D01*
X0057129Y0023467D02*
X0033200Y0023467D01*
X0033200Y0024466D02*
X0056130Y0024466D01*
X0055132Y0025464D02*
X0033200Y0025464D01*
X0033200Y0026463D02*
X0054133Y0026463D01*
X0053135Y0027461D02*
X0033200Y0027461D01*
X0033200Y0028460D02*
X0052136Y0028460D01*
X0051138Y0029458D02*
X0033200Y0029458D01*
X0033200Y0030457D02*
X0050139Y0030457D01*
X0049800Y0031455D02*
X0033200Y0031455D01*
X0033200Y0032454D02*
X0049800Y0032454D01*
X0049800Y0033452D02*
X0033200Y0033452D01*
X0033200Y0034451D02*
X0049800Y0034451D01*
X0049800Y0035449D02*
X0033200Y0035449D01*
X0033852Y0036448D02*
X0049800Y0036448D01*
X0049800Y0037446D02*
X0034851Y0037446D01*
X0035849Y0038445D02*
X0049800Y0038445D01*
X0049800Y0039443D02*
X0036848Y0039443D01*
X0037846Y0040442D02*
X0049800Y0040442D01*
X0049800Y0041440D02*
X0038845Y0041440D01*
X0039843Y0042439D02*
X0049800Y0042439D01*
X0049800Y0043437D02*
X0040842Y0043437D01*
X0043249Y0044436D02*
X0049800Y0044436D01*
X0049800Y0045434D02*
X0043977Y0045434D01*
X0044196Y0046433D02*
X0049800Y0046433D01*
X0049800Y0047432D02*
X0044032Y0047432D01*
X0043383Y0048430D02*
X0049800Y0048430D01*
X0049800Y0049429D02*
X0048373Y0049429D01*
X0044627Y0049429D02*
X0038373Y0049429D01*
X0037483Y0049060D02*
X0039298Y0049812D01*
X0040688Y0051202D01*
X0041440Y0053017D01*
X0041440Y0054983D01*
X0040688Y0056798D01*
X0039298Y0058188D01*
X0037483Y0058940D01*
X0035517Y0058940D01*
X0033702Y0058188D01*
X0032312Y0056798D01*
X0031560Y0054983D01*
X0031560Y0053017D01*
X0032312Y0051202D01*
X0033702Y0049812D01*
X0035517Y0049060D01*
X0037483Y0049060D01*
X0039617Y0048430D02*
X0013200Y0048430D01*
X0013200Y0047432D02*
X0038968Y0047432D01*
X0038804Y0046433D02*
X0013200Y0046433D01*
X0013200Y0045434D02*
X0038030Y0045434D01*
X0037032Y0044436D02*
X0013200Y0044436D01*
X0013200Y0043437D02*
X0036033Y0043437D01*
X0035035Y0042439D02*
X0013200Y0042439D01*
X0013200Y0041440D02*
X0034036Y0041440D01*
X0033038Y0040442D02*
X0013200Y0040442D01*
X0013200Y0039443D02*
X0032039Y0039443D01*
X0031041Y0038445D02*
X0013200Y0038445D01*
X0013200Y0037446D02*
X0030042Y0037446D01*
X0029800Y0036448D02*
X0013200Y0036448D01*
X0013200Y0035449D02*
X0029800Y0035449D01*
X0029800Y0034451D02*
X0013200Y0034451D01*
X0013200Y0033452D02*
X0029800Y0033452D01*
X0029800Y0032454D02*
X0013200Y0032454D01*
X0013200Y0031455D02*
X0029800Y0031455D01*
X0029800Y0030457D02*
X0013200Y0030457D01*
X0013200Y0029458D02*
X0029800Y0029458D01*
X0029800Y0028460D02*
X0013200Y0028460D01*
X0013200Y0027461D02*
X0029800Y0027461D01*
X0029800Y0026463D02*
X0013200Y0026463D01*
X0013200Y0025464D02*
X0029800Y0025464D01*
X0029800Y0024466D02*
X0013200Y0024466D01*
X0013200Y0023467D02*
X0029800Y0023467D01*
X0029800Y0022469D02*
X0013200Y0022469D01*
X0013200Y0021470D02*
X0029800Y0021470D01*
X0029800Y0020472D02*
X0013200Y0020472D01*
X0013200Y0019473D02*
X0029800Y0019473D01*
X0029800Y0018475D02*
X0013200Y0018475D01*
X0013200Y0017476D02*
X0029800Y0017476D01*
X0029800Y0016478D02*
X0013200Y0016478D01*
X0014507Y0015479D02*
X0018493Y0015479D01*
X0018702Y0015688D02*
X0017312Y0014298D01*
X0016560Y0012483D01*
X0016560Y0010517D01*
X0017312Y0008702D01*
X0018702Y0007312D01*
X0020517Y0006560D01*
X0022483Y0006560D01*
X0024298Y0007312D01*
X0025688Y0008702D01*
X0026440Y0010517D01*
X0026440Y0012483D01*
X0025688Y0014298D01*
X0024298Y0015688D01*
X0022483Y0016440D01*
X0020517Y0016440D01*
X0018702Y0015688D01*
X0017494Y0014481D02*
X0015506Y0014481D01*
X0016026Y0013482D02*
X0016974Y0013482D01*
X0016560Y0012484D02*
X0016440Y0012484D01*
X0016440Y0011485D02*
X0016560Y0011485D01*
X0016573Y0010487D02*
X0016427Y0010487D01*
X0016014Y0009488D02*
X0016986Y0009488D01*
X0017524Y0008490D02*
X0015476Y0008490D01*
X0014477Y0007491D02*
X0018522Y0007491D01*
X0024477Y0007491D02*
X0028522Y0007491D01*
X0027524Y0008490D02*
X0025476Y0008490D01*
X0026014Y0009488D02*
X0026986Y0009488D01*
X0026573Y0010487D02*
X0026427Y0010487D01*
X0026440Y0011485D02*
X0026560Y0011485D01*
X0026560Y0012484D02*
X0026440Y0012484D01*
X0026026Y0013482D02*
X0026974Y0013482D01*
X0027494Y0014481D02*
X0025506Y0014481D01*
X0024507Y0015479D02*
X0028493Y0015479D01*
X0031500Y0011500D02*
X0031500Y0036500D01*
X0041500Y0046500D01*
X0034627Y0049429D02*
X0028373Y0049429D01*
X0029913Y0050427D02*
X0033087Y0050427D01*
X0032219Y0051426D02*
X0030781Y0051426D01*
X0031194Y0052424D02*
X0031806Y0052424D01*
X0031560Y0053423D02*
X0031440Y0053423D01*
X0031440Y0054421D02*
X0031560Y0054421D01*
X0031741Y0055420D02*
X0031259Y0055420D01*
X0031322Y0056418D02*
X0032154Y0056418D01*
X0032321Y0057417D02*
X0032930Y0057417D01*
X0033200Y0058415D02*
X0034250Y0058415D01*
X0034663Y0059414D02*
X0033200Y0059414D01*
X0031500Y0059000D02*
X0026500Y0054000D01*
X0021806Y0052424D02*
X0013200Y0052424D01*
X0013200Y0051426D02*
X0022219Y0051426D01*
X0023087Y0050427D02*
X0013200Y0050427D01*
X0013200Y0049429D02*
X0024627Y0049429D01*
X0021560Y0053423D02*
X0013200Y0053423D01*
X0013200Y0054421D02*
X0021560Y0054421D01*
X0021741Y0055420D02*
X0013200Y0055420D01*
X0013200Y0056418D02*
X0022154Y0056418D01*
X0022930Y0057417D02*
X0013200Y0057417D01*
X0013200Y0058415D02*
X0024250Y0058415D01*
X0023959Y0059414D02*
X0013200Y0059414D01*
X0013200Y0060412D02*
X0022677Y0060412D01*
X0021938Y0061411D02*
X0013815Y0061411D01*
X0014813Y0062409D02*
X0021507Y0062409D01*
X0021288Y0063408D02*
X0015812Y0063408D01*
X0016810Y0064406D02*
X0026016Y0064406D01*
X0026016Y0064484D02*
X0021271Y0064484D01*
X0021389Y0065227D01*
X0021644Y0066012D01*
X0022018Y0066746D01*
X0022503Y0067414D01*
X0023086Y0067997D01*
X0023754Y0068482D01*
X0024488Y0068856D01*
X0025273Y0069111D01*
X0026016Y0069229D01*
X0026016Y0064484D01*
X0026016Y0065405D02*
X0026984Y0065405D01*
X0026984Y0066403D02*
X0026016Y0066403D01*
X0026016Y0067402D02*
X0026984Y0067402D01*
X0026984Y0068400D02*
X0026016Y0068400D01*
X0023641Y0068400D02*
X0020804Y0068400D01*
X0019806Y0067402D02*
X0022494Y0067402D01*
X0021843Y0066403D02*
X0018807Y0066403D01*
X0017809Y0065405D02*
X0021447Y0065405D01*
X0021803Y0069399D02*
X0029800Y0069399D01*
X0029800Y0068400D02*
X0029359Y0068400D01*
X0031500Y0069000D02*
X0036500Y0074000D01*
X0129000Y0074000D01*
X0191500Y0011500D01*
X0186986Y0009488D02*
X0186014Y0009488D01*
X0186427Y0010487D02*
X0186573Y0010487D01*
X0186560Y0011485D02*
X0186440Y0011485D01*
X0186440Y0012484D02*
X0186560Y0012484D01*
X0178493Y0015479D02*
X0174507Y0015479D01*
X0174298Y0015688D02*
X0172483Y0016440D01*
X0170517Y0016440D01*
X0168702Y0015688D01*
X0167312Y0014298D01*
X0166560Y0012483D01*
X0166560Y0010517D01*
X0167312Y0008702D01*
X0168702Y0007312D01*
X0170517Y0006560D01*
X0172483Y0006560D01*
X0174298Y0007312D01*
X0175688Y0008702D01*
X0176440Y0010517D01*
X0176440Y0012483D01*
X0175688Y0014298D01*
X0174298Y0015688D01*
X0175506Y0014481D02*
X0177494Y0014481D01*
X0176974Y0013482D02*
X0176026Y0013482D01*
X0176440Y0012484D02*
X0176560Y0012484D01*
X0176560Y0011485D02*
X0176440Y0011485D01*
X0176427Y0010487D02*
X0176573Y0010487D01*
X0176986Y0009488D02*
X0176014Y0009488D01*
X0175476Y0008490D02*
X0177524Y0008490D01*
X0178522Y0007491D02*
X0174477Y0007491D01*
X0168522Y0007491D02*
X0164477Y0007491D01*
X0164298Y0007312D02*
X0165688Y0008702D01*
X0166440Y0010517D01*
X0166440Y0012483D01*
X0165688Y0014298D01*
X0164298Y0015688D01*
X0162483Y0016440D01*
X0160517Y0016440D01*
X0158702Y0015688D01*
X0157312Y0014298D01*
X0156560Y0012483D01*
X0156560Y0010517D01*
X0157312Y0008702D01*
X0158702Y0007312D01*
X0160517Y0006560D01*
X0162483Y0006560D01*
X0164298Y0007312D01*
X0165476Y0008490D02*
X0167524Y0008490D01*
X0166986Y0009488D02*
X0166014Y0009488D01*
X0166427Y0010487D02*
X0166573Y0010487D01*
X0166560Y0011485D02*
X0166440Y0011485D01*
X0166440Y0012484D02*
X0166560Y0012484D01*
X0166974Y0013482D02*
X0166026Y0013482D01*
X0165506Y0014481D02*
X0167494Y0014481D01*
X0168493Y0015479D02*
X0164507Y0015479D01*
X0158493Y0015479D02*
X0154507Y0015479D01*
X0154298Y0015688D02*
X0152483Y0016440D01*
X0150517Y0016440D01*
X0148702Y0015688D01*
X0147312Y0014298D01*
X0146560Y0012483D01*
X0146560Y0010517D01*
X0147312Y0008702D01*
X0148702Y0007312D01*
X0150517Y0006560D01*
X0152483Y0006560D01*
X0154298Y0007312D01*
X0155688Y0008702D01*
X0156440Y0010517D01*
X0156440Y0012483D01*
X0155688Y0014298D01*
X0154298Y0015688D01*
X0155506Y0014481D02*
X0157494Y0014481D01*
X0156974Y0013482D02*
X0156026Y0013482D01*
X0156440Y0012484D02*
X0156560Y0012484D01*
X0156560Y0011485D02*
X0156440Y0011485D01*
X0156427Y0010487D02*
X0156573Y0010487D01*
X0156986Y0009488D02*
X0156014Y0009488D01*
X0155476Y0008490D02*
X0157524Y0008490D01*
X0158522Y0007491D02*
X0154477Y0007491D01*
X0148522Y0007491D02*
X0144477Y0007491D01*
X0145476Y0008490D02*
X0147524Y0008490D01*
X0146986Y0009488D02*
X0146014Y0009488D01*
X0146427Y0010487D02*
X0146573Y0010487D01*
X0146560Y0011485D02*
X0146440Y0011485D01*
X0146440Y0012484D02*
X0146560Y0012484D01*
X0146974Y0013482D02*
X0146026Y0013482D01*
X0145506Y0014481D02*
X0147494Y0014481D01*
X0148493Y0015479D02*
X0144507Y0015479D01*
X0136974Y0013482D02*
X0136026Y0013482D01*
X0136115Y0014481D02*
X0135506Y0014481D01*
X0135117Y0015479D02*
X0134507Y0015479D01*
X0134118Y0016478D02*
X0128926Y0016478D01*
X0127928Y0017476D02*
X0133120Y0017476D01*
X0132121Y0018475D02*
X0126929Y0018475D01*
X0125931Y0019473D02*
X0131123Y0019473D01*
X0130124Y0020472D02*
X0124932Y0020472D01*
X0123934Y0021470D02*
X0129126Y0021470D01*
X0128127Y0022469D02*
X0122935Y0022469D01*
X0121937Y0023467D02*
X0127129Y0023467D01*
X0126130Y0024466D02*
X0120938Y0024466D01*
X0119940Y0025464D02*
X0125132Y0025464D01*
X0124133Y0026463D02*
X0118941Y0026463D01*
X0117943Y0027461D02*
X0123135Y0027461D01*
X0122136Y0028460D02*
X0116944Y0028460D01*
X0115946Y0029458D02*
X0121138Y0029458D01*
X0120139Y0030457D02*
X0114947Y0030457D01*
X0113949Y0031455D02*
X0119800Y0031455D01*
X0119800Y0032454D02*
X0113200Y0032454D01*
X0113200Y0033452D02*
X0119800Y0033452D01*
X0119800Y0034451D02*
X0113200Y0034451D01*
X0113200Y0035449D02*
X0119800Y0035449D01*
X0119800Y0036448D02*
X0113200Y0036448D01*
X0113200Y0037446D02*
X0119800Y0037446D01*
X0119800Y0038445D02*
X0113200Y0038445D01*
X0113200Y0039443D02*
X0119800Y0039443D01*
X0119800Y0040442D02*
X0113200Y0040442D01*
X0113200Y0041440D02*
X0119800Y0041440D01*
X0119800Y0042439D02*
X0113200Y0042439D01*
X0113200Y0043437D02*
X0119800Y0043437D01*
X0119800Y0044436D02*
X0113200Y0044436D01*
X0113200Y0045434D02*
X0119800Y0045434D01*
X0119800Y0046433D02*
X0113200Y0046433D01*
X0113200Y0047432D02*
X0119800Y0047432D01*
X0119800Y0048430D02*
X0113200Y0048430D01*
X0109800Y0049429D02*
X0108373Y0049429D01*
X0089800Y0049429D02*
X0088373Y0049429D01*
X0069800Y0049429D02*
X0068373Y0049429D01*
X0068750Y0058415D02*
X0069681Y0058415D01*
X0068682Y0059414D02*
X0068337Y0059414D01*
X0064663Y0059414D02*
X0063200Y0059414D01*
X0063200Y0058415D02*
X0064250Y0058415D01*
X0063101Y0060412D02*
X0062492Y0060412D01*
X0062225Y0061411D02*
X0061493Y0061411D01*
X0058682Y0059414D02*
X0058337Y0059414D01*
X0058750Y0058415D02*
X0059681Y0058415D01*
X0051500Y0059000D02*
X0046500Y0064000D01*
X0041812Y0062409D02*
X0041188Y0062409D01*
X0041440Y0063408D02*
X0041560Y0063408D01*
X0041560Y0064406D02*
X0041440Y0064406D01*
X0041265Y0065405D02*
X0041735Y0065405D01*
X0042148Y0066403D02*
X0040852Y0066403D01*
X0040085Y0067402D02*
X0042915Y0067402D01*
X0044214Y0068400D02*
X0038786Y0068400D01*
X0035301Y0070397D02*
X0130199Y0070397D01*
X0131197Y0069399D02*
X0034303Y0069399D01*
X0034214Y0068400D02*
X0033304Y0068400D01*
X0031500Y0069000D02*
X0031500Y0059000D01*
X0029800Y0059704D02*
X0029800Y0059920D01*
X0029246Y0059518D01*
X0028512Y0059144D01*
X0027727Y0058889D01*
X0027640Y0058875D01*
X0028581Y0058485D01*
X0029800Y0059704D01*
X0029510Y0059414D02*
X0029041Y0059414D01*
X0038337Y0059414D02*
X0044663Y0059414D01*
X0044250Y0058415D02*
X0038750Y0058415D01*
X0040070Y0057417D02*
X0042930Y0057417D01*
X0042154Y0056418D02*
X0040846Y0056418D01*
X0041259Y0055420D02*
X0041741Y0055420D01*
X0041560Y0054421D02*
X0041440Y0054421D01*
X0041440Y0053423D02*
X0041560Y0053423D01*
X0041806Y0052424D02*
X0041194Y0052424D01*
X0040781Y0051426D02*
X0042219Y0051426D01*
X0043087Y0050427D02*
X0039913Y0050427D01*
X0048750Y0058415D02*
X0049681Y0058415D01*
X0048682Y0059414D02*
X0048337Y0059414D01*
X0043101Y0060412D02*
X0039899Y0060412D01*
X0040775Y0061411D02*
X0042225Y0061411D01*
X0030493Y0070397D02*
X0022801Y0070397D01*
X0023800Y0071396D02*
X0031492Y0071396D01*
X0032490Y0072394D02*
X0024798Y0072394D01*
X0025797Y0073393D02*
X0033489Y0073393D01*
X0034487Y0074391D02*
X0026795Y0074391D01*
X0026500Y0076500D02*
X0131500Y0076500D01*
X0141500Y0066500D01*
X0143965Y0065405D02*
X0144035Y0065405D01*
X0144781Y0064406D02*
X0143219Y0064406D01*
X0141996Y0063408D02*
X0194800Y0063408D01*
X0194800Y0064406D02*
X0148219Y0064406D01*
X0148965Y0065405D02*
X0194800Y0065405D01*
X0194800Y0066403D02*
X0149196Y0066403D01*
X0149045Y0067402D02*
X0165439Y0067402D01*
X0165666Y0067308D02*
X0167334Y0067308D01*
X0168875Y0067946D01*
X0170054Y0069125D01*
X0170692Y0070666D01*
X0170692Y0072334D01*
X0170054Y0073875D01*
X0168875Y0075054D01*
X0167334Y0075692D01*
X0165666Y0075692D01*
X0164125Y0075054D01*
X0162946Y0073875D01*
X0162308Y0072334D01*
X0162308Y0070666D01*
X0162946Y0069125D01*
X0164125Y0067946D01*
X0165666Y0067308D01*
X0167560Y0067402D02*
X0194800Y0067402D01*
X0194800Y0068400D02*
X0169329Y0068400D01*
X0170167Y0069399D02*
X0194800Y0069399D01*
X0194800Y0070397D02*
X0170581Y0070397D01*
X0170692Y0071396D02*
X0194800Y0071396D01*
X0194800Y0072394D02*
X0170667Y0072394D01*
X0170253Y0073393D02*
X0194800Y0073393D01*
X0194800Y0074391D02*
X0169537Y0074391D01*
X0168064Y0075390D02*
X0194800Y0075390D01*
X0194800Y0076388D02*
X0139016Y0076388D01*
X0140014Y0075390D02*
X0164936Y0075390D01*
X0163463Y0074391D02*
X0141013Y0074391D01*
X0142011Y0073393D02*
X0162747Y0073393D01*
X0162333Y0072394D02*
X0143010Y0072394D01*
X0144008Y0071396D02*
X0162308Y0071396D01*
X0162419Y0070397D02*
X0145007Y0070397D01*
X0146005Y0069399D02*
X0162833Y0069399D01*
X0163671Y0068400D02*
X0148413Y0068400D01*
X0146500Y0066500D02*
X0131500Y0081500D01*
X0066500Y0081500D01*
X0068435Y0083378D02*
X0162415Y0083378D01*
X0162091Y0082379D02*
X0133025Y0082379D01*
X0134023Y0081381D02*
X0166213Y0081381D01*
X0166213Y0081213D02*
X0162008Y0081213D01*
X0162008Y0081146D01*
X0162118Y0080448D01*
X0162337Y0079776D01*
X0162658Y0079146D01*
X0163074Y0078574D01*
X0163574Y0078074D01*
X0164146Y0077658D01*
X0164776Y0077337D01*
X0165448Y0077118D01*
X0166146Y0077008D01*
X0166213Y0077008D01*
X0166213Y0081213D01*
X0166787Y0081381D02*
X0194800Y0081381D01*
X0194800Y0082379D02*
X0170909Y0082379D01*
X0170585Y0083378D02*
X0194800Y0083378D01*
X0194800Y0084376D02*
X0169963Y0084376D01*
X0168790Y0085375D02*
X0194800Y0085375D01*
X0198200Y0085375D02*
X0214900Y0085375D01*
X0215666Y0085692D02*
X0214125Y0085054D01*
X0212946Y0083875D01*
X0212308Y0082334D01*
X0212308Y0080666D01*
X0212946Y0079125D01*
X0214125Y0077946D01*
X0215666Y0077308D01*
X0217334Y0077308D01*
X0218875Y0077946D01*
X0220054Y0079125D01*
X0220692Y0080666D01*
X0220692Y0082334D01*
X0220054Y0083875D01*
X0218875Y0085054D01*
X0217334Y0085692D01*
X0215666Y0085692D01*
X0218100Y0085375D02*
X0235220Y0085375D01*
X0235220Y0086373D02*
X0198200Y0086373D01*
X0198200Y0087372D02*
X0235220Y0087372D01*
X0235220Y0088370D02*
X0199299Y0088370D01*
X0200155Y0089369D02*
X0235220Y0089369D01*
X0235220Y0090368D02*
X0200568Y0090368D01*
X0200692Y0091366D02*
X0235220Y0091366D01*
X0235220Y0092365D02*
X0200679Y0092365D01*
X0200266Y0093363D02*
X0235220Y0093363D01*
X0235220Y0094362D02*
X0199567Y0094362D01*
X0198136Y0095360D02*
X0235220Y0095360D01*
X0235220Y0084376D02*
X0219552Y0084376D01*
X0220260Y0083378D02*
X0235220Y0083378D01*
X0235220Y0082379D02*
X0220673Y0082379D01*
X0220692Y0081381D02*
X0235220Y0081381D01*
X0235220Y0080382D02*
X0220575Y0080382D01*
X0220161Y0079384D02*
X0235220Y0079384D01*
X0235220Y0078385D02*
X0219314Y0078385D01*
X0217525Y0077387D02*
X0235220Y0077387D01*
X0235220Y0076388D02*
X0198200Y0076388D01*
X0198200Y0075390D02*
X0204936Y0075390D01*
X0205666Y0075692D02*
X0204125Y0075054D01*
X0202946Y0073875D01*
X0202308Y0072334D01*
X0202308Y0070666D01*
X0202946Y0069125D01*
X0204125Y0067946D01*
X0205666Y0067308D01*
X0207334Y0067308D01*
X0208875Y0067946D01*
X0210054Y0069125D01*
X0210692Y0070666D01*
X0210692Y0072334D01*
X0210054Y0073875D01*
X0208875Y0075054D01*
X0207334Y0075692D01*
X0205666Y0075692D01*
X0208064Y0075390D02*
X0235220Y0075390D01*
X0235220Y0074391D02*
X0209537Y0074391D01*
X0210253Y0073393D02*
X0235220Y0073393D01*
X0235220Y0072394D02*
X0210667Y0072394D01*
X0210692Y0071396D02*
X0235220Y0071396D01*
X0235220Y0070397D02*
X0210581Y0070397D01*
X0210167Y0069399D02*
X0235220Y0069399D01*
X0235220Y0068400D02*
X0209329Y0068400D01*
X0207560Y0067402D02*
X0235220Y0067402D01*
X0235220Y0066403D02*
X0198200Y0066403D01*
X0198200Y0065405D02*
X0235220Y0065405D01*
X0235220Y0064406D02*
X0198200Y0064406D01*
X0198200Y0063408D02*
X0235220Y0063408D01*
X0235220Y0062409D02*
X0198200Y0062409D01*
X0198200Y0061411D02*
X0235220Y0061411D01*
X0235220Y0060412D02*
X0198200Y0060412D01*
X0198200Y0059414D02*
X0235220Y0059414D01*
X0235220Y0058415D02*
X0198200Y0058415D01*
X0198200Y0057417D02*
X0235220Y0057417D01*
X0235220Y0056418D02*
X0198200Y0056418D01*
X0198200Y0055420D02*
X0235220Y0055420D01*
X0235220Y0054421D02*
X0198200Y0054421D01*
X0198200Y0053423D02*
X0235220Y0053423D01*
X0235220Y0052424D02*
X0198200Y0052424D01*
X0198200Y0051426D02*
X0235220Y0051426D01*
X0235220Y0050427D02*
X0198200Y0050427D01*
X0198200Y0049429D02*
X0235220Y0049429D01*
X0235220Y0048430D02*
X0198200Y0048430D01*
X0198200Y0047432D02*
X0235220Y0047432D01*
X0235220Y0046433D02*
X0198200Y0046433D01*
X0198200Y0045434D02*
X0235220Y0045434D01*
X0235220Y0044436D02*
X0198200Y0044436D01*
X0198200Y0043437D02*
X0235220Y0043437D01*
X0235220Y0042439D02*
X0198200Y0042439D01*
X0198200Y0041440D02*
X0235220Y0041440D01*
X0235220Y0040442D02*
X0198200Y0040442D01*
X0198200Y0039443D02*
X0235220Y0039443D01*
X0235220Y0038445D02*
X0198200Y0038445D01*
X0198200Y0037446D02*
X0235220Y0037446D01*
X0235220Y0036448D02*
X0198200Y0036448D01*
X0198200Y0035449D02*
X0235220Y0035449D01*
X0235220Y0034451D02*
X0198200Y0034451D01*
X0198200Y0033452D02*
X0235220Y0033452D01*
X0235220Y0032454D02*
X0198200Y0032454D01*
X0198200Y0031455D02*
X0235220Y0031455D01*
X0235220Y0030457D02*
X0198200Y0030457D01*
X0198200Y0029458D02*
X0235220Y0029458D01*
X0235220Y0028460D02*
X0198353Y0028460D01*
X0199020Y0027461D02*
X0235220Y0027461D01*
X0235220Y0026463D02*
X0199196Y0026463D01*
X0198989Y0025464D02*
X0235220Y0025464D01*
X0235220Y0024466D02*
X0198279Y0024466D01*
X0194721Y0024466D02*
X0180938Y0024466D01*
X0179940Y0025464D02*
X0194011Y0025464D01*
X0193804Y0026463D02*
X0178941Y0026463D01*
X0177943Y0027461D02*
X0193980Y0027461D01*
X0194647Y0028460D02*
X0176944Y0028460D01*
X0175946Y0029458D02*
X0194800Y0029458D01*
X0194800Y0030457D02*
X0174947Y0030457D01*
X0173949Y0031455D02*
X0194800Y0031455D01*
X0194800Y0032454D02*
X0172950Y0032454D01*
X0171952Y0033452D02*
X0194800Y0033452D01*
X0194800Y0034451D02*
X0170953Y0034451D01*
X0169955Y0035449D02*
X0194800Y0035449D01*
X0194800Y0036448D02*
X0168956Y0036448D01*
X0167958Y0037446D02*
X0194800Y0037446D01*
X0194800Y0038445D02*
X0166959Y0038445D01*
X0165961Y0039443D02*
X0194800Y0039443D01*
X0194800Y0040442D02*
X0164962Y0040442D01*
X0163964Y0041440D02*
X0194800Y0041440D01*
X0194800Y0042439D02*
X0162965Y0042439D01*
X0161967Y0043437D02*
X0194800Y0043437D01*
X0194800Y0044436D02*
X0160968Y0044436D01*
X0159970Y0045434D02*
X0194800Y0045434D01*
X0194800Y0046433D02*
X0158971Y0046433D01*
X0157973Y0047432D02*
X0194800Y0047432D01*
X0194800Y0048430D02*
X0156974Y0048430D01*
X0155976Y0049429D02*
X0194800Y0049429D01*
X0194800Y0050427D02*
X0154977Y0050427D01*
X0153979Y0051426D02*
X0194800Y0051426D01*
X0194800Y0052424D02*
X0152980Y0052424D01*
X0151982Y0053423D02*
X0194800Y0053423D01*
X0194800Y0054421D02*
X0150983Y0054421D01*
X0149985Y0055420D02*
X0194800Y0055420D01*
X0194800Y0056418D02*
X0148986Y0056418D01*
X0147988Y0057417D02*
X0194800Y0057417D01*
X0194800Y0058415D02*
X0146989Y0058415D01*
X0145990Y0059414D02*
X0194800Y0059414D01*
X0194800Y0060412D02*
X0144992Y0060412D01*
X0143993Y0061411D02*
X0194800Y0061411D01*
X0194800Y0062409D02*
X0142995Y0062409D01*
X0138804Y0066600D02*
X0130604Y0074800D01*
X0130796Y0074800D01*
X0138804Y0066792D01*
X0138804Y0066600D01*
X0138194Y0067402D02*
X0138002Y0067402D01*
X0137196Y0068400D02*
X0137004Y0068400D01*
X0136197Y0069399D02*
X0136005Y0069399D01*
X0135199Y0070397D02*
X0135007Y0070397D01*
X0134200Y0071396D02*
X0134008Y0071396D01*
X0133202Y0072394D02*
X0133010Y0072394D01*
X0132203Y0073393D02*
X0132011Y0073393D01*
X0131205Y0074391D02*
X0131013Y0074391D01*
X0134016Y0076388D02*
X0134207Y0076388D01*
X0135014Y0075390D02*
X0135206Y0075390D01*
X0136013Y0074391D02*
X0136205Y0074391D01*
X0137011Y0073393D02*
X0137203Y0073393D01*
X0138010Y0072394D02*
X0138202Y0072394D01*
X0139008Y0071396D02*
X0139200Y0071396D01*
X0140007Y0070397D02*
X0140199Y0070397D01*
X0141005Y0069399D02*
X0141197Y0069399D01*
X0129200Y0071396D02*
X0036300Y0071396D01*
X0026500Y0076500D02*
X0011500Y0061500D01*
X0011500Y0011500D01*
X0004000Y0005494D02*
X0235220Y0005494D01*
X0235220Y0004496D02*
X0004000Y0004496D01*
X0121500Y0031500D02*
X0141500Y0011500D01*
X0136560Y0011485D02*
X0136440Y0011485D01*
X0136427Y0010487D02*
X0136573Y0010487D01*
X0136986Y0009488D02*
X0136014Y0009488D01*
X0135476Y0008490D02*
X0137524Y0008490D01*
X0138522Y0007491D02*
X0134477Y0007491D01*
X0136440Y0012484D02*
X0136560Y0012484D01*
X0121500Y0031500D02*
X0121500Y0059000D01*
X0116500Y0064000D01*
X0118337Y0059414D02*
X0118682Y0059414D01*
X0089681Y0058415D02*
X0088750Y0058415D01*
X0088682Y0059414D02*
X0088337Y0059414D01*
X0133017Y0077387D02*
X0133209Y0077387D01*
X0136020Y0079384D02*
X0162537Y0079384D01*
X0162140Y0080382D02*
X0135022Y0080382D01*
X0137019Y0078385D02*
X0163262Y0078385D01*
X0164678Y0077387D02*
X0138017Y0077387D01*
X0166213Y0077387D02*
X0166787Y0077387D01*
X0166787Y0078385D02*
X0166213Y0078385D01*
X0166213Y0079384D02*
X0166787Y0079384D01*
X0166787Y0080382D02*
X0166213Y0080382D01*
X0166213Y0082379D02*
X0166787Y0082379D01*
X0166787Y0083378D02*
X0166213Y0083378D01*
X0166213Y0084376D02*
X0166787Y0084376D01*
X0166787Y0085375D02*
X0166213Y0085375D01*
X0170860Y0080382D02*
X0194800Y0080382D01*
X0194800Y0079384D02*
X0170463Y0079384D01*
X0169738Y0078385D02*
X0194800Y0078385D01*
X0194800Y0077387D02*
X0168322Y0077387D01*
X0198200Y0077387D02*
X0215475Y0077387D01*
X0213686Y0078385D02*
X0198200Y0078385D01*
X0198200Y0079384D02*
X0212839Y0079384D01*
X0212425Y0080382D02*
X0198200Y0080382D01*
X0198200Y0081381D02*
X0212308Y0081381D01*
X0212327Y0082379D02*
X0198200Y0082379D01*
X0198200Y0083378D02*
X0212740Y0083378D01*
X0213448Y0084376D02*
X0198200Y0084376D01*
X0196500Y0091500D02*
X0196500Y0026500D01*
X0184932Y0020472D02*
X0235220Y0020472D01*
X0235220Y0021470D02*
X0183934Y0021470D01*
X0182935Y0022469D02*
X0235220Y0022469D01*
X0235220Y0023467D02*
X0181937Y0023467D01*
X0185931Y0019473D02*
X0235220Y0019473D01*
X0235220Y0018475D02*
X0186929Y0018475D01*
X0187524Y0008490D02*
X0185476Y0008490D01*
X0184477Y0007491D02*
X0188522Y0007491D01*
X0194477Y0007491D02*
X0198103Y0007491D01*
X0197210Y0008490D02*
X0195476Y0008490D01*
X0203046Y0006493D02*
X0235220Y0006493D01*
X0235220Y0007491D02*
X0204897Y0007491D01*
X0205439Y0067402D02*
X0198200Y0067402D01*
X0198200Y0068400D02*
X0203671Y0068400D01*
X0202833Y0069399D02*
X0198200Y0069399D01*
X0198200Y0070397D02*
X0202419Y0070397D01*
X0202308Y0071396D02*
X0198200Y0071396D01*
X0198200Y0072394D02*
X0202333Y0072394D01*
X0202747Y0073393D02*
X0198200Y0073393D01*
X0198200Y0074391D02*
X0203463Y0074391D01*
D14*
X0146500Y0066500D03*
X0141500Y0066500D03*
X0066500Y0081500D03*
X0041500Y0046500D03*
X0196500Y0026500D03*
M02*
