G75*
%MOIN*%
%OFA0B0*%
%FSLAX25Y25*%
%IPPOS*%
%LPD*%
%AMOC8*
5,1,8,0,0,1.08239X$1,22.5*
%
%ADD10C,0.06784*%
%ADD11R,0.06784X0.06784*%
%ADD12C,0.08280*%
%ADD13C,0.11099*%
%ADD14R,0.11099X0.11099*%
%ADD15C,0.10312*%
%ADD16R,0.08280X0.08280*%
%ADD17R,0.09524X0.09524*%
%ADD18C,0.09524*%
%ADD19C,0.05300*%
%ADD20C,0.20548*%
%ADD21C,0.18580*%
D10*
X0131500Y0106868D03*
X0141500Y0106868D03*
X0151500Y0106868D03*
X0161500Y0106868D03*
X0171500Y0106868D03*
X0181500Y0106868D03*
X0191500Y0106868D03*
X0201500Y0106868D03*
X0211500Y0106868D03*
X0221500Y0106868D03*
X0231500Y0106868D03*
X0241500Y0106868D03*
X0251500Y0106868D03*
X0261500Y0106868D03*
X0276500Y0116868D03*
X0276500Y0126868D03*
X0276500Y0136868D03*
X0276500Y0146868D03*
X0276500Y0156868D03*
X0276500Y0166868D03*
X0266500Y0176868D03*
X0256500Y0176868D03*
X0266500Y0201868D03*
X0276500Y0201868D03*
X0286500Y0201868D03*
X0296500Y0201868D03*
X0306500Y0201868D03*
X0316500Y0201868D03*
X0316500Y0211868D03*
X0316500Y0221868D03*
X0306500Y0241868D03*
X0306500Y0251868D03*
X0296500Y0241868D03*
X0286500Y0241868D03*
X0276500Y0241868D03*
X0266500Y0241868D03*
X0266500Y0251868D03*
X0246500Y0236868D03*
X0236000Y0221868D03*
X0231500Y0206868D03*
X0241500Y0206868D03*
X0221500Y0206868D03*
X0211500Y0206868D03*
X0217000Y0221868D03*
X0206500Y0236868D03*
X0194000Y0241868D03*
X0194000Y0251868D03*
X0181500Y0251868D03*
X0181500Y0231868D03*
X0159000Y0256868D03*
X0159000Y0266868D03*
X0146500Y0234368D03*
X0136000Y0219368D03*
X0131500Y0204368D03*
X0141500Y0204368D03*
X0121500Y0204368D03*
X0111500Y0204368D03*
X0117000Y0219368D03*
X0106500Y0234368D03*
X0096500Y0224368D03*
X0096500Y0214368D03*
X0096500Y0186868D03*
X0106500Y0186868D03*
X0116500Y0186868D03*
X0126500Y0186868D03*
X0126500Y0146868D03*
X0116500Y0146868D03*
X0106500Y0146868D03*
X0096500Y0146868D03*
X0131500Y0136868D03*
X0141500Y0136868D03*
X0136500Y0146868D03*
X0151500Y0136868D03*
X0161500Y0136868D03*
X0171500Y0136868D03*
X0181500Y0136868D03*
X0181500Y0146868D03*
X0171500Y0151868D03*
X0181500Y0156868D03*
X0191500Y0146868D03*
X0191500Y0136868D03*
X0201500Y0136868D03*
X0211500Y0136868D03*
X0221500Y0136868D03*
X0231500Y0136868D03*
X0241500Y0136868D03*
X0251500Y0136868D03*
X0306500Y0136868D03*
X0306500Y0146868D03*
X0306500Y0156868D03*
X0306500Y0166868D03*
X0316500Y0156868D03*
X0326500Y0156868D03*
X0336500Y0156868D03*
X0336500Y0166868D03*
X0326500Y0176868D03*
X0326500Y0186868D03*
X0316500Y0186868D03*
X0316500Y0176868D03*
X0306500Y0176868D03*
X0336500Y0146868D03*
X0336500Y0136868D03*
X0336500Y0126868D03*
X0336500Y0116868D03*
X0326500Y0116868D03*
X0316500Y0116868D03*
X0306500Y0116868D03*
X0306500Y0126868D03*
X0336500Y0099368D03*
X0346500Y0099368D03*
X0366500Y0116868D03*
X0366500Y0126868D03*
X0376500Y0126868D03*
X0376500Y0116868D03*
X0376500Y0136868D03*
X0366500Y0136868D03*
X0366500Y0146868D03*
X0366500Y0156868D03*
X0366500Y0166868D03*
X0366500Y0176868D03*
X0376500Y0176868D03*
X0376500Y0189368D03*
X0386500Y0189368D03*
X0386500Y0201868D03*
X0386500Y0211868D03*
X0386500Y0221868D03*
X0386500Y0231868D03*
X0356500Y0221868D03*
X0346500Y0221868D03*
X0346500Y0211868D03*
X0356500Y0211868D03*
X0356500Y0201868D03*
X0346500Y0201868D03*
X0346500Y0231868D03*
X0311500Y0291868D03*
X0311500Y0301868D03*
X0301500Y0301868D03*
X0301500Y0291868D03*
X0286500Y0271868D03*
X0256500Y0281868D03*
X0256500Y0291868D03*
X0246500Y0296868D03*
X0241500Y0311868D03*
X0241500Y0321868D03*
X0251500Y0316868D03*
X0206500Y0296868D03*
X0191500Y0296868D03*
X0181500Y0296868D03*
X0181500Y0336868D03*
X0191500Y0336868D03*
X0141500Y0321868D03*
X0131500Y0321868D03*
X0121500Y0321868D03*
X0111500Y0321868D03*
X0101500Y0321868D03*
X0104000Y0356868D03*
X0094000Y0356868D03*
X0084000Y0356868D03*
X0081500Y0371868D03*
X0081500Y0381868D03*
X0041500Y0381868D03*
X0041500Y0371868D03*
X0056500Y0331868D03*
X0066500Y0331868D03*
X0061500Y0321868D03*
X0061500Y0281868D03*
X0061500Y0271868D03*
X0171500Y0191868D03*
X0301500Y0316868D03*
X0327000Y0316868D03*
X0362000Y0316868D03*
D11*
X0376000Y0316868D03*
X0341000Y0316868D03*
X0286500Y0301868D03*
X0316500Y0231868D03*
X0356500Y0231868D03*
X0336500Y0176868D03*
X0276500Y0176868D03*
X0266500Y0146868D03*
X0261500Y0136868D03*
X0256500Y0146868D03*
X0181500Y0186868D03*
X0136500Y0176868D03*
X0211500Y0311868D03*
X0211500Y0321868D03*
D12*
X0251500Y0331868D03*
X0313000Y0343868D03*
X0340000Y0343868D03*
X0306500Y0261868D03*
X0296500Y0261868D03*
X0276500Y0261868D03*
X0266500Y0261868D03*
X0221500Y0186396D03*
X0215400Y0084668D03*
X0197600Y0084668D03*
X0185400Y0084668D03*
X0167600Y0084668D03*
X0155400Y0084668D03*
X0137600Y0084668D03*
X0125400Y0084668D03*
X0107600Y0084668D03*
X0095400Y0084668D03*
X0077600Y0084668D03*
X0077600Y0059068D03*
X0077600Y0047168D03*
X0095400Y0047168D03*
X0095400Y0059068D03*
X0107600Y0059068D03*
X0107600Y0047168D03*
X0125400Y0047168D03*
X0125400Y0059068D03*
X0137600Y0059068D03*
X0137600Y0047168D03*
X0155400Y0047168D03*
X0155400Y0059068D03*
X0167600Y0059068D03*
X0167600Y0047168D03*
X0185400Y0047168D03*
X0185400Y0059068D03*
X0197600Y0059068D03*
X0197600Y0047168D03*
X0215400Y0047168D03*
X0215400Y0059068D03*
X0237600Y0059068D03*
X0237600Y0047168D03*
X0255400Y0047168D03*
X0255400Y0059068D03*
X0267600Y0059068D03*
X0267600Y0047168D03*
X0285400Y0047168D03*
X0285400Y0059068D03*
X0297600Y0059068D03*
X0297600Y0047168D03*
X0315400Y0047168D03*
X0315400Y0059068D03*
X0315400Y0084668D03*
X0297600Y0084668D03*
X0285400Y0084668D03*
X0267600Y0084668D03*
X0255400Y0084668D03*
X0237600Y0084668D03*
X0237600Y0021568D03*
X0255400Y0021568D03*
X0267600Y0021568D03*
X0285400Y0021568D03*
X0297600Y0021568D03*
X0315400Y0021568D03*
X0215400Y0021568D03*
X0197600Y0021568D03*
X0185400Y0021568D03*
X0167600Y0021568D03*
X0155400Y0021568D03*
X0137600Y0021568D03*
X0125400Y0021568D03*
X0107600Y0021568D03*
X0095400Y0021568D03*
X0077600Y0021568D03*
X0041500Y0044368D03*
X0041500Y0054368D03*
X0041500Y0064368D03*
X0041500Y0074368D03*
X0031500Y0074368D03*
X0021500Y0074368D03*
X0021500Y0064368D03*
X0031500Y0064368D03*
X0031500Y0054368D03*
X0021500Y0054368D03*
X0021500Y0044368D03*
X0031500Y0044368D03*
X0011500Y0044368D03*
X0011500Y0054368D03*
X0011500Y0064368D03*
X0011500Y0074368D03*
X0011500Y0116868D03*
X0011500Y0126868D03*
X0021500Y0126868D03*
X0031500Y0126868D03*
X0031500Y0116868D03*
X0021500Y0116868D03*
X0041500Y0116868D03*
X0041500Y0126868D03*
X0051500Y0126868D03*
X0051500Y0116868D03*
X0061500Y0116868D03*
X0061500Y0126868D03*
X0071500Y0126868D03*
X0081500Y0126868D03*
X0081500Y0116868D03*
X0071500Y0116868D03*
X0091500Y0116868D03*
X0091500Y0126868D03*
X0101500Y0116868D03*
X0046500Y0171868D03*
X0046500Y0181868D03*
X0036500Y0181868D03*
X0036500Y0171868D03*
X0036500Y0161868D03*
X0036500Y0191868D03*
X0036500Y0201868D03*
X0046500Y0201868D03*
X0046500Y0191868D03*
X0040000Y0236868D03*
X0013000Y0236868D03*
X0036500Y0271868D03*
X0036500Y0281868D03*
X0046500Y0281868D03*
X0046500Y0291868D03*
X0046500Y0301868D03*
X0036500Y0301868D03*
X0036500Y0291868D03*
X0036500Y0311868D03*
X0046500Y0311868D03*
X0121500Y0361868D03*
X0131500Y0361868D03*
X0141500Y0361868D03*
X0141500Y0351868D03*
X0131500Y0351868D03*
X0151500Y0351868D03*
X0151500Y0361868D03*
X0161500Y0361868D03*
X0161500Y0351868D03*
D13*
X0242996Y0346868D03*
X0261500Y0346868D03*
D14*
X0280004Y0346868D03*
D15*
X0287878Y0384270D03*
X0235122Y0384270D03*
X0220748Y0377514D03*
X0220748Y0359010D03*
X0192252Y0359010D03*
X0192252Y0377514D03*
D16*
X0121500Y0351868D03*
X0046500Y0271868D03*
X0046500Y0161868D03*
X0101500Y0126868D03*
X0221500Y0157340D03*
X0291500Y0331868D03*
D17*
X0313100Y0369368D03*
D18*
X0319800Y0356768D03*
X0333200Y0356768D03*
X0326500Y0369368D03*
X0339900Y0369368D03*
D19*
X0212799Y0355285D03*
X0209650Y0360403D03*
X0206500Y0355285D03*
X0203350Y0360403D03*
X0200201Y0355285D03*
D20*
X0021185Y0021553D03*
X0021185Y0375884D03*
X0375516Y0375884D03*
X0375516Y0021553D03*
D21*
X0371579Y0092419D03*
X0371579Y0348325D03*
X0025122Y0348325D03*
X0025122Y0092419D03*
M02*
