%
M48
M72
T01C0.0157
T02C0.0197
T03C0.0315
T04C0.0394
T05C0.0472
T06C0.0551
T07C0.0630
T08C0.1378
T09C0.1575
%
T01
X6650Y16187
X6950Y16687
X7250Y16187
X7550Y16687
X7850Y16187
X8150Y16687
X8450Y16187
X8750Y16687
X10150Y18187
X14250Y21937
X15300Y22687
X16150Y22187
X15650Y24187
X15650Y24687
X13550Y23287
X13150Y23587
X12830Y25137
X12400Y25137
X12150Y25687
X12750Y25987
X13000Y26287
X12400Y26587
X12900Y26887
X12400Y27187
X12900Y27487
X12400Y27787
X12650Y28187
X13150Y28487
X13650Y28787
X15400Y28937
X15400Y29437
X15400Y30387
X16650Y33187
X20150Y30687
X20650Y28687
X20150Y27187
X22650Y29687
X24150Y30187
X23150Y27687
X23650Y26687
X25150Y26687
X25150Y26187
X27150Y27687
X26150Y23687
X25950Y22687
X22650Y22637
X20300Y22287
X20400Y21137
X21650Y20037
X22650Y20037
X24400Y17437
X24400Y16937
X26150Y19187
X19900Y17687
X16150Y19687
X14650Y18187
X7150Y25487
X6150Y25187
X6150Y24687
X6150Y24187
X7150Y27437
X7150Y27937
X7150Y28687
X6650Y29187
X7650Y29187
X9150Y29437
X10400Y29437
X10900Y29437
X11400Y29437
X9650Y27687
X9650Y31687
X10150Y32887
X10150Y33337
X7800Y33337
X7450Y32887
X15900Y27437
X3150Y21687
X29400Y11687
X33150Y15187
X32150Y16687
X35750Y16287
X35750Y17187
X34650Y10687
X35150Y8687
X35650Y8687
X38650Y3687
T02
X21280Y35529
X20965Y36040
X20650Y35529
X20335Y36040
X20020Y35529
T03
X19150Y33687
X18150Y33687
X21150Y32187
X21150Y31187
X20650Y29687
X19150Y29687
X18150Y29687
X15900Y26687
X15900Y25687
X18150Y25187
X19400Y25187
X19400Y24187
X18150Y23187
X20650Y23687
X21700Y22187
X22150Y20687
X21150Y20687
X23150Y20687
X24150Y20687
X23600Y22187
X24650Y23687
X26650Y24187
X27650Y24187
X28650Y24187
X29650Y24187
X30650Y24187
X31650Y23187
X31650Y22187
X31650Y21187
X31650Y20187
X30650Y20187
X29650Y20187
X28650Y20187
X27650Y20187
X26650Y20187
X26650Y17687
X27650Y17687
X27650Y16687
X27650Y15687
X27650Y14687
X26650Y14687
X26150Y13687
X25150Y13687
X25650Y14687
X24150Y13687
X23150Y13687
X22150Y13687
X21150Y13687
X20150Y13687
X19150Y13687
X19150Y14687
X18150Y14687
X18150Y13687
X17150Y13687
X16150Y13687
X15150Y13687
X14150Y13687
X13150Y13687
X12650Y14687
X11650Y14687
X10650Y14687
X9650Y14687
X9650Y18687
X10650Y18687
X11650Y18687
X12650Y18687
X13650Y17687
X13150Y20437
X14150Y20437
X13600Y21937
X14650Y23437
X11700Y21937
X12150Y20437
X11150Y20437
X9650Y21437
X9650Y22437
X10650Y23437
X6150Y27187
X6150Y28187
X6150Y32187
X5650Y33187
X6650Y33187
X8400Y35687
X9400Y35687
X10400Y35687
X8150Y37187
X8150Y38187
X4150Y38187
X4150Y37187
X10150Y32187
X11150Y32187
X12150Y32187
X13150Y32187
X14150Y32187
X24150Y32187
X24150Y31187
X25150Y31687
X24650Y29687
X25650Y29187
X25650Y28187
X26650Y25187
X28650Y27187
X30150Y29187
X30150Y30187
X31150Y30187
X31150Y29187
X30150Y31687
X28650Y30187
X32700Y31687
X34100Y31687
X36200Y31687
X37600Y31687
X30650Y25187
X34650Y23187
X35650Y23187
X35650Y22187
X34650Y22187
X34650Y21187
X35650Y21187
X35650Y20187
X34650Y20187
X32650Y18687
X32650Y17687
X33650Y17687
X33650Y16687
X33650Y15687
X32650Y15687
X31650Y15687
X30650Y15687
X30650Y16687
X30650Y17687
X31650Y17687
X31650Y18687
X30650Y14687
X30650Y13687
X30650Y12687
X30650Y11687
X31650Y11687
X32650Y11687
X33650Y11687
X33650Y12687
X33650Y13687
X33650Y14687
X36650Y14687
X36650Y13687
X37650Y13687
X37650Y12687
X36650Y12687
X36650Y11687
X37650Y11687
X34650Y9937
X33650Y9937
X27650Y11687
X27650Y12687
X27650Y13687
X26150Y10687
X25150Y10687
X24150Y10687
X23150Y10687
X22150Y10687
X21150Y10687
X20150Y10687
X19150Y10687
X18150Y10687
X17150Y10687
X16150Y10687
X15150Y10687
X14150Y10687
X13150Y10687
X13650Y14687
X17150Y15187
X18150Y15687
X18150Y18687
X17150Y19187
X25650Y17687
X36650Y17687
X37650Y17687
X37650Y18937
X38650Y18937
X38650Y20187
X38650Y21187
X38650Y22187
X38650Y23187
X36650Y16687
X36650Y15687
T04
X31540Y8467
X29760Y8467
X28540Y8467
X26760Y8467
X25540Y8467
X23760Y8467
X21540Y8467
X19760Y8467
X18540Y8467
X16760Y8467
X15540Y8467
X13760Y8467
X12540Y8467
X10760Y8467
X9540Y8467
X7760Y8467
X7760Y5907
X7760Y4717
X9540Y4717
X9540Y5907
X10760Y5907
X10760Y4717
X12540Y4717
X12540Y5907
X13760Y5907
X13760Y4717
X15540Y4717
X15540Y5907
X16760Y5907
X16760Y4717
X18540Y4717
X18540Y5907
X19760Y5907
X19760Y4717
X21540Y4717
X21540Y5907
X23760Y5907
X23760Y4717
X25540Y4717
X25540Y5907
X26760Y5907
X26760Y4717
X28540Y4717
X28540Y5907
X29760Y5907
X29760Y4717
X31540Y4717
X31540Y5907
X31540Y2157
X29760Y2157
X28540Y2157
X26760Y2157
X25540Y2157
X23760Y2157
X21540Y2157
X19760Y2157
X18540Y2157
X16760Y2157
X15540Y2157
X13760Y2157
X12540Y2157
X10760Y2157
X9540Y2157
X7760Y2157
X4150Y4437
X4150Y5437
X4150Y6437
X4150Y7437
X3150Y7437
X2150Y7437
X2150Y6437
X3150Y6437
X3150Y5437
X2150Y5437
X2150Y4437
X3150Y4437
X1150Y4437
X1150Y5437
X1150Y6437
X1150Y7437
X1150Y11687
X1150Y12687
X2150Y12687
X3150Y12687
X3150Y11687
X2150Y11687
X4150Y11687
X4150Y12687
X5150Y12687
X5150Y11687
X6150Y11687
X6150Y12687
X7150Y12687
X8150Y12687
X8150Y11687
X7150Y11687
X9150Y11687
X9150Y12687
X10150Y12687
X10150Y11687
X4650Y16187
X3650Y16187
X3650Y17187
X3650Y18187
X4650Y18187
X4650Y17187
X4650Y19187
X4650Y20187
X3650Y20187
X3650Y19187
X4000Y23687
X1300Y23687
X3650Y27187
X3650Y28187
X4650Y28187
X4650Y27187
X4650Y29187
X4650Y30187
X3650Y30187
X3650Y29187
X3650Y31187
X4650Y31187
X12150Y35187
X12150Y36187
X13150Y36187
X14150Y36187
X14150Y35187
X13150Y35187
X15150Y35187
X15150Y36187
X16150Y36187
X16150Y35187
X25150Y33187
X29150Y33187
X31300Y34387
X34000Y34387
X30650Y26187
X29650Y26187
X27650Y26187
X26650Y26187
X22150Y18640
X22150Y15734
T05
X31980Y35677
X33320Y35677
X32650Y36937
X33990Y36937
X31310Y36937
T06
X28788Y38427
X23512Y38427
X22075Y37751
X22075Y35901
X19225Y35901
X19225Y37751
T07
X24300Y34687
X26150Y34687
X28000Y34687
T08
X37158Y34832
X37158Y9242
X2512Y9242
X2512Y34832
T09
X2119Y2155
X37552Y2155
X37552Y37588
X2119Y37588
M30
